<?xml version="1.0" encoding="utf-8"?>
<!-- Generator: Adobe Illustrator 25.0.0, SVG Export Plug-In . SVG Version: 6.00 Build 0)  -->
<svg version="1.1" id="Layer_1" xmlns="http://www.w3.org/2000/svg" xmlns:xlink="http://www.w3.org/1999/xlink" x="0px" y="0px"
	 viewBox="0 0 154.19 357.89" style="enable-background:new 0 0 154.19 357.89;" xml:space="preserve">
<style type="text/css">
	.st0{fill:url(#SVGID_1_);}
	.st1{fill:url(#SVGID_2_);}
</style>
<g>
	<g>
		<linearGradient id="SVGID_1_" gradientUnits="userSpaceOnUse" x1="-204.0082" y1="-100.9918" x2="503.0095" y2="606.0259">
			<stop  offset="0" style="stop-color:#999FAF"/>
			<stop  offset="0.1651" style="stop-color:#979DAC"/>
			<stop  offset="0.2643" style="stop-color:#9195A4"/>
			<stop  offset="0.3462" style="stop-color:#878996"/>
			<stop  offset="0.4186" style="stop-color:#787782"/>
			<stop  offset="0.4841" style="stop-color:#656068"/>
			<stop  offset="0.5" style="stop-color:#605960"/>
			<stop  offset="0.5159" style="stop-color:#656068"/>
			<stop  offset="0.5814" style="stop-color:#787782"/>
			<stop  offset="0.6538" style="stop-color:#878996"/>
			<stop  offset="0.7357" style="stop-color:#9195A4"/>
			<stop  offset="0.8349" style="stop-color:#979DAC"/>
			<stop  offset="1" style="stop-color:#999FAF"/>
		</linearGradient>
		<path class="st0" d="M6.46,190.17c-2.49-0.32-4.47-0.58-6.46-0.83c1.12-1.8,1.9-3.98,3.43-5.29c2.07-1.76,2.74-3.57,2.67-6.21
			c-0.91-34.1-1.82-68.2-2.47-102.31C3.47,66.77,2.88,57.67,4.9,49.3c2.2-9.09,6.92-17.64,11.18-26.1c1.14-2.27,4.4-3.93,7.05-4.92
			c12.01-4.5,24.14-8.64,36.22-12.95c3.94-1.41,7.76-3.26,11.8-4.26c3.19-0.79,6.93-1.57,9.9-0.66c12.39,3.77,24.68,7.91,36.82,12.4
			c21.85,8.1,20.43,7.58,29.22,28.28c4.67,10.99,3.6,22.79,3.4,34.3c-0.58,33.98-1.53,67.95-2.46,101.92
			c-0.08,3.09,0.5,5.44,3.23,7.05c0.65,0.38,1.36,0.88,1.7,1.51c0.56,1.03,0.83,2.22,1.23,3.34c-1.13,0.29-2.24,0.74-3.38,0.83
			c-0.83,0.06-1.69-0.36-3.13-0.72c0,1.78-0.02,3.35,0,4.93c0.42,31.06,1.05,62.11,1.17,93.17c0.06,14.87-3.39,29.24-8.28,43.27
			c-2.88,8.26-8.32,13.94-16.14,17.87c-12.23,6.16-25.33,8.36-38.72,9.07c-16.99,0.91-33.73-0.42-49.97-6.34
			c-12.93-4.71-20.77-13.35-24.35-26.57C6.96,308.39,4.62,291.89,5,274.95c0.6-26.73,0.99-53.46,1.46-80.18
			C6.48,193.12,6.46,191.48,6.46,190.17z M137.2,157.32c-0.28-8.15-3.13-13.93-8.8-18.43c-8.22-6.52-18.04-8.55-27.98-10.26
			c-1.22-0.21-2.61,0.69-3.94,1.02c-1.5,0.38-3.02,1.01-4.54,1.01c-8.76,0-17.52-0.21-26.28-0.22c-3.21,0-6.52,1.29-9.35-1.45
			c-0.52-0.5-1.74-0.57-2.56-0.42c-9.52,1.78-18.98,3.6-27.06,9.6c-8.15,6.05-11.36,14.68-8.73,24.49
			c3.23,12.03,6.44,24.07,9.65,36.11c1.25,4.68,2.17,5.33,6.69,4.03c28.49-8.23,56.96-8.22,85.46-0.02c4.59,1.32,5.49,0.7,6.73-3.95
			c3.18-11.91,6.38-23.82,9.52-35.75C136.6,160.88,136.94,158.61,137.2,157.32z M77.16,271.77c-5.22,0-10.44-0.14-15.65,0.03
			c-9.31,0.29-18.02,3.04-26.33,7.09c-6.8,3.32-10.04,9.47-12.42,16.21c-0.27,0.77-0.23,1.8,0.04,2.58
			c3.06,8.66,7.78,15.98,16.42,20.12c8.75,4.19,17.99,6.13,27.65,6.54c13.77,0.58,27.47,0.68,40.84-3.55
			c10.41-3.3,18.07-9.5,22.45-19.71c1.48-3.45,1.46-6.36-0.14-9.77c-3.19-6.8-8.04-11.42-15.01-14.36
			C102.82,271.8,90.04,271.34,77.16,271.77z M16.03,183.63c0,1.12-0.06,2.24,0.01,3.35c1.2,19.16,2.43,38.31,3.62,57.47
			c0.27,4.3,3.27,5.87,7.23,7.52C27.25,228.32,25.48,205.51,16.03,183.63z M137.2,184.59c-8.5,20.92-10.35,43.74-9.93,67.14
			c5.56-1.89,6.92-3.56,7.29-8.48c0.88-11.41,2-22.8,2.55-34.22C137.53,200.62,137.2,192.18,137.2,184.59z M126.42,32.45
			c2.08,2.56,3.72,5.46,6.16,7.28c1.74,1.3,4.98,2.12,6.75,1.33c1.36-0.61,2.5-4.39,1.9-6.14c-1.25-3.7-3.33-7.3-5.77-10.38
			c-2.17-2.73-5.42-3.75-8.7-1.07c-0.89-1.17-1.56-2.26-2.45-3.13c-0.89-0.88-1.91-1.71-3.02-2.26c-3.42-1.67-6.07-0.09-6.42,3.71
			C114.25,28.59,120.53,34.14,126.42,32.45z M28.07,22.21c-3.11,0.37-5.78-0.02-7.62,1.04c-4.78,2.73-7.51,7.25-7.77,12.78
			c-0.08,1.76,0.86,4.52,2.14,5.13c1.53,0.73,4.45,0.32,5.84-0.77c2.7-2.14,4.76-5.1,7.24-7.9c5.83,1.75,12.29-4.21,11.3-11.09
			c-0.49-3.4-3.01-5.04-6-3.39C30.96,19.24,29.17,21.28,28.07,22.21z M120.7,345.88c9.24,1.9,19.78-12.95,20.14-22.15
			c-2.76,3.88-5.29,8.23-8.58,11.88C128.99,339.23,124.95,342.16,120.7,345.88z M13.4,323.78c1.65,12.07,12.18,24.24,20.17,21.8
			C25.11,339.51,18.1,332.71,13.4,323.78z M22.25,259.46c0.51,3.67,0.93,6.74,1.41,10.2C26.82,264.69,26.54,261.98,22.25,259.46z
			 M130.5,269.85c0.51-3.8,0.91-6.84,1.37-10.26C127.61,261.88,127.31,264.29,130.5,269.85z"/>
	</g>
</g>
<linearGradient id="SVGID_2_" gradientUnits="userSpaceOnUse" x1="-808.4149" y1="-216.5" x2="917.2523" y2="-216.5">
	<stop  offset="0" style="stop-color:#999FAF"/>
	<stop  offset="0.1651" style="stop-color:#979DAC"/>
	<stop  offset="0.2643" style="stop-color:#9195A4"/>
	<stop  offset="0.3462" style="stop-color:#878996"/>
	<stop  offset="0.4186" style="stop-color:#787782"/>
	<stop  offset="0.4841" style="stop-color:#656068"/>
	<stop  offset="0.5" style="stop-color:#605960"/>
	<stop  offset="0.5159" style="stop-color:#656068"/>
	<stop  offset="0.5814" style="stop-color:#787782"/>
	<stop  offset="0.6538" style="stop-color:#878996"/>
	<stop  offset="0.7357" style="stop-color:#9195A4"/>
	<stop  offset="0.8349" style="stop-color:#979DAC"/>
	<stop  offset="1" style="stop-color:#999FAF"/>
</linearGradient>
<rect x="-286.22" y="-376.96" class="st1" width="689.43" height="320.93"/>
</svg>
