<?xml version="1.0" encoding="utf-8"?>
<!-- Generator: Adobe Illustrator 25.0.0, SVG Export Plug-In . SVG Version: 6.00 Build 0)  -->
<svg version="1.1" id="Layer_1" xmlns="http://www.w3.org/2000/svg" xmlns:xlink="http://www.w3.org/1999/xlink" x="0px" y="0px"
	 viewBox="0 0 982.66 358.53" style="enable-background:new 0 0 982.66 358.53;" xml:space="preserve">
<style type="text/css">
	.st0{fill:url(#SVGID_1_);}
	.st1{fill:url(#SVGID_2_);}
	.st2{fill:url(#SVGID_3_);}
	.st3{fill:url(#SVGID_4_);}
	.st4{fill:url(#SVGID_5_);}
</style>
<g>
	<g>
		<linearGradient id="SVGID_1_" gradientUnits="userSpaceOnUse" x1="-196.559" y1="-292.5839" x2="1441.9578" y2="1345.933">
			<stop  offset="0" style="stop-color:#999FAF"/>
			<stop  offset="0.1651" style="stop-color:#979DAC"/>
			<stop  offset="0.2643" style="stop-color:#9195A4"/>
			<stop  offset="0.3462" style="stop-color:#878996"/>
			<stop  offset="0.4186" style="stop-color:#787782"/>
			<stop  offset="0.4841" style="stop-color:#656068"/>
			<stop  offset="0.5" style="stop-color:#605960"/>
			<stop  offset="0.5159" style="stop-color:#656068"/>
			<stop  offset="0.5814" style="stop-color:#787782"/>
			<stop  offset="0.6538" style="stop-color:#878996"/>
			<stop  offset="0.7357" style="stop-color:#9195A4"/>
			<stop  offset="0.8349" style="stop-color:#979DAC"/>
			<stop  offset="1" style="stop-color:#999FAF"/>
		</linearGradient>
		<path class="st0" d="M368.6,140.8c-4.31-1.73-8.72-3.5-13.61-5.46c0,1.8,0.01,3.03,0,4.27c-0.54,41.87-1.15,83.74-1.58,125.61
			c-0.11,11.32,0.53,22.65,0.47,33.97c-0.04,7.98-0.62,15.79-4.21,23.41c-2.11,4.49-1.29,10.28-2.42,15.34
			c-0.59,2.65-2.02,5.57-3.98,7.36c-6.5,5.91-14.58,8.64-23.14,9.99c-27.89,4.4-55.74,4.58-83.5-1.06c-7-1.42-13.32-4.44-18.56-9.26
			c-1.72-1.58-3.03-4.09-3.53-6.4c-0.95-4.33-1.18-8.82-1.71-13.24c-0.09-0.76,0.02-1.63-0.32-2.25
			c-6.35-11.34-4.45-23.75-4.67-35.86c-0.38-21.5-0.74-43-0.88-64.49c-0.19-27.37-0.16-54.73-0.22-82.1c0-1.52,0-3.04,0-5.35
			c-3.6,1.5-6.75,2.95-10.01,4.09c-1.37,0.48-2.97,0.3-4.46,0.43c0.16-1.9-0.41-4.48,0.61-5.58c3.41-3.7,7.24-7.06,11.23-10.15
			c1.78-1.37,2.83-2.5,2.78-4.84c-0.27-12.06-0.6-24.13-0.54-36.2c0.06-11.32,0.58-22.64,0.95-33.95c0.04-1.12,0.16-2.37,0.67-3.33
			c4.04-7.49,7.99-15.03,12.34-22.34c3.96-6.64,10.2-10.86,16.84-14.57c3.74-2.09,7.28-4.52,10.99-6.67
			c0.93-0.54,2.15-0.8,3.24-0.82c5.22-0.08,10.44,0.11,15.65-0.09c3.76-0.14,7.49-0.78,11.24-1.12c1.51-0.14,3.05-0.18,4.57-0.1
			c8.71,0.41,17.43,0.73,26.11,1.41c2.18,0.17,4.32,1.44,6.39,2.4c1.6,0.74,2.97,1.97,4.58,2.66c12.79,5.43,21.87,14.55,27.56,27.2
			c1.66,3.7,4.03,7.09,5.58,10.82c1.04,2.51,1.69,5.39,1.69,8.1c-0.02,14.49-0.43,28.97-0.46,43.46c-0.02,8.27,0.35,16.54,0.78,24.8
			c0.05,1.03,1.48,2.08,2.44,2.94c3.67,3.29,7.56,6.36,11.07,9.81C370.51,135.52,371.03,138.05,368.6,140.8z M280.82,89.63
			c-16.23,0.94-32.98,0.85-48.7,7.75c-7.64,3.35-10.35,6.84-9.18,14.95c1.7,11.82,3.75,23.6,5.86,35.36
			c0.94,5.24,3.52,6.66,8.77,5.62c6.36-1.27,12.7-3.4,19.09-3.58c22.72-0.64,45.56-2.53,67.97,3.6c4.65,1.28,7.4-0.55,8.26-5.33
			c2.12-11.89,4.2-23.79,5.92-35.74c1.14-7.94-1.56-11.55-8.89-14.78C314.33,90.61,297.72,90.54,280.82,89.63z M281.04,176.36
			c0,0.04-0.01,0.07-0.01,0.11c-9.91,0-19.83-0.24-29.73,0.08c-6.44,0.21-8.84,3.12-8.87,9.43c-0.04,7.38-0.05,14.75,0,22.13
			c0.04,5.73,2.41,8.82,8.14,8.89c20.2,0.24,40.41,0.24,60.62,0c5.71-0.07,8.06-3.17,8.1-8.93c0.05-6.99,0.02-13.99,0.01-20.98
			c-0.01-7.79-2.18-10.39-10.06-10.65C299.86,176.12,290.45,176.36,281.04,176.36z M240.4,326.77c-1.08,3.27-2.37,6.57-3.22,9.98
			c-0.91,3.69,0.28,7.06,3.58,8.9c3.16,1.76,6.65,3.45,10.17,3.93c18.99,2.6,38.07,2.12,57.09,0.47c4.38-0.38,8.74-2.43,12.82-4.32
			c3.11-1.44,4.51-4.68,3.83-8.06c-0.75-3.74-2.19-7.35-3.43-11.36c-6.29,4.7-12.23,8.84-19.57,9.46
			c-9.11,0.77-18.26,1.33-27.4,1.35c-12.02,0.03-23.58-2.04-33.14-10.25C241.05,326.81,240.89,326.84,240.4,326.77z M225.06,228.47
			c0.45-0.27,0.91-0.55,1.36-0.82c0-1.58,0.03-3.16,0-4.73c-0.55-24.83-3.17-49.48-6.76-74.03c-0.7-4.78-1.28-9.59-2.25-14.31
			c-0.45-2.23-0.63-5.29-4.46-4.89c-0.12,0.64-0.3,1.13-0.28,1.62c0.82,29.36,1.65,58.73,2.55,88.09c0.03,1.02,0.56,2.36,1.32,2.97
			C219.27,224.52,222.2,226.45,225.06,228.47z M335.6,228.11c8.39-2.83,10.9-5.59,11.14-13.06c0.89-27.32,1.59-54.65,2.34-81.98
			c0.03-1.11-0.12-2.22-0.18-3.34c-3.23,0.31-4.05,1.19-4.71,5.33c-4.69,29.53-8.31,59.18-8.92,89.12
			C335.26,225.37,335.47,226.56,335.6,228.11z M215.95,232.74c3.29,27.24,6.5,53.86,9.71,80.49c0.41-0.02,0.83-0.04,1.24-0.06
			c3.29-5.09,4.75-10.47,4.14-16.77c-1.69-17.35-2.9-34.75-4.38-52.13C225.77,233.89,227.81,236.35,215.95,232.74z M334.74,313.25
			c0.45-0.02,0.9-0.05,1.34-0.07c3.21-26.65,6.42-53.3,9.72-80.71c-3.04,1.01-5.03,1.84-7.1,2.32c-2.21,0.51-3.06,1.66-3.23,3.92
			c-1.6,20.56-3.32,41.11-4.96,61.66C330.12,305.29,332.72,309.18,334.74,313.25z M245.9,319.98c-0.16,0.53-0.33,1.05-0.49,1.58
			c2.18,1.18,4.24,2.98,6.56,3.43c19.3,3.72,38.66,3.77,57.96-0.05c2.27-0.45,4.28-2.26,6.41-3.44c-0.13-0.54-0.25-1.07-0.38-1.61
			C292.58,327.38,269.23,327.27,245.9,319.98z M239.34,11.54c-12.62,5.52-25.32,20.73-25.35,29.1c3.32-5.25,6.23-11.28,10.48-16.17
			C228.74,19.57,234.33,15.81,239.34,11.54z M347.52,41.32c-0.25-9.88-15.56-27.83-25.98-30.08
			C332.98,19.63,343.04,28.09,347.52,41.32z"/>
	</g>
	<linearGradient id="SVGID_2_" gradientUnits="userSpaceOnUse" x1="-92.6826" y1="-396.4603" x2="1545.8342" y2="1242.0565">
		<stop  offset="0" style="stop-color:#999FAF"/>
		<stop  offset="0.1651" style="stop-color:#979DAC"/>
		<stop  offset="0.2643" style="stop-color:#9195A4"/>
		<stop  offset="0.3462" style="stop-color:#878996"/>
		<stop  offset="0.4186" style="stop-color:#787782"/>
		<stop  offset="0.4841" style="stop-color:#656068"/>
		<stop  offset="0.5" style="stop-color:#605960"/>
		<stop  offset="0.5159" style="stop-color:#656068"/>
		<stop  offset="0.5814" style="stop-color:#787782"/>
		<stop  offset="0.6538" style="stop-color:#878996"/>
		<stop  offset="0.7357" style="stop-color:#9195A4"/>
		<stop  offset="0.8349" style="stop-color:#979DAC"/>
		<stop  offset="1" style="stop-color:#999FAF"/>
	</linearGradient>
	<path class="st1" d="M405.91,142.44c-2.96,1.42-5.08,2.43-7.15,3.42c-3.71-5.68-2.31-10.75,2.97-15.61
		c2.24-2.06,4.51-5.49,4.54-8.32c0.26-23.27,0.84-46.6-0.39-69.82c-0.83-15.57,6.02-25.71,17.63-33.93
		c21.3-15.09,45.41-19.51,70.9-17.84c18.6,1.22,36.22,6.03,51.55,17.1c4.75,3.42,9.58,7.36,12.78,12.13
		c2.99,4.47,5.33,10.33,5.43,15.63c0.49,25.51,0.16,51.04,0.02,76.56c-0.02,3.77,1.02,6.35,4.36,8.62c6,4.07,7.02,9.45,3.53,15.51
		c-2.12-0.99-4.28-1.99-7.25-3.37c0,3.9,0.09,7.44-0.01,10.98c-0.82,28.36-1.16,56.74-2.67,85.07c-1.48,27.71-4.14,55.35-6.32,83.02
		c-0.34,4.27-0.58,8.58-1.34,12.78c-1.1,6.09-4.86,10.3-10.56,12.55c-39.13,15.49-78.3,15.53-117.4-0.09
		c-6.64-2.65-10.2-7.85-10.77-15.06c-3.15-40.49-6.75-80.95-9.29-121.48c-1.22-19.54-0.46-39.21-0.59-58.83
		C405.89,148.69,405.91,145.92,405.91,142.44z M485.82,88.25c-0.1,0.41-0.2,0.81-0.29,1.22c-6.91,0.51-13.86,0.71-20.72,1.6
		c-12.39,1.6-24.62,4.14-34.88,11.88c-1.84,1.39-3.56,4.73-3.25,6.86c1.86,12.7,4.3,25.31,6.62,37.93c1.16,6.31,3.74,8.13,9.79,6.49
		c28.19-7.66,56.33-7.67,84.5,0.03c5.25,1.44,8.71-0.09,9.69-5.97c1.98-11.86,3.69-23.79,6.39-35.49c1.33-5.75-0.28-9.05-5.01-11.45
		c-3.99-2.02-7.92-4.63-12.18-5.54C513,92.93,499.38,90.72,485.82,88.25z M535.72,268.97c-35.74,11.03-53.42,11.04-100.69,0.34
		c-0.54,3.81-1.11,7.6-1.59,11.4c-0.48,3.84-0.97,7.68-1.28,11.54c-1.31,16.39-0.09,18.19,15.77,23.74c1.15,0.4,2.3,0.81,3.48,1.16
		c16.51,4.87,33.41,4.96,50.29,3.43c11.6-1.05,22.83-4.01,32.94-10.28c3.59-2.23,5.65-4.76,4.98-9.42
		C538.11,290.42,537.03,279.9,535.72,268.97z M420.16,123.07c-0.08,1.8-0.23,3.6-0.23,5.39c0,19.75,0.01,39.51,0.04,59.26
		c0.01,8.11,1.5,9.9,10,12.1C429.83,173.83,429.08,147.95,420.16,123.07z M541.13,200.18c6.1-2.41,9.8-4.99,9.59-12.35
		c-0.55-19.53-0.12-39.1-0.1-58.65c0-2.09-0.18-4.18-0.28-6.27C541.99,148.01,540.17,173.65,541.13,200.18z M430.4,256.94
		c0-12.67,0-25.2,0-37.72c0-8.67-1.38-10.43-9.92-12.85c0,13.99,0.23,28.01-0.1,42.02C420.24,254.53,422.97,256.77,430.4,256.94z
		 M540.35,256.78c0.89,0.44,1.77,0.88,2.66,1.32c2.44-2.07,6.91-4.07,7-6.24c0.62-15.18,0.33-30.4,0.33-45.61
		c-0.46-0.34-0.91-0.67-1.37-1.01c-2.87,2.78-8.05,5.43-8.23,8.37C539.88,227.96,540.35,242.39,540.35,256.78z M545.27,288.75
		c0.86,0.08,1.72,0.15,2.57,0.23c4.64-9.03,1.4-18.8,1.38-28.83c-3.33,1.6-7.61,3.92-7.51,6.02
		C542.1,273.73,543.97,281.23,545.27,288.75z M422.83,288.91c0.84-0.07,1.69-0.13,2.53-0.2c1.09-6.17,2.16-12.34,3.27-18.51
		c1.4-7.8,0.76-8.57-8.09-8.75C421.87,270.61,418.49,280.18,422.83,288.91z M439.44,15.06c-0.27-0.43-0.55-0.85-0.82-1.28
		c-10.63,5.55-22.09,10.17-26.29,22.98c0.57,0.65,1.14,1.3,1.72,1.95C422.51,30.83,430.97,22.94,439.44,15.06z M556.51,38.66
		c0.63-0.67,1.26-1.34,1.89-2c-4.54-12.68-15.79-17.47-27.38-21.88C539.52,22.73,548.01,30.7,556.51,38.66z"/>
	<g>
		<linearGradient id="SVGID_3_" gradientUnits="userSpaceOnUse" x1="9.3254" y1="-498.4683" x2="1647.8422" y2="1140.0486">
			<stop  offset="0" style="stop-color:#999FAF"/>
			<stop  offset="0.1651" style="stop-color:#979DAC"/>
			<stop  offset="0.2643" style="stop-color:#9195A4"/>
			<stop  offset="0.3462" style="stop-color:#878996"/>
			<stop  offset="0.4186" style="stop-color:#787782"/>
			<stop  offset="0.4841" style="stop-color:#656068"/>
			<stop  offset="0.5" style="stop-color:#605960"/>
			<stop  offset="0.5159" style="stop-color:#656068"/>
			<stop  offset="0.5814" style="stop-color:#787782"/>
			<stop  offset="0.6538" style="stop-color:#878996"/>
			<stop  offset="0.7357" style="stop-color:#9195A4"/>
			<stop  offset="0.8349" style="stop-color:#979DAC"/>
			<stop  offset="1" style="stop-color:#999FAF"/>
		</linearGradient>
		<path class="st2" d="M774.64,143.74c-2.53-0.91-4.77-1.72-7.11-2.56c-0.05,0.45-0.13,0.84-0.13,1.23
			c0.11,11.1,0.15,22.21,0.41,33.31c0.06,2.43,1.12,4.81,1.39,7.25c0.49,4.34,0.78,8.71-1.51,12.76c-0.22,0.39-0.18,0.94-0.19,1.42
			c-0.43,16.86-0.88,33.72-1.24,50.58c-0.04,1.74,0.4,3.53,0.82,5.24c1.16,4.74,1.12,9.48,0.27,14.25
			c-0.19,1.08-0.32,2.19-0.31,3.29c0.11,10.2,0.63,20.41,0.28,30.59c-0.29,8.28-1.36,16.57-2.53,24.79
			c-1.55,10.89-8.24,18.06-17.84,22.74c-9.04,4.41-18.79,6.21-28.65,7.45c-20.21,2.54-40.41,2.42-60.59-0.39
			c-7.84-1.09-15.56-2.73-22.93-5.76c-12.56-5.16-19.73-14.13-21.44-27.92c-2.13-17.23-2.42-34.44-1.47-51.73
			c0.05-0.82,0-1.66-0.15-2.47c-1.04-5.52-1.43-10.99,0.79-16.37c0.25-0.61,0.18-1.37,0.16-2.06c-0.42-17.48-0.84-34.96-1.28-52.45
			c-0.01-0.41-0.02-0.86-0.18-1.22c-2.72-6.24-2.5-12.49-0.16-18.78c0.16-0.44,0.15-0.95,0.16-1.43c0.11-11.03,0.21-22.07,0.31-33.1
			c0-0.39-0.06-0.79-0.12-1.46c-1.54,0.72-2.88,1.38-4.25,1.98c-2.04,0.91-2.97,0.27-2.73-1.88c0.6-5.31,1.89-10.26,6.85-13.37
			c0.44-0.28,0.69-1.16,0.71-1.78c0.32-7.83,0.63-15.65-0.42-23.48c-0.53-3.96-0.32-8.04-0.24-12.06
			c0.23-12.76,0.32-25.54,0.92-38.29c0.47-10,2.19-19.94,8.51-28.07c10.7-13.75,24.3-22.55,42.41-22.73
			c5.13-0.05,10.26-0.34,15.39-0.58c0.64-0.03,1.27-0.46,1.91-0.7c6.66,0,13.32,0,19.99,0c0.54,0.23,1.07,0.62,1.63,0.66
			c3.87,0.25,7.76,0.71,11.63,0.57c16.74-0.61,29.85,6.9,41.03,18.41c6.65,6.85,10.15,15.49,11,24.88c1,11.03,1.4,22.13,1.73,33.21
			c0.25,8.25,0.44,16.55-0.22,24.76c-0.62,7.71-0.73,15.38-0.33,23.07c0.05,0.92,0.82,1.87,1.43,2.67c1.44,1.91,3.23,3.6,4.39,5.66
			c0.94,1.66,1.17,3.72,1.88,6.17 M738.61,148.54c1.75,0.04,2.84-0.89,3.31-2.75c3.52-13.98,7.01-27.96,10.58-41.93
			c0.34-1.35,0-2.17-0.96-3.06c-3.86-3.59-8.32-6.22-13.12-8.29c-10.36-4.46-21.27-6.68-32.44-7.73
			c-19.43-1.82-38.67-0.9-57.46,4.83c-7.67,2.34-14.93,5.58-20.96,11.12c-1.17,1.07-1.41,2.08-1.01,3.63
			c3.51,13.7,6.93,27.42,10.37,41.13c0.69,2.77,2.14,3.59,4.92,2.58c14.17-5.14,28.87-7.32,43.86-7.58
			c12.84-0.22,25.63,0.42,38.09,4.03c4.57,1.32,9.18,2.5,13.78,3.75C737.97,148.37,738.37,148.47,738.61,148.54z M740.89,292.19
			c-2.93,4.96-7.46,7.15-12.27,8.84c-11.66,4.09-23.81,5.19-36.04,5.38c-12.76,0.2-25.44-0.54-37.82-4.16
			c-6.4-1.87-12.69-3.77-16.63-9.83c-0.13,0.27-0.26,0.45-0.31,0.64c-1.87,7.6-3.77,15.19-5.54,22.82c-0.2,0.85,0.09,2.07,0.6,2.8
			c4.45,6.38,10.72,10.06,18.15,12c11.96,3.13,24.17,4.1,36.46,4.19c14.11,0.11,28.13-0.74,41.81-4.61
			c6.68-1.89,12.2-5.5,16.45-11.04c0.95-1.24,1.32-2.35,0.85-3.97c-1.27-4.39-2.31-8.85-3.41-13.28
			C742.42,298.84,741.71,295.68,740.89,292.19z M623.26,126c-0.05,0.17-0.12,0.3-0.12,0.44c0.07,22.27,0.14,44.54,0.28,66.81
			c0,0.65,0.74,1.6,1.37,1.9c3.94,1.87,7.95,3.6,11.95,5.35c0.33,0.15,0.73,0.14,1.18,0.23c0-0.57,0.01-0.99,0-1.4
			c-0.57-23.53-3.56-46.71-9.91-69.42C627.27,127.26,626.07,126,623.26,126z M755.84,125.88c-3.94,0.77-3.92,0.77-4.85,4.04
			c-5.56,19.57-8.62,39.53-9.6,59.83c-0.17,3.63-0.02,7.27-0.02,11.11c3.93-1.74,7.85-3.6,11.88-5.2c1.84-0.73,2.39-1.75,2.39-3.68
			c0.01-18.39,0.12-36.77,0.19-55.16C755.86,133.22,755.84,129.62,755.84,125.88z M755.53,209.68c-4.81,0.7-9.26,1.3-13.68,2.05
			c-0.41,0.07-0.95,1.08-0.94,1.64c0.38,13.72,0.79,27.43,1.31,41.15c0.09,2.39,0.02,5.23,1.23,7.05c2.65,3.99,6.08,7.47,9.2,11.16
			c0.22-0.04,0.44-0.09,0.65-0.13C754.05,251.65,754.79,230.69,755.53,209.68z M623.41,209.58c0.74,21.03,1.48,42.02,2.21,63
			c0.22,0.04,0.44,0.08,0.65,0.12c2.5-2.93,4.91-5.95,7.54-8.77c1.66-1.78,2.46-3.74,2.56-6.12c0.54-13.85,1.11-27.69,1.66-41.54
			c0.06-1.44,0.01-2.88,0.01-4.26C633.16,211.21,628.48,210.43,623.41,209.58z M654.9,346.85c0.03-0.18,0.06-0.37,0.09-0.55
			c-13.84-4-25.5-10.72-31.04-25.12c-2.3,2.49-2.91,5.24-3.42,8.06c-0.42,2.34,0.59,4.1,2.26,5.45
			c7.61,6.17,16.16,10.44,25.86,12.11C650.68,347.15,652.82,346.85,654.9,346.85z M723.99,346.31c0.02,0.18,0.05,0.36,0.07,0.54
			c2.15,0,4.35,0.32,6.43-0.05c9.55-1.7,17.99-5.9,25.54-11.93c0.48-0.38,0.9-0.87,1.23-1.38c2.12-3.24,1.09-8.91-2.27-12.13
			C749.47,335.65,737.8,342.31,723.99,346.31z M622.42,33.38c8.46-11.83,19.81-19.67,32.7-25.54c-0.47-0.23-0.82-0.3-1.13-0.22
			c-12.73,3.21-23.75,9.1-31.77,19.9C620.77,29.46,620.65,31.05,622.42,33.38z M723.91,7.61c-0.07,0.16-0.14,0.32-0.2,0.47
			c13.06,5.58,24.3,13.53,32.74,25.13c1.92-2.41,1.92-3.33,0.47-5.35c-7.94-11.01-19.05-17-31.91-20.24
			C724.66,7.54,724.28,7.61,723.91,7.61z M627.01,290.84c0.2,0.04,0.4,0.08,0.6,0.12c2.3-7.21,4.6-14.43,6.89-21.64
			c-0.19-0.1-0.38-0.19-0.56-0.29c-2.48,2.95-4.96,5.88-7.42,8.85c-0.19,0.23-0.25,0.65-0.23,0.98
			C626.52,282.85,626.77,286.84,627.01,290.84z M751.32,290.96c0.2-0.05,0.4-0.11,0.59-0.16c0.25-3.99,0.51-7.98,0.74-11.98
			c0.02-0.32-0.06-0.73-0.25-0.96c-2.48-2.97-4.98-5.92-7.48-8.87c-0.17,0.1-0.35,0.19-0.52,0.29
			C746.71,276.51,749.02,283.74,751.32,290.96z M689.64,9.75c0.22-0.17,0.44-0.33,0.67-0.5c0-2.34,0-4.67,0-7.01
			c-0.19-0.14-0.38-0.27-0.57-0.41c-0.41,0.49-1.13,0.95-1.18,1.48c-0.16,1.58-0.16,3.19,0,4.78C688.61,8.67,689.26,9.2,689.64,9.75
			z M697.11,1.84c-0.24,0.19-0.48,0.37-0.72,0.56c0,1.93-0.06,3.86,0.04,5.79c0.02,0.43,0.58,0.84,0.88,1.26
			c0.32-0.43,0.88-0.84,0.91-1.29c0.11-1.58,0.14-3.19-0.01-4.76C698.16,2.85,697.49,2.36,697.11,1.84z M682.47,2.4
			c-0.22-0.18-0.45-0.35-0.67-0.53c-0.38,0.54-1.02,1.05-1.08,1.62c-0.15,1.51-0.03,3.05-0.06,4.57c-0.03,1.52,0.72,1.52,1.81,1.07
			C682.47,6.82,682.47,4.61,682.47,2.4z M704.25,8.92c0.22,0.16,0.44,0.33,0.66,0.49c0.4-0.42,1.1-0.82,1.14-1.27
			c0.14-1.58,0.11-3.18,0.01-4.77c-0.02-0.38-0.58-0.72-0.89-1.07c-0.31,0.35-0.86,0.68-0.87,1.04
			C704.2,5.2,704.25,7.06,704.25,8.92z M670.75,2.73c-0.22-0.14-0.43-0.28-0.65-0.42c-0.41,0.48-1.11,0.93-1.19,1.46
			c-0.18,1.28-0.14,2.6-0.02,3.89c0.04,0.43,0.6,0.81,0.93,1.21c0.31-0.35,0.86-0.68,0.88-1.05C670.81,6.13,670.75,4.43,670.75,2.73
			z M693.2,1.8c-0.23,0.16-0.46,0.33-0.69,0.49c0,2.05-0.04,4.1,0.04,6.14c0.01,0.37,0.54,0.71,0.82,1.07
			c0.3-0.34,0.85-0.68,0.87-1.03c0.09-1.78,0.12-3.57-0.01-5.35C694.21,2.65,693.57,2.23,693.2,1.8z M685.16,1.88
			c-0.18,0.13-0.37,0.27-0.55,0.4c0,2-0.05,4,0.04,5.99c0.02,0.42,0.6,0.81,0.93,1.21c0.28-0.38,0.79-0.74,0.81-1.13
			c0.09-1.73,0.13-3.47-0.02-5.19C686.34,2.7,685.59,2.3,685.16,1.88z M676.74,8.97c0.2,0.16,0.41,0.33,0.61,0.49
			c0.41-0.4,1.15-0.78,1.18-1.2c0.13-1.96,0.06-3.94,0.06-5.91c-0.23-0.11-0.46-0.23-0.69-0.34c-0.39,0.47-1.07,0.92-1.1,1.41
			C676.66,5.26,676.74,7.12,676.74,8.97z M701.21,2.07c-0.23,0.1-0.47,0.2-0.7,0.3c0,2.25,0,4.51,0,6.76
			c0.22,0.11,0.44,0.22,0.66,0.33c0.34-0.54,1.02-1.14,0.95-1.63C701.83,5.92,703.18,3.55,701.21,2.07z M712.19,2.66
			c0,2.07,0,3.98,0,5.99c0.62,0,1.13,0,1.62,0C714.55,4.01,714.26,2.85,712.19,2.66z M708.31,9c1.7-0.25,2.33-2.53,1.66-5.62
			c-0.1-0.45-0.9-0.76-1.66-1.36C708.31,4.74,708.31,6.77,708.31,9z M662.76,8.31c0-1.86,0-3.56,0-5.26
			c-0.2-0.13-0.4-0.25-0.61-0.38c-0.39,0.52-1.08,1.01-1.13,1.56C660.68,7.83,660.83,8.1,662.76,8.31z M674.65,2.6
			c-0.18-0.13-0.35-0.25-0.53-0.38c-0.42,0.38-1.18,0.74-1.21,1.15c-0.14,1.58-0.12,3.18-0.01,4.76c0.02,0.35,0.63,0.66,0.97,0.98
			c0.26-0.32,0.73-0.64,0.75-0.97C674.69,6.3,674.65,4.45,674.65,2.6z M716.05,8.45c1.86-0.32,2.39-1.71,1.81-4.62
			c-0.09-0.46-0.89-0.78-1.36-1.17c-0.15,0.15-0.3,0.3-0.45,0.45C716.05,4.83,716.05,6.54,716.05,8.45z M666.77,8.76
			c0-1.92,0.03-3.49-0.02-5.05c-0.01-0.33-0.26-0.83-0.52-0.93c-0.3-0.11-1.06,0.14-1.06,0.25c-0.03,1.82,0,3.65,0.11,5.47
			C665.28,8.6,666.08,8.65,666.77,8.76z"/>
	</g>
	<g>
		<linearGradient id="SVGID_4_" gradientUnits="userSpaceOnUse" x1="-296.0797" y1="-193.0632" x2="1342.4371" y2="1445.4536">
			<stop  offset="0" style="stop-color:#999FAF"/>
			<stop  offset="0.1651" style="stop-color:#979DAC"/>
			<stop  offset="0.2643" style="stop-color:#9195A4"/>
			<stop  offset="0.3462" style="stop-color:#878996"/>
			<stop  offset="0.4186" style="stop-color:#787782"/>
			<stop  offset="0.4841" style="stop-color:#656068"/>
			<stop  offset="0.5" style="stop-color:#605960"/>
			<stop  offset="0.5159" style="stop-color:#656068"/>
			<stop  offset="0.5814" style="stop-color:#787782"/>
			<stop  offset="0.6538" style="stop-color:#878996"/>
			<stop  offset="0.7357" style="stop-color:#9195A4"/>
			<stop  offset="0.8349" style="stop-color:#979DAC"/>
			<stop  offset="1" style="stop-color:#999FAF"/>
		</linearGradient>
		<path class="st3" d="M6.46,190.17c-2.49-0.32-4.47-0.58-6.46-0.83c1.12-1.8,1.9-3.98,3.43-5.29c2.07-1.76,2.74-3.57,2.67-6.21
			c-0.91-34.1-1.82-68.2-2.47-102.31C3.47,66.77,2.88,57.67,4.9,49.3c2.2-9.09,6.92-17.64,11.18-26.1c1.14-2.27,4.4-3.93,7.05-4.92
			c12.01-4.5,24.14-8.64,36.22-12.95c3.94-1.41,7.76-3.26,11.8-4.26c3.19-0.79,6.93-1.57,9.9-0.66c12.39,3.77,24.68,7.91,36.82,12.4
			c21.85,8.1,20.43,7.58,29.22,28.28c4.67,10.99,3.6,22.79,3.4,34.3c-0.58,33.98-1.53,67.95-2.46,101.92
			c-0.08,3.09,0.5,5.44,3.23,7.05c0.65,0.38,1.36,0.88,1.7,1.51c0.56,1.03,0.83,2.22,1.23,3.34c-1.13,0.29-2.24,0.74-3.38,0.83
			c-0.83,0.06-1.69-0.36-3.13-0.72c0,1.78-0.02,3.35,0,4.93c0.42,31.06,1.05,62.11,1.17,93.17c0.06,14.87-3.39,29.24-8.28,43.27
			c-2.88,8.26-8.32,13.94-16.14,17.87c-12.23,6.16-25.33,8.36-38.72,9.07c-16.99,0.91-33.73-0.42-49.97-6.34
			c-12.93-4.71-20.77-13.35-24.35-26.57C6.96,308.39,4.62,291.89,5,274.95c0.6-26.73,0.99-53.46,1.46-80.18
			C6.48,193.12,6.46,191.48,6.46,190.17z M137.2,157.32c-0.28-8.15-3.13-13.93-8.8-18.43c-8.22-6.52-18.04-8.55-27.98-10.26
			c-1.22-0.21-2.61,0.69-3.94,1.02c-1.5,0.38-3.02,1.01-4.54,1.01c-8.76,0-17.52-0.21-26.28-0.22c-3.21,0-6.52,1.29-9.35-1.45
			c-0.52-0.5-1.74-0.57-2.56-0.42c-9.52,1.78-18.98,3.6-27.06,9.6c-8.15,6.05-11.36,14.68-8.73,24.49
			c3.23,12.03,6.44,24.07,9.65,36.11c1.25,4.68,2.17,5.33,6.69,4.03c28.49-8.23,56.96-8.22,85.46-0.02c4.59,1.32,5.49,0.7,6.73-3.95
			c3.18-11.91,6.38-23.82,9.52-35.75C136.6,160.88,136.94,158.61,137.2,157.32z M77.16,271.77c-5.22,0-10.44-0.14-15.65,0.03
			c-9.31,0.29-18.02,3.04-26.33,7.09c-6.8,3.32-10.04,9.47-12.42,16.21c-0.27,0.77-0.23,1.8,0.04,2.58
			c3.06,8.66,7.78,15.98,16.42,20.12c8.75,4.19,17.99,6.13,27.65,6.54c13.77,0.58,27.47,0.68,40.84-3.55
			c10.41-3.3,18.07-9.5,22.45-19.71c1.48-3.45,1.46-6.36-0.14-9.77c-3.19-6.8-8.04-11.42-15.01-14.36
			C102.82,271.8,90.04,271.34,77.16,271.77z M16.03,183.63c0,1.12-0.06,2.24,0.01,3.35c1.2,19.16,2.43,38.31,3.62,57.47
			c0.27,4.3,3.27,5.87,7.23,7.52C27.25,228.32,25.48,205.51,16.03,183.63z M137.2,184.59c-8.5,20.92-10.35,43.74-9.93,67.14
			c5.56-1.89,6.92-3.56,7.29-8.48c0.88-11.41,2-22.8,2.55-34.22C137.53,200.62,137.2,192.18,137.2,184.59z M126.42,32.45
			c2.08,2.56,3.72,5.46,6.16,7.28c1.74,1.3,4.98,2.12,6.75,1.33c1.36-0.61,2.5-4.39,1.9-6.14c-1.25-3.7-3.33-7.3-5.77-10.38
			c-2.17-2.73-5.42-3.75-8.7-1.07c-0.89-1.17-1.56-2.26-2.45-3.13c-0.89-0.88-1.91-1.71-3.02-2.26c-3.42-1.67-6.07-0.09-6.42,3.71
			C114.25,28.59,120.53,34.14,126.42,32.45z M28.07,22.21c-3.11,0.37-5.78-0.02-7.62,1.04c-4.78,2.73-7.51,7.25-7.77,12.78
			c-0.08,1.76,0.86,4.52,2.14,5.13c1.53,0.73,4.45,0.32,5.84-0.77c2.7-2.14,4.76-5.1,7.24-7.9c5.83,1.75,12.29-4.21,11.3-11.09
			c-0.49-3.4-3.01-5.04-6-3.39C30.96,19.24,29.17,21.28,28.07,22.21z M120.7,345.88c9.24,1.9,19.78-12.95,20.14-22.15
			c-2.76,3.88-5.29,8.23-8.58,11.88C128.99,339.23,124.95,342.16,120.7,345.88z M13.4,323.78c1.65,12.07,12.18,24.24,20.17,21.8
			C25.11,339.51,18.1,332.71,13.4,323.78z M22.25,259.46c0.51,3.67,0.93,6.74,1.41,10.2C26.82,264.69,26.54,261.98,22.25,259.46z
			 M130.5,269.85c0.51-3.8,0.91-6.84,1.37-10.26C127.61,261.88,127.31,264.29,130.5,269.85z"/>
	</g>
	<g>
		<linearGradient id="SVGID_5_" gradientUnits="userSpaceOnUse" x1="109.656" y1="-598.7988" x2="1748.1729" y2="1039.7179">
			<stop  offset="0" style="stop-color:#999FAF"/>
			<stop  offset="0.1651" style="stop-color:#979DAC"/>
			<stop  offset="0.2643" style="stop-color:#9195A4"/>
			<stop  offset="0.3462" style="stop-color:#878996"/>
			<stop  offset="0.4186" style="stop-color:#787782"/>
			<stop  offset="0.4841" style="stop-color:#656068"/>
			<stop  offset="0.5" style="stop-color:#605960"/>
			<stop  offset="0.5159" style="stop-color:#656068"/>
			<stop  offset="0.5814" style="stop-color:#787782"/>
			<stop  offset="0.6538" style="stop-color:#878996"/>
			<stop  offset="0.7357" style="stop-color:#9195A4"/>
			<stop  offset="0.8349" style="stop-color:#979DAC"/>
			<stop  offset="1" style="stop-color:#999FAF"/>
		</linearGradient>
		<path class="st4" d="M981.03,140.8c-4.31-1.73-8.72-3.5-13.61-5.46c0,1.8,0.01,3.03,0,4.27c-0.54,41.87-1.15,83.74-1.58,125.61
			c-0.11,11.32,0.53,22.65,0.47,33.97c-0.04,7.98-0.62,15.79-4.21,23.41c-2.11,4.49-1.29,10.28-2.42,15.34
			c-0.59,2.65-2.02,5.57-3.98,7.36c-6.5,5.91-14.58,8.64-23.14,9.99c-27.89,4.4-55.74,4.58-83.5-1.06c-7-1.42-13.32-4.44-18.56-9.26
			c-1.72-1.58-3.03-4.09-3.53-6.4c-0.95-4.33-1.18-8.82-1.71-13.24c-0.09-0.76,0.02-1.63-0.32-2.25
			c-6.35-11.34-4.45-23.75-4.67-35.86c-0.38-21.5-0.74-43-0.88-64.49c-0.19-27.37-0.16-54.73-0.22-82.1c0-1.52,0-3.04,0-5.35
			c-3.6,1.5-6.75,2.95-10.01,4.09c-1.37,0.48-2.97,0.3-4.46,0.43c0.16-1.9-0.41-4.48,0.61-5.58c3.41-3.7,7.24-7.06,11.23-10.15
			c1.78-1.37,2.83-2.5,2.78-4.84c-0.27-12.06-0.6-24.13-0.54-36.2c0.06-11.32,0.58-22.64,0.95-33.95c0.04-1.12,0.16-2.37,0.67-3.33
			c4.04-7.49,7.99-15.03,12.34-22.34c3.96-6.64,10.2-10.86,16.84-14.57c3.74-2.09,7.28-4.52,10.99-6.67
			c0.93-0.54,2.15-0.8,3.24-0.82c5.22-0.08,10.44,0.11,15.65-0.09c3.76-0.14,7.49-0.78,11.24-1.12c1.51-0.14,3.05-0.18,4.57-0.1
			c8.71,0.41,17.43,0.73,26.11,1.41c2.18,0.17,4.32,1.44,6.39,2.4c1.6,0.74,2.97,1.97,4.58,2.66c12.79,5.43,21.87,14.55,27.56,27.2
			c1.66,3.7,4.03,7.09,5.58,10.82c1.04,2.51,1.69,5.39,1.69,8.1c-0.02,14.49-0.43,28.97-0.46,43.46c-0.02,8.27,0.35,16.54,0.78,24.8
			c0.05,1.03,1.48,2.08,2.44,2.94c3.67,3.29,7.56,6.36,11.07,9.81C982.94,135.52,983.45,138.05,981.03,140.8z M893.25,89.63
			c-16.23,0.94-32.98,0.85-48.7,7.75c-7.64,3.35-10.35,6.84-9.18,14.95c1.7,11.82,3.75,23.6,5.86,35.36
			c0.94,5.24,3.52,6.66,8.77,5.62c6.36-1.27,12.7-3.4,19.09-3.58c22.72-0.64,45.56-2.53,67.97,3.6c4.65,1.28,7.4-0.55,8.26-5.33
			c2.12-11.89,4.2-23.79,5.92-35.74c1.14-7.94-1.56-11.55-8.89-14.78C926.75,90.61,910.15,90.54,893.25,89.63z M893.47,176.36
			c0,0.04-0.01,0.07-0.01,0.11c-9.91,0-19.83-0.24-29.73,0.08c-6.44,0.21-8.84,3.12-8.87,9.43c-0.04,7.38-0.05,14.75,0,22.13
			c0.04,5.73,2.41,8.82,8.14,8.89c20.2,0.24,40.41,0.24,60.62,0c5.71-0.07,8.06-3.17,8.1-8.93c0.05-6.99,0.02-13.99,0.01-20.98
			c-0.01-7.79-2.18-10.39-10.06-10.65C912.29,176.12,902.87,176.36,893.47,176.36z M852.82,326.77c-1.08,3.27-2.37,6.57-3.22,9.98
			c-0.91,3.69,0.28,7.06,3.58,8.9c3.16,1.76,6.65,3.45,10.17,3.93c18.99,2.6,38.07,2.12,57.09,0.47c4.38-0.38,8.74-2.43,12.82-4.32
			c3.11-1.44,4.51-4.68,3.83-8.06c-0.75-3.74-2.19-7.35-3.43-11.36c-6.29,4.7-12.23,8.84-19.57,9.46
			c-9.11,0.77-18.26,1.33-27.4,1.35c-12.02,0.03-23.58-2.04-33.14-10.25C853.48,326.81,853.31,326.84,852.82,326.77z M837.48,228.47
			c0.45-0.27,0.91-0.55,1.36-0.82c0-1.58,0.03-3.16,0-4.73c-0.55-24.83-3.17-49.48-6.76-74.03c-0.7-4.78-1.28-9.59-2.25-14.31
			c-0.45-2.23-0.63-5.29-4.46-4.89c-0.12,0.64-0.3,1.13-0.28,1.62c0.82,29.36,1.65,58.73,2.55,88.09c0.03,1.02,0.56,2.36,1.32,2.97
			C831.7,224.52,834.63,226.45,837.48,228.47z M948.03,228.11c8.39-2.83,10.9-5.59,11.14-13.06c0.89-27.32,1.59-54.65,2.34-81.98
			c0.03-1.11-0.12-2.22-0.18-3.34c-3.23,0.31-4.05,1.19-4.71,5.33c-4.69,29.53-8.31,59.18-8.92,89.12
			C947.68,225.37,947.9,226.56,948.03,228.11z M828.38,232.74c3.29,27.24,6.5,53.86,9.71,80.49c0.41-0.02,0.83-0.04,1.24-0.06
			c3.29-5.09,4.75-10.47,4.14-16.77c-1.69-17.35-2.9-34.75-4.38-52.13C838.2,233.89,840.24,236.35,828.38,232.74z M947.17,313.25
			c0.45-0.02,0.9-0.05,1.34-0.07c3.21-26.65,6.42-53.3,9.72-80.71c-3.04,1.01-5.03,1.84-7.1,2.32c-2.21,0.51-3.06,1.66-3.23,3.92
			c-1.6,20.56-3.32,41.11-4.96,61.66C942.55,305.29,945.15,309.18,947.17,313.25z M858.33,319.98c-0.16,0.53-0.33,1.05-0.49,1.58
			c2.18,1.18,4.24,2.98,6.56,3.43c19.3,3.72,38.66,3.77,57.96-0.05c2.27-0.45,4.28-2.26,6.41-3.44c-0.13-0.54-0.25-1.07-0.38-1.61
			C905.01,327.38,881.66,327.27,858.33,319.98z M851.77,11.54c-12.62,5.52-25.32,20.73-25.35,29.1c3.32-5.25,6.23-11.28,10.48-16.17
			C841.17,19.57,846.76,15.81,851.77,11.54z M959.95,41.32c-0.25-9.88-15.56-27.83-25.98-30.08
			C945.41,19.63,955.47,28.09,959.95,41.32z"/>
	</g>
</g>
</svg>
