<?xml version="1.0" encoding="utf-8"?>
<!-- Generator: Adobe Illustrator 25.0.0, SVG Export Plug-In . SVG Version: 6.00 Build 0)  -->
<svg version="1.1" id="Layer_1" xmlns="http://www.w3.org/2000/svg" xmlns:xlink="http://www.w3.org/1999/xlink" x="0px" y="0px"
	 viewBox="0 0 1000 1000" style="enable-background:new 0 0 1000 1000;" xml:space="preserve">
<style type="text/css">
	.st0{fill:#FFFFFF;}
	.st1{fill:url(#SVGID_1_);}
	.st2{fill:url(#SVGID_2_);}
	.st3{fill:url(#SVGID_3_);}
	.st4{fill:url(#SVGID_4_);}
	.st5{fill:url(#SVGID_5_);}
	.st6{fill:url(#SVGID_6_);}
	.st7{fill:url(#SVGID_7_);}
	.st8{fill:url(#SVGID_8_);}
	.st9{fill:url(#SVGID_9_);}
	.st10{fill:url(#SVGID_10_);}
	.st11{fill:url(#SVGID_11_);}
	.st12{fill:url(#SVGID_12_);}
	.st13{fill:url(#SVGID_13_);}
	.st14{fill:url(#SVGID_14_);}
	.st15{fill:url(#SVGID_15_);}
	.st16{fill:url(#SVGID_16_);}
	.st17{fill:url(#SVGID_17_);}
	.st18{fill:url(#SVGID_18_);}
	.st19{fill:#DFEDED;}
	.st20{fill:#102333;}
	.st21{fill:#819DA5;}
	.st22{fill:#C8D6D6;}
	.st23{fill:#1F3242;}
	.st24{fill:#2B4454;}
	.st25{fill:url(#SVGID_19_);}
	.st26{fill:none;}
</style>
<circle class="st0" cx="500" cy="500" r="500"/>
<g>
	<g>
		
			<linearGradient id="SVGID_1_" gradientUnits="userSpaceOnUse" x1="499.9889" y1="540.725" x2="500" y2="540.725" gradientTransform="matrix(1 0 0 -1 0 1000)">
			<stop  offset="0" style="stop-color:#999FAF"/>
			<stop  offset="0.1651" style="stop-color:#979DAC"/>
			<stop  offset="0.2643" style="stop-color:#9195A4"/>
			<stop  offset="0.3462" style="stop-color:#878996"/>
			<stop  offset="0.4186" style="stop-color:#787782"/>
			<stop  offset="0.4841" style="stop-color:#656068"/>
			<stop  offset="0.5" style="stop-color:#605960"/>
			<stop  offset="0.5159" style="stop-color:#656068"/>
			<stop  offset="0.5814" style="stop-color:#787782"/>
			<stop  offset="0.6538" style="stop-color:#878996"/>
			<stop  offset="0.7357" style="stop-color:#9195A4"/>
			<stop  offset="0.8349" style="stop-color:#979DAC"/>
			<stop  offset="1" style="stop-color:#999FAF"/>
		</linearGradient>
		<polygon class="st1" points="500,459.26 500,459.29 499.99,459.29 		"/>
		
			<linearGradient id="SVGID_2_" gradientUnits="userSpaceOnUse" x1="500" y1="540.725" x2="500.0111" y2="540.725" gradientTransform="matrix(1 0 0 -1 0 1000)">
			<stop  offset="0" style="stop-color:#999FAF"/>
			<stop  offset="0.1651" style="stop-color:#979DAC"/>
			<stop  offset="0.2643" style="stop-color:#9195A4"/>
			<stop  offset="0.3462" style="stop-color:#878996"/>
			<stop  offset="0.4186" style="stop-color:#787782"/>
			<stop  offset="0.4841" style="stop-color:#656068"/>
			<stop  offset="0.5" style="stop-color:#605960"/>
			<stop  offset="0.5159" style="stop-color:#656068"/>
			<stop  offset="0.5814" style="stop-color:#787782"/>
			<stop  offset="0.6538" style="stop-color:#878996"/>
			<stop  offset="0.7357" style="stop-color:#9195A4"/>
			<stop  offset="0.8349" style="stop-color:#979DAC"/>
			<stop  offset="1" style="stop-color:#999FAF"/>
		</linearGradient>
		<polygon class="st2" points="500,459.26 500.01,459.29 500,459.29 		"/>
	</g>
	<g>
		
			<linearGradient id="SVGID_3_" gradientUnits="userSpaceOnUse" x1="-15.4922" y1="1101.1621" x2="1084.6256" y2="1.0444" gradientTransform="matrix(1 0 0 -1 0 1000)">
			<stop  offset="0" style="stop-color:#999FAF"/>
			<stop  offset="0.1651" style="stop-color:#979DAC"/>
			<stop  offset="0.2643" style="stop-color:#9195A4"/>
			<stop  offset="0.3462" style="stop-color:#878996"/>
			<stop  offset="0.4186" style="stop-color:#787782"/>
			<stop  offset="0.4841" style="stop-color:#656068"/>
			<stop  offset="0.5" style="stop-color:#605960"/>
			<stop  offset="0.5159" style="stop-color:#656068"/>
			<stop  offset="0.5814" style="stop-color:#787782"/>
			<stop  offset="0.6538" style="stop-color:#878996"/>
			<stop  offset="0.7357" style="stop-color:#9195A4"/>
			<stop  offset="0.8349" style="stop-color:#979DAC"/>
			<stop  offset="1" style="stop-color:#999FAF"/>
		</linearGradient>
		<path class="st3" d="M678.21,515.86C627,509.59,615.25,552.34,559,564.8c0,0-70.15,1.83-58.7,23.51
			c2.98,5.64,11.86,10.11,19.06,11.53c-15.27,2.07-26.47,4.27-26.47,4.27c-81.68-44.03-99.16-21.56-99.16-21.56l101.9,46.83
			c0,0,132.84-4.39,135.48-4.56s43.41-59.64,43.41-59.64l261.75,94.63l18.25-65.45C954.51,594.36,693.65,517.76,678.21,515.86z"/>
		
			<linearGradient id="SVGID_4_" gradientUnits="userSpaceOnUse" x1="-19.8141" y1="1091.5071" x2="1074.8533" y2="-3.1604" gradientTransform="matrix(1 0 0 -1 0 1000)">
			<stop  offset="0" style="stop-color:#999FAF"/>
			<stop  offset="0.1651" style="stop-color:#979DAC"/>
			<stop  offset="0.2643" style="stop-color:#9195A4"/>
			<stop  offset="0.3462" style="stop-color:#878996"/>
			<stop  offset="0.4186" style="stop-color:#787782"/>
			<stop  offset="0.4841" style="stop-color:#656068"/>
			<stop  offset="0.5" style="stop-color:#605960"/>
			<stop  offset="0.5159" style="stop-color:#656068"/>
			<stop  offset="0.5814" style="stop-color:#787782"/>
			<stop  offset="0.6538" style="stop-color:#878996"/>
			<stop  offset="0.7357" style="stop-color:#9195A4"/>
			<stop  offset="0.8349" style="stop-color:#979DAC"/>
			<stop  offset="1" style="stop-color:#999FAF"/>
		</linearGradient>
		<path class="st4" d="M970.58,669.37v0.01c-0.93,2.6-1.89,5.19-2.87,7.77l-34.2,7.33L896,692.52l-129.92-70.59l-12.02-6.54l-7-3.8
			l-26.45-14.37c0,0-109.33,73.6-124.73,83.81c-19.87,13.18-82.76-29.06-123.48-35.96c-13.9-2.36-75.72-39.53-95.23-51.41
			c-4.02-2.44-4.35-8.26-0.51-10.98c5.18-3.68,14.17-6.58,27.38-5.02c16.86,1.99,40.59,11.24,72.03,35.4c0,0,44.51-6.86,85.32,12.93
			c0,0,106.05-102.1,134.25-103.69c2.88-0.16,7.87,0.46,14.51,1.71c0.02,0,0.05,0.01,0.07,0.01c14.5,2.74,36.86,8.44,62.28,15.48
			c6.55,1.81,13.31,3.72,20.19,5.69c0.14,0.03,0.29,0.08,0.44,0.12c2.49,0.71,4.99,1.43,7.51,2.15
			c69.62,20.08,148.22,45.1,153.58,46.81c0.07,0.02,0.13,0.04,0.18,0.06c0.03,0.01,0.05,0.01,0.06,0.02c0.03,0,0.05,0.01,0.05,0.01
			l3.48,16.22v0.02l12.39,57.83L970.58,669.37z"/>
		<g>
			
				<linearGradient id="SVGID_5_" gradientUnits="userSpaceOnUse" x1="115.6216" y1="1110.3434" x2="1121.7253" y2="104.2397" gradientTransform="matrix(1 0 0 -1 0 1000)">
				<stop  offset="0" style="stop-color:#999FAF"/>
				<stop  offset="0.1651" style="stop-color:#979DAC"/>
				<stop  offset="0.2643" style="stop-color:#9195A4"/>
				<stop  offset="0.3462" style="stop-color:#878996"/>
				<stop  offset="0.4186" style="stop-color:#787782"/>
				<stop  offset="0.4841" style="stop-color:#656068"/>
				<stop  offset="0.5" style="stop-color:#605960"/>
				<stop  offset="0.5159" style="stop-color:#656068"/>
				<stop  offset="0.5814" style="stop-color:#787782"/>
				<stop  offset="0.6538" style="stop-color:#878996"/>
				<stop  offset="0.7357" style="stop-color:#9195A4"/>
				<stop  offset="0.8349" style="stop-color:#979DAC"/>
				<stop  offset="1" style="stop-color:#999FAF"/>
			</linearGradient>
			<path class="st5" d="M983.42,628.18c-3.64,13.76-7.85,27.29-12.6,40.56c-0.08,0.21-0.16,0.42-0.24,0.63v0.01
				c-0.93,2.6-1.89,5.19-2.87,7.77c-2.63,6.95-5.42,13.82-8.35,20.61l-35.1,7.09l-35.15,7.11l-138.08-47.38l-20.22-6.94l16.25-46.05
				l6.32-17.9l18.46-52.32l0.66-1.87l0.99-2.8l20.54,6.05l167.98,49.46l12.7,3.74L983.42,628.18z"/>
			
				<linearGradient id="SVGID_6_" gradientUnits="userSpaceOnUse" x1="102.2771" y1="1085.348" x2="1101.2844" y2="86.3406" gradientTransform="matrix(1 0 0 -1 0 1000)">
				<stop  offset="0" style="stop-color:#999FAF"/>
				<stop  offset="0.1651" style="stop-color:#979DAC"/>
				<stop  offset="0.2643" style="stop-color:#9195A4"/>
				<stop  offset="0.3462" style="stop-color:#878996"/>
				<stop  offset="0.4186" style="stop-color:#787782"/>
				<stop  offset="0.4841" style="stop-color:#656068"/>
				<stop  offset="0.5" style="stop-color:#605960"/>
				<stop  offset="0.5159" style="stop-color:#656068"/>
				<stop  offset="0.5814" style="stop-color:#787782"/>
				<stop  offset="0.6538" style="stop-color:#878996"/>
				<stop  offset="0.7357" style="stop-color:#9195A4"/>
				<stop  offset="0.8349" style="stop-color:#979DAC"/>
				<stop  offset="1" style="stop-color:#999FAF"/>
			</linearGradient>
			<path class="st6" d="M970.82,668.74c-0.08,0.21-0.16,0.42-0.24,0.63v0.01c-0.93,2.6-1.89,5.19-2.87,7.77
				c-2.63,6.95-5.42,13.82-8.35,20.61l-35.1,7.09l-35.15,7.11l-138.08-47.38l-20.22-6.94l23.25-42.25l9.84-17.89l27.77-50.46
				l1.02-1.85l1.34-2.44l6.61,4.71l5.08,3.62h0.01l0.01,0.01l134.17,95.63l6.31,4.49l24.16,17.22L970.82,668.74z"/>
			
				<linearGradient id="SVGID_7_" gradientUnits="userSpaceOnUse" x1="211.7358" y1="1020.7692" x2="1078.4598" y2="154.0453" gradientTransform="matrix(1 0 0 -1 0 1000)">
				<stop  offset="0" style="stop-color:#999FAF"/>
				<stop  offset="0.1651" style="stop-color:#979DAC"/>
				<stop  offset="0.2643" style="stop-color:#9195A4"/>
				<stop  offset="0.3462" style="stop-color:#878996"/>
				<stop  offset="0.4186" style="stop-color:#787782"/>
				<stop  offset="0.4841" style="stop-color:#656068"/>
				<stop  offset="0.5" style="stop-color:#605960"/>
				<stop  offset="0.5159" style="stop-color:#656068"/>
				<stop  offset="0.5814" style="stop-color:#787782"/>
				<stop  offset="0.6538" style="stop-color:#878996"/>
				<stop  offset="0.7357" style="stop-color:#9195A4"/>
				<stop  offset="0.8349" style="stop-color:#979DAC"/>
				<stop  offset="1" style="stop-color:#999FAF"/>
			</linearGradient>
			<path class="st7" d="M990.03,599.82c-1.93,9.55-4.14,19.01-6.61,28.36c-3.64,13.76-7.85,27.29-12.6,40.56
				c-0.08,0.21-0.16,0.42-0.24,0.63v0.01c-0.93,2.6-1.89,5.19-2.87,7.77c-2.63,6.95-5.42,13.82-8.35,20.61
				c-7.68,17.84-16.38,35.15-26.02,51.84l-27.04-11.15l-158.31-65.26l3.04-8.61l15.05-42.65l7.4-20.97l18.96-53.7l0.69-1.95
				l0.9-2.56l1.88-5.32l166.36,53.46L990.03,599.82z"/>
			
				<linearGradient id="SVGID_8_" gradientUnits="userSpaceOnUse" x1="1.2414" y1="1117.8958" x2="1101.3593" y2="17.778" gradientTransform="matrix(1 0 0 -1 0 1000)">
				<stop  offset="0" style="stop-color:#999FAF"/>
				<stop  offset="0.1651" style="stop-color:#979DAC"/>
				<stop  offset="0.2643" style="stop-color:#9195A4"/>
				<stop  offset="0.3462" style="stop-color:#878996"/>
				<stop  offset="0.4186" style="stop-color:#787782"/>
				<stop  offset="0.4841" style="stop-color:#656068"/>
				<stop  offset="0.5" style="stop-color:#605960"/>
				<stop  offset="0.5159" style="stop-color:#656068"/>
				<stop  offset="0.5814" style="stop-color:#787782"/>
				<stop  offset="0.6538" style="stop-color:#878996"/>
				<stop  offset="0.7357" style="stop-color:#9195A4"/>
				<stop  offset="0.8349" style="stop-color:#979DAC"/>
				<stop  offset="1" style="stop-color:#999FAF"/>
			</linearGradient>
			<path class="st8" d="M789.58,659.35c0.74,5.08-2.81,10.01-7.93,11.02s-9.86-2.28-10.6-7.36c-0.74-5.08,2.81-10.01,7.93-11.02
				C784.1,650.98,788.85,654.27,789.58,659.35z"/>
			
				<linearGradient id="SVGID_9_" gradientUnits="userSpaceOnUse" x1="10.1785" y1="1126.8329" x2="1110.2963" y2="26.7151" gradientTransform="matrix(1 0 0 -1 0 1000)">
				<stop  offset="0" style="stop-color:#999FAF"/>
				<stop  offset="0.1651" style="stop-color:#979DAC"/>
				<stop  offset="0.2643" style="stop-color:#9195A4"/>
				<stop  offset="0.3462" style="stop-color:#878996"/>
				<stop  offset="0.4186" style="stop-color:#787782"/>
				<stop  offset="0.4841" style="stop-color:#656068"/>
				<stop  offset="0.5" style="stop-color:#605960"/>
				<stop  offset="0.5159" style="stop-color:#656068"/>
				<stop  offset="0.5814" style="stop-color:#787782"/>
				<stop  offset="0.6538" style="stop-color:#878996"/>
				<stop  offset="0.7357" style="stop-color:#9195A4"/>
				<stop  offset="0.8349" style="stop-color:#979DAC"/>
				<stop  offset="1" style="stop-color:#999FAF"/>
			</linearGradient>
			<path class="st9" d="M818.36,670.25c0.74,5.08-2.81,10.01-7.93,11.02s-9.86-2.28-10.6-7.36c-0.74-5.08,2.81-10.01,7.93-11.02
				C812.87,661.88,817.62,665.18,818.36,670.25z"/>
		</g>
		
			<linearGradient id="SVGID_10_" gradientUnits="userSpaceOnUse" x1="8.5678" y1="1125.2222" x2="1108.6855" y2="25.1044" gradientTransform="matrix(1 0 0 -1 0 1000)">
			<stop  offset="0" style="stop-color:#999FAF"/>
			<stop  offset="0.1651" style="stop-color:#979DAC"/>
			<stop  offset="0.2643" style="stop-color:#9195A4"/>
			<stop  offset="0.3462" style="stop-color:#878996"/>
			<stop  offset="0.4186" style="stop-color:#787782"/>
			<stop  offset="0.4841" style="stop-color:#656068"/>
			<stop  offset="0.5" style="stop-color:#605960"/>
			<stop  offset="0.5159" style="stop-color:#656068"/>
			<stop  offset="0.5814" style="stop-color:#787782"/>
			<stop  offset="0.6538" style="stop-color:#878996"/>
			<stop  offset="0.7357" style="stop-color:#9195A4"/>
			<stop  offset="0.8349" style="stop-color:#979DAC"/>
			<stop  offset="1" style="stop-color:#999FAF"/>
		</linearGradient>
		<path class="st10" d="M342.74,318.45c0,0,85.25,27.79,121.8-15.36l48.57,5.92c0,0,28.23,72.24,56.94,63.51
			c12.34-3.75-2.71-18.4-36.39-82.15c0,0-46.45-34.11-120.98-37.05L342.74,318.45z"/>
		
			<linearGradient id="SVGID_11_" gradientUnits="userSpaceOnUse" x1="-144.7507" y1="967.0648" x2="950.3194" y2="-128.0053" gradientTransform="matrix(1 0 0 -1 0 1000)">
			<stop  offset="0" style="stop-color:#999FAF"/>
			<stop  offset="0.1651" style="stop-color:#979DAC"/>
			<stop  offset="0.2643" style="stop-color:#9195A4"/>
			<stop  offset="0.3462" style="stop-color:#878996"/>
			<stop  offset="0.4186" style="stop-color:#787782"/>
			<stop  offset="0.4841" style="stop-color:#656068"/>
			<stop  offset="0.5" style="stop-color:#605960"/>
			<stop  offset="0.5159" style="stop-color:#656068"/>
			<stop  offset="0.5814" style="stop-color:#787782"/>
			<stop  offset="0.6538" style="stop-color:#878996"/>
			<stop  offset="0.7357" style="stop-color:#9195A4"/>
			<stop  offset="0.8349" style="stop-color:#979DAC"/>
			<stop  offset="1" style="stop-color:#999FAF"/>
		</linearGradient>
		<path class="st11" d="M539,397.61c-0.19,0.17-0.4,0.34-0.63,0.5c-0.78,0.55-1.81,1.02-3.03,1.27c-2.42,0.51-5.63,0.17-9.3-2.02
			c-2.06-1.24-4.27-3.07-6.57-5.68c-0.86-0.97-1.74-2.05-2.62-3.25c-1.55-2.11-3.13-4.58-4.72-7.47
			c-6.76-12.25-13.75-31.98-19.74-63.18l-30.92-11.34l-29.4-10.79l-7.4,11.31l-4.05,6.18l-4.19,6.41l-2.4,3.67
			c0,0-1.5,1.42-4.34,3.7c-13.06,10.5-54.49,39.31-108.3,32.15h-0.01c-7.13-0.95-14.47-2.53-22-4.87c-0.03-0.01-0.06-0.01-0.09-0.03
			c-5.05-1.56-10.17-3.47-15.37-5.76l-1.32,1.25l-1.15,1.08l-0.05,0.05l-16.11,15.22l-3.72,3.51l-3.53,3.34l-9.12,8.61L59.63,541.4
			l-26.06,24.62L8.1,590.08C2.78,560.86,0,530.76,0,500c0-27.77,2.26-55.01,6.62-81.55l33.7-21.72l131.24-84.54l0.02-0.01l5.25-3.38
			l13.16-8.48c1.87-1.21,3.7-2.48,5.49-3.81c2.57-1.89,5.06-3.9,7.5-5.97c8.82-7.51,19.68-13.2,31.7-16.55
			c54.59-15.2,192.86-50.92,209.94-51.07c5.41-0.05,30.97,25.39,52.46,48.36c12.1,12.94,22.91,25.1,28.12,31.49
			c2.59,3.18,4.28,6.8,4.94,10.62c1.4,8.06,4.01,23.43,6.22,38.88C539.41,373.63,541.7,395.13,539,397.61z"/>
		
			<linearGradient id="SVGID_12_" gradientUnits="userSpaceOnUse" x1="-112.6748" y1="1003.9797" x2="987.4431" y2="-96.138" gradientTransform="matrix(1 0 0 -1 0 1000)">
			<stop  offset="0" style="stop-color:#999FAF"/>
			<stop  offset="0.1651" style="stop-color:#979DAC"/>
			<stop  offset="0.2643" style="stop-color:#9195A4"/>
			<stop  offset="0.3462" style="stop-color:#878996"/>
			<stop  offset="0.4186" style="stop-color:#787782"/>
			<stop  offset="0.4841" style="stop-color:#656068"/>
			<stop  offset="0.5" style="stop-color:#605960"/>
			<stop  offset="0.5159" style="stop-color:#656068"/>
			<stop  offset="0.5814" style="stop-color:#787782"/>
			<stop  offset="0.6538" style="stop-color:#878996"/>
			<stop  offset="0.7357" style="stop-color:#9195A4"/>
			<stop  offset="0.8349" style="stop-color:#979DAC"/>
			<stop  offset="1" style="stop-color:#999FAF"/>
		</linearGradient>
		<path class="st12" d="M196.2,296.89c0,0,25.54,40.17,65.25,53.85l-19.27,19.54l-53.34-66.45L196.2,296.89z"/>
		
			<linearGradient id="SVGID_13_" gradientUnits="userSpaceOnUse" x1="-214.4373" y1="902.2172" x2="885.6807" y2="-197.9007" gradientTransform="matrix(1 0 0 -1 0 1000)">
			<stop  offset="0" style="stop-color:#999FAF"/>
			<stop  offset="0.1651" style="stop-color:#979DAC"/>
			<stop  offset="0.2643" style="stop-color:#9195A4"/>
			<stop  offset="0.3462" style="stop-color:#878996"/>
			<stop  offset="0.4186" style="stop-color:#787782"/>
			<stop  offset="0.4841" style="stop-color:#656068"/>
			<stop  offset="0.5" style="stop-color:#605960"/>
			<stop  offset="0.5159" style="stop-color:#656068"/>
			<stop  offset="0.5814" style="stop-color:#787782"/>
			<stop  offset="0.6538" style="stop-color:#878996"/>
			<stop  offset="0.7357" style="stop-color:#9195A4"/>
			<stop  offset="0.8349" style="stop-color:#979DAC"/>
			<stop  offset="1" style="stop-color:#999FAF"/>
		</linearGradient>
		<polygon class="st13" points="279.49,413.73 195.18,296.1 19.7,415.66 22.82,546.34 124.39,532.71 		"/>
		
			<linearGradient id="SVGID_14_" gradientUnits="userSpaceOnUse" x1="-226.4223" y1="890.2322" x2="873.6957" y2="-209.8857" gradientTransform="matrix(1 0 0 -1 0 1000)">
			<stop  offset="0" style="stop-color:#999FAF"/>
			<stop  offset="0.1651" style="stop-color:#979DAC"/>
			<stop  offset="0.2643" style="stop-color:#9195A4"/>
			<stop  offset="0.3462" style="stop-color:#878996"/>
			<stop  offset="0.4186" style="stop-color:#787782"/>
			<stop  offset="0.4841" style="stop-color:#656068"/>
			<stop  offset="0.5" style="stop-color:#605960"/>
			<stop  offset="0.5159" style="stop-color:#656068"/>
			<stop  offset="0.5814" style="stop-color:#787782"/>
			<stop  offset="0.6538" style="stop-color:#878996"/>
			<stop  offset="0.7357" style="stop-color:#9195A4"/>
			<stop  offset="0.8349" style="stop-color:#979DAC"/>
			<stop  offset="1" style="stop-color:#999FAF"/>
		</linearGradient>
		<polygon class="st14" points="279.49,413.73 174.74,310.44 9.93,548.07 124.39,532.71 		"/>
		
			<linearGradient id="SVGID_15_" gradientUnits="userSpaceOnUse" x1="-239.3973" y1="868.7123" x2="849.2852" y2="-219.9701" gradientTransform="matrix(1 0 0 -1 0 1000)">
			<stop  offset="0" style="stop-color:#999FAF"/>
			<stop  offset="0.1651" style="stop-color:#979DAC"/>
			<stop  offset="0.2643" style="stop-color:#9195A4"/>
			<stop  offset="0.3462" style="stop-color:#878996"/>
			<stop  offset="0.4186" style="stop-color:#787782"/>
			<stop  offset="0.4841" style="stop-color:#656068"/>
			<stop  offset="0.5" style="stop-color:#605960"/>
			<stop  offset="0.5159" style="stop-color:#656068"/>
			<stop  offset="0.5814" style="stop-color:#787782"/>
			<stop  offset="0.6538" style="stop-color:#878996"/>
			<stop  offset="0.7357" style="stop-color:#9195A4"/>
			<stop  offset="0.8349" style="stop-color:#979DAC"/>
			<stop  offset="1" style="stop-color:#999FAF"/>
		</linearGradient>
		<path class="st15" d="M268.26,436.35L41.39,607.93l-25.13,19.01c-3.18-12.11-5.9-24.41-8.16-36.86C2.78,560.86,0,530.76,0,500
			c0-27.77,2.26-55.01,6.62-81.55c0.51-3.15,1.06-6.3,1.64-9.43l34.27-21.71l131.08-83.01l3.13,4.36l0.09,0.14l9.07,12.64l0.01,0.02
			l43.01,60.01l32.86,45.84L268.26,436.35z"/>
		
			<linearGradient id="SVGID_16_" gradientUnits="userSpaceOnUse" x1="-159.6547" y1="956.9997" x2="940.4631" y2="-143.1181" gradientTransform="matrix(1 0 0 -1 0 1000)">
			<stop  offset="0" style="stop-color:#999FAF"/>
			<stop  offset="0.1651" style="stop-color:#979DAC"/>
			<stop  offset="0.2643" style="stop-color:#9195A4"/>
			<stop  offset="0.3462" style="stop-color:#878996"/>
			<stop  offset="0.4186" style="stop-color:#787782"/>
			<stop  offset="0.4841" style="stop-color:#656068"/>
			<stop  offset="0.5" style="stop-color:#605960"/>
			<stop  offset="0.5159" style="stop-color:#656068"/>
			<stop  offset="0.5814" style="stop-color:#787782"/>
			<stop  offset="0.6538" style="stop-color:#878996"/>
			<stop  offset="0.7357" style="stop-color:#9195A4"/>
			<stop  offset="0.8349" style="stop-color:#979DAC"/>
			<stop  offset="1" style="stop-color:#999FAF"/>
		</linearGradient>
		<path class="st16" d="M226.56,437.4c0.53,3.98,4.19,6.78,8.18,6.24c3.98-0.53,6.78-4.2,6.25-8.18c-0.53-3.98-4.19-6.78-8.18-6.24
			S226.02,433.42,226.56,437.4z"/>
		
			<linearGradient id="SVGID_17_" gradientUnits="userSpaceOnUse" x1="-176.8097" y1="939.8447" x2="923.3081" y2="-160.2731" gradientTransform="matrix(1 0 0 -1 0 1000)">
			<stop  offset="0" style="stop-color:#999FAF"/>
			<stop  offset="0.1651" style="stop-color:#979DAC"/>
			<stop  offset="0.2643" style="stop-color:#9195A4"/>
			<stop  offset="0.3462" style="stop-color:#878996"/>
			<stop  offset="0.4186" style="stop-color:#787782"/>
			<stop  offset="0.4841" style="stop-color:#656068"/>
			<stop  offset="0.5" style="stop-color:#605960"/>
			<stop  offset="0.5159" style="stop-color:#656068"/>
			<stop  offset="0.5814" style="stop-color:#787782"/>
			<stop  offset="0.6538" style="stop-color:#878996"/>
			<stop  offset="0.7357" style="stop-color:#9195A4"/>
			<stop  offset="0.8349" style="stop-color:#979DAC"/>
			<stop  offset="1" style="stop-color:#999FAF"/>
		</linearGradient>
		<path class="st17" d="M207.68,452.83c0.53,3.98,4.19,6.78,8.18,6.24c3.98-0.53,6.78-4.2,6.25-8.18c-0.53-3.98-4.19-6.78-8.18-6.24
			C209.94,445.18,207.15,448.84,207.68,452.83z"/>
		
			<linearGradient id="SVGID_18_" gradientUnits="userSpaceOnUse" x1="-0.6522" y1="1116.0023" x2="1099.4655" y2="15.8844" gradientTransform="matrix(1 0 0 -1 0 1000)">
			<stop  offset="0" style="stop-color:#999FAF"/>
			<stop  offset="0.1651" style="stop-color:#979DAC"/>
			<stop  offset="0.2643" style="stop-color:#9195A4"/>
			<stop  offset="0.3462" style="stop-color:#878996"/>
			<stop  offset="0.4186" style="stop-color:#787782"/>
			<stop  offset="0.4841" style="stop-color:#656068"/>
			<stop  offset="0.5" style="stop-color:#605960"/>
			<stop  offset="0.5159" style="stop-color:#656068"/>
			<stop  offset="0.5814" style="stop-color:#787782"/>
			<stop  offset="0.6538" style="stop-color:#878996"/>
			<stop  offset="0.7357" style="stop-color:#9195A4"/>
			<stop  offset="0.8349" style="stop-color:#979DAC"/>
			<stop  offset="1" style="stop-color:#999FAF"/>
		</linearGradient>
		<path class="st18" d="M419.77,324.38l-10.01-14.46c-0.69-0.63-0.68-4.28,2.22-3.05c6.46,2.74,5.89,11.59,20.09-10.11
			L419.77,324.38z"/>
		<g>
			<path class="st19" d="M516.3,448.42c-10.15,0-19.57-5.11-25.14-13.84c-8.88-13.93-4.81-32.51,9.08-41.42
				c6.73-4.31,14.73-5.74,22.52-4.03c7.81,1.72,14.49,6.38,18.79,13.14c3.23,5.07,4.86,10.91,4.7,16.9l-3.07-0.08
				c0.14-5.37-1.32-10.62-4.22-15.17c-3.87-6.06-9.85-10.25-16.86-11.79c-7-1.54-14.17-0.25-20.21,3.62
				c-12.47,8-16.13,24.68-8.15,37.18c5.56,8.71,15.38,13.41,25.63,12.25l0.34,3.05C518.58,448.35,517.43,448.42,516.3,448.42z"/>
			<path class="st20" d="M489.68,455.71l-0.58,9.62c-0.67,11.15,8.06,21.4,19.49,22.9l7.2,0.95c11.44,1.5,21.25-6.32,21.92-17.46
				l0.58-9.62c0.67-11.15-8.06-21.4-19.49-22.9l-7.42-4.23C499.95,433.46,490.35,444.57,489.68,455.71z M515.35,443.22
				c7.51,0.99,6.93,10.59-0.58,9.61C507.26,451.84,507.84,442.24,515.35,443.22z"/>
			<polygon class="st21" points="524.95,466.1 522.09,513.61 528.42,514.31 526.58,518.04 521.63,521.23 521.56,522.34 
				527.66,522.75 526.05,526.77 521.1,529.97 521.04,531.08 527.14,531.48 525.52,535.51 522.06,537.74 520.41,541.45 
				508.56,550.86 498.45,538.57 501.71,484.28 504.2,480.15 			"/>
			<polygon class="st22" points="522.33,534.82 522.16,537.58 510.3,546.98 500.19,534.69 501.81,507.83 502.21,501.18 
				504.73,459.35 526.69,462.22 524.38,500.7 523.98,507.34 523.84,509.73 528.32,514.16 523.37,517.35 523.31,518.46 527.79,522.9 
				522.85,526.09 522.78,527.2 527.27,531.63 			"/>
			<path class="st22" d="M523.98,507.4c-7.4,1.36-14.78,2.64-22.16,3.86l0.4-6.71c7.39-1.22,14.78-2.51,22.17-3.86L523.98,507.4z"/>
			<polygon class="st21" points="509.24,540.23 505.16,532.95 509.44,461.96 513.92,462.54 			"/>
			<path class="st23" d="M540.37,467.29l0.58-9.61c0.68-11.15-8.05-21.39-19.49-22.9l-7.21-0.95c-11.05-1.45-20.59,5.81-21.82,16.37
				c-0.04,0.36-0.08,0.73-0.1,1.1l-0.58,9.61c-0.33,5.47,1.6,10.73,5.02,14.83c3.53,4.27,8.65,7.3,14.47,8.07l7.21,0.95
				C529.88,486.25,539.69,478.43,540.37,467.29z M517.2,452.14c-7.52-0.98-6.84-12.33,0.68-11.35
				C525.39,441.77,524.71,453.13,517.2,452.14z"/>
			<path class="st20" d="M518.29,455.01c-0.39,0-0.77-0.03-1.17-0.08l0.38-2.87c1.55,0.2,3.02-0.2,4.15-1.13
				c1.06-0.88,1.69-2.14,1.78-3.55c0.19-3.09-2.27-5.95-5.46-6.37l0.38-2.87c4.67,0.61,8.25,4.84,7.98,9.42
				c-0.13,2.22-1.14,4.21-2.82,5.6C522.03,454.37,520.22,455.01,518.29,455.01z"/>
			<path class="st20" d="M521.85,485.57c-1.13,0-2.28-0.08-3.44-0.23l-7.2-0.94c-4.65-0.61-9-2.39-12.57-5.14l0.72-0.93
				c3.4,2.62,7.55,4.32,12,4.9l7.2,0.94c4.13,0.54,8.15,0.07,11.64-1.38l0.45,1.09C527.95,485,524.96,485.57,521.85,485.57z"/>
			<path class="st20" d="M517.13,454.93c-4.67-0.61-8.25-4.84-7.98-9.42c0.13-2.22,1.14-4.21,2.82-5.6
				c1.75-1.45,4.02-2.08,6.37-1.77l-0.38,2.87c-1.55-0.2-3.02,0.2-4.15,1.13c-1.06,0.88-1.69,2.14-1.78,3.55
				c-0.19,3.09,2.26,5.95,5.46,6.37L517.13,454.93z"/>
			<path class="st20" d="M512.54,457.39l2.02,9.42c2.34,10.92,13.49,18.46,24.91,16.84l7.19-1.02
				c11.42-1.62,21.25-12.54,18.75-25.87l-4.33-6.25c-2.34-10.92-13.49-18.46-24.91-16.84l-8.28-2.09
				C516.47,433.2,510.2,446.47,512.54,457.39z M533.93,438.48c7.5-1.06,9.52,8.35,2.02,9.41
				C528.44,448.95,526.43,439.54,533.93,438.48z"/>
			<polygon class="st21" points="550.04,457.21 560.02,503.75 566.3,502.73 565.53,506.81 561.62,511.21 561.85,512.3 
				567.84,511.06 567.36,515.37 563.45,519.77 563.68,520.86 569.67,519.62 569.19,523.92 566.45,527 565.86,531.02 556.96,543.26 
				543.93,534.13 532.53,480.95 533.82,476.3 			"/>
			<polygon class="st22" points="565.93,524.12 566.5,526.82 557.6,539.05 544.57,529.93 538.93,503.61 537.53,497.09 
				528.76,456.12 550.68,453 558.77,490.69 560.16,497.2 560.66,499.54 566.17,502.61 562.26,507.01 562.49,508.1 568,511.17 
				564.09,515.57 564.33,516.65 569.84,519.72 			"/>
			<path class="st22" d="M560.16,497.2c-7.06,2.2-14.13,4.33-21.22,6.41l-1.4-6.51c7.09-2.07,14.18-4.21,21.23-6.4L560.16,497.2z"/>
			<polygon class="st21" points="554.77,532.84 548.89,526.92 533.99,457.37 538.46,456.74 			"/>
			<path class="st24" d="M565.22,454.22l-2.02-9.42c-2.34-10.92-13.49-18.45-24.91-16.84l-7.2,1.02
				c-11.03,1.57-18.28,11.12-16.64,21.62c0.05,0.36,0.12,0.72,0.2,1.09l2.02,9.42c1.14,5.36,4.42,9.91,8.81,12.95
				c4.55,3.16,10.29,4.72,16.1,3.9l7.2-1.02C560.19,475.31,567.55,465.14,565.22,454.22z M540.41,445.15
				c-6.92,3.09-12.27-6.94-5.35-10.04C541.98,432.03,547.33,442.07,540.41,445.15z"/>
			<path class="st20" d="M539.52,448.54l-0.41-2.87c1.55-0.22,2.86-1,3.69-2.2c0.79-1.13,1.06-2.51,0.76-3.89
				c-0.65-3.03-3.77-5.13-6.97-4.68l-0.41-2.87c4.67-0.66,9.25,2.45,10.21,6.94c0.47,2.18,0.03,4.36-1.22,6.16
				C543.88,447,541.87,448.21,539.52,448.54z"/>
			<path class="st20" d="M537.88,478.79c-3.35,0-6.63-0.63-9.66-1.86l0.44-1.09c3.98,1.62,8.44,2.14,12.88,1.51l7.19-1.02
				c4.12-0.58,7.87-2.12,10.85-4.44l0.72,0.93c-3.14,2.45-7.08,4.07-11.4,4.68l-7.19,1.02C540.43,478.7,539.15,478.79,537.88,478.79
				z"/>
			<path class="st19" d="M530.63,443.52l-0.8-2.96c8-2.17,13.17-13.97,13.37-21.47l3.07,0.08
				C546.05,427.44,540.36,440.88,530.63,443.52z"/>
			<path class="st20" d="M538.26,448.63c-4.21,0-8.07-2.94-8.95-7.02c-0.47-2.18-0.03-4.36,1.22-6.16c1.3-1.86,3.31-3.07,5.66-3.41
				l0.41,2.87c-1.55,0.22-2.86,1-3.69,2.2c-0.79,1.13-1.06,2.51-0.76,3.89c0.65,3.03,3.78,5.13,6.97,4.68l0.41,2.87
				C539.09,448.6,538.67,448.63,538.26,448.63z"/>
		</g>
		
			<linearGradient id="SVGID_19_" gradientUnits="userSpaceOnUse" x1="-49.7151" y1="1066.9395" x2="1050.4028" y2="-33.1786" gradientTransform="matrix(1 0 0 -1 0 1000)">
			<stop  offset="0" style="stop-color:#999FAF"/>
			<stop  offset="0.1651" style="stop-color:#979DAC"/>
			<stop  offset="0.2643" style="stop-color:#9195A4"/>
			<stop  offset="0.3462" style="stop-color:#878996"/>
			<stop  offset="0.4186" style="stop-color:#787782"/>
			<stop  offset="0.4841" style="stop-color:#656068"/>
			<stop  offset="0.5" style="stop-color:#605960"/>
			<stop  offset="0.5159" style="stop-color:#656068"/>
			<stop  offset="0.5814" style="stop-color:#787782"/>
			<stop  offset="0.6538" style="stop-color:#878996"/>
			<stop  offset="0.7357" style="stop-color:#9195A4"/>
			<stop  offset="0.8349" style="stop-color:#979DAC"/>
			<stop  offset="1" style="stop-color:#999FAF"/>
		</linearGradient>
		<path class="st25" d="M247.73,344.9c0,0,49.63,18.15,108.23,20.9c33,1.55,65.29,9.51,95.06,22.79c7.38,3.29,14.49,6.47,20.52,9.19
			c26.56,11.97,43.31,34.74,54.64,14.97c11.32-19.77-29.37-46.86-64.39-59.56s-54.36-67.69-54.36-67.69L247.73,344.9z"/>
	</g>
</g>
<path class="st26" d="M990.03,599.82c-1.93,9.55-4.14,19.01-6.61,28.36c-3.64,13.76-7.85,27.29-12.6,40.56
	c-0.08,0.21-0.16,0.42-0.24,0.63v0.01c-0.93,2.6-1.89,5.19-2.87,7.77c-2.63,6.95-5.42,13.82-8.35,20.61
	c-7.68,17.84-16.38,35.15-26.02,51.84C846.94,899.27,685.23,1000,500,1000c-232.28,0-427.57-158.39-483.74-373.06
	c-3.18-12.11-5.9-24.41-8.16-36.86C2.78,560.86,0,530.76,0,500c0-27.77,2.26-55.01,6.62-81.55c0.51-3.15,1.06-6.3,1.64-9.43
	C51.04,176.32,254.93,0,500,0c276.14,0,500,223.86,500,500C1000,534.19,996.57,567.57,990.03,599.82z M1800,1000
	c-276.14,0-500-223.86-500-500S1523.86,0,1800,0s500,223.86,500,500S2076.14,1000,1800,1000z"/>
</svg>
