<?xml version="1.0" encoding="utf-8"?>
<!-- Generator: Adobe Illustrator 25.0.0, SVG Export Plug-In . SVG Version: 6.00 Build 0)  -->
<svg version="1.1" id="Layer_1" xmlns="http://www.w3.org/2000/svg" xmlns:xlink="http://www.w3.org/1999/xlink" x="0px" y="0px"
	 viewBox="0 0 1000 1000" style="enable-background:new 0 0 1000 1000;" xml:space="preserve">
<style type="text/css">
	.st0{fill:#FFFFFF;}
	.st1{fill:url(#SVGID_1_);}
	.st2{fill:url(#SVGID_2_);}
	.st3{fill:url(#SVGID_3_);}
	.st4{fill:url(#SVGID_4_);}
	.st5{fill:url(#SVGID_5_);}
	.st6{fill:url(#SVGID_6_);}
	.st7{fill:url(#SVGID_7_);}
	.st8{fill:url(#SVGID_8_);}
	.st9{fill:url(#SVGID_9_);}
	.st10{fill:url(#SVGID_10_);}
	.st11{fill:url(#SVGID_11_);}
	.st12{fill:url(#SVGID_12_);}
	.st13{fill:url(#SVGID_13_);}
	.st14{fill:url(#SVGID_14_);}
	.st15{fill:url(#SVGID_15_);}
	.st16{fill:url(#SVGID_16_);}
	.st17{fill:url(#SVGID_17_);}
	.st18{fill:url(#SVGID_18_);}
	.st19{fill:url(#SVGID_19_);}
	.st20{fill:url(#SVGID_20_);}
	.st21{fill:url(#SVGID_21_);}
	.st22{fill:url(#SVGID_22_);}
	.st23{fill:url(#SVGID_23_);}
	.st24{fill:url(#SVGID_24_);}
	.st25{fill:url(#SVGID_25_);}
	.st26{fill:url(#SVGID_26_);}
	.st27{fill:url(#SVGID_27_);}
	.st28{fill:url(#SVGID_28_);}
	.st29{fill:url(#SVGID_29_);}
	.st30{fill:url(#SVGID_30_);}
	.st31{fill:url(#SVGID_31_);}
	.st32{fill:url(#SVGID_32_);}
	.st33{fill:url(#SVGID_33_);}
	.st34{fill:url(#SVGID_34_);}
	.st35{fill:#F9CC3D;}
	.st36{fill:#FFF35A;}
	.st37{fill:#FFF89F;}
	.st38{fill:url(#SVGID_35_);}
	.st39{fill:url(#SVGID_36_);}
	.st40{fill:url(#SVGID_37_);}
	.st41{fill:none;}
</style>
<circle class="st0" cx="500" cy="500" r="500"/>
<g>
	<g>
		
			<linearGradient id="SVGID_1_" gradientUnits="userSpaceOnUse" x1="137.3884" y1="611.3766" x2="842.3694" y2="-93.6044" gradientTransform="matrix(1 0 0 -1 0 1000)">
			<stop  offset="0" style="stop-color:#999FAF"/>
			<stop  offset="0.1651" style="stop-color:#979DAC"/>
			<stop  offset="0.2643" style="stop-color:#9195A4"/>
			<stop  offset="0.3462" style="stop-color:#878996"/>
			<stop  offset="0.4186" style="stop-color:#787782"/>
			<stop  offset="0.4841" style="stop-color:#656068"/>
			<stop  offset="0.5" style="stop-color:#605960"/>
			<stop  offset="0.5159" style="stop-color:#656068"/>
			<stop  offset="0.5814" style="stop-color:#787782"/>
			<stop  offset="0.6538" style="stop-color:#878996"/>
			<stop  offset="0.7357" style="stop-color:#9195A4"/>
			<stop  offset="0.8349" style="stop-color:#979DAC"/>
			<stop  offset="1" style="stop-color:#999FAF"/>
		</linearGradient>
		<path class="st1" d="M516.2,779.56c7.21,0.11,12.74-2.54,16.55-7.7C528.91,776.83,523.41,779.15,516.2,779.56z"/>
		
			<linearGradient id="SVGID_2_" gradientUnits="userSpaceOnUse" x1="100.0709" y1="574.0592" x2="805.0519" y2="-130.9219" gradientTransform="matrix(1 0 0 -1 0 1000)">
			<stop  offset="0" style="stop-color:#999FAF"/>
			<stop  offset="0.1651" style="stop-color:#979DAC"/>
			<stop  offset="0.2643" style="stop-color:#9195A4"/>
			<stop  offset="0.3462" style="stop-color:#878996"/>
			<stop  offset="0.4186" style="stop-color:#787782"/>
			<stop  offset="0.4841" style="stop-color:#656068"/>
			<stop  offset="0.5" style="stop-color:#605960"/>
			<stop  offset="0.5159" style="stop-color:#656068"/>
			<stop  offset="0.5814" style="stop-color:#787782"/>
			<stop  offset="0.6538" style="stop-color:#878996"/>
			<stop  offset="0.7357" style="stop-color:#9195A4"/>
			<stop  offset="0.8349" style="stop-color:#979DAC"/>
			<stop  offset="1" style="stop-color:#999FAF"/>
		</linearGradient>
		<path class="st2" d="M496.49,821.72c-0.64,0.15-1.12,0.19-1.27,0.19h1.64C496.75,821.83,496.61,821.79,496.49,821.72z"/>
		
			<linearGradient id="SVGID_3_" gradientUnits="userSpaceOnUse" x1="226.8259" y1="700.8141" x2="931.8068" y2="-4.1668" gradientTransform="matrix(1 0 0 -1 0 1000)">
			<stop  offset="0" style="stop-color:#999FAF"/>
			<stop  offset="0.1651" style="stop-color:#979DAC"/>
			<stop  offset="0.2643" style="stop-color:#9195A4"/>
			<stop  offset="0.3462" style="stop-color:#878996"/>
			<stop  offset="0.4186" style="stop-color:#787782"/>
			<stop  offset="0.4841" style="stop-color:#656068"/>
			<stop  offset="0.5" style="stop-color:#605960"/>
			<stop  offset="0.5159" style="stop-color:#656068"/>
			<stop  offset="0.5814" style="stop-color:#787782"/>
			<stop  offset="0.6538" style="stop-color:#878996"/>
			<stop  offset="0.7357" style="stop-color:#9195A4"/>
			<stop  offset="0.8349" style="stop-color:#979DAC"/>
			<stop  offset="1" style="stop-color:#999FAF"/>
		</linearGradient>
		<path class="st3" d="M487.4,779.52v1.49l10.69-0.49c9.49-0.6,9.64-0.49,18.12-0.97C506.6,779.37,497,779.52,487.4,779.52z
			 M516.2,779.56c7.21,0.11,12.74-2.54,16.55-7.7C528.91,776.83,523.41,779.15,516.2,779.56z M630.57,676.7
			c-0.04-0.37-0.04-0.71-0.04-1.08h-0.04c-0.67,0.19-1.38,0.34-2.05,0.49c-1.57,0.34-3.14,0.67-4.6,1.2
			c-0.52,0.15-1.01,0.34-1.46,0.56c-0.82,0.37-1.64,0.97-2.32,1.68c-0.19,0.15-0.37,0.34-0.52,0.52c-0.49,0.56-0.9,1.2-1.16,1.79
			c-0.97,2.24-1.94,4.52-2.91,6.8c-1.46,3.4-2.84,6.8-4.22,10.24c-1.42,3.44-2.76,6.87-4.15,10.31c-0.41,1.01-0.19,2.5,0.22,3.55
			c0.34,0.82,0.67,1.64,1.05,2.47c0.67,1.61,1.38,3.25,2.09,4.93c1.79,4.18,3.66,8.48,5.68,13.23c0.9-1.87,1.57-2.84,1.87-3.96
			c2.13-7.81,4.22-15.62,6.31-23.43s4.18-15.62,6.2-23.46c0.19-0.71,0.22-1.46,0.22-2.24C630.76,679.13,630.64,677.9,630.57,676.7z
			 M609.65,732.97c-0.41-1.27-0.93-2.5-1.61-3.7c-0.67-1.2-1.46-2.35-2.43-3.4c-0.45-0.56-0.97-1.05-1.49-1.57v30.6
			c0.56-0.6,1.08-1.23,1.49-1.87c0.97-1.27,1.76-2.58,2.43-3.89C610.73,743.8,611.25,738.09,609.65,732.97z M635.05,806.39
			c-0.04-0.37-0.11-0.71-0.19-0.97c-0.86-2.69-1.72-5.38-2.62-8.07c-4.26-13.19-8.67-26.3-13.15-39.38
			c-0.64-1.83-2.02-3.4-3.36-5.46c-0.04-0.07-0.07-0.15-0.15-0.22c-0.04-0.11-0.07-0.19-0.15-0.3l-0.04,0.04
			c-0.9,1.12-1.72,2.24-2.58,3.29c-1.68,2.17-3.29,4.18-4.78,6.2c-0.75,1.01-1.49,2.02-2.24,3.03c-0.26,0.34-0.45,0.78-0.56,1.23
			c-0.07,0.26-0.11,0.52-0.15,0.75c-0.07,0.49-0.07,1.01-0.04,1.46c0.82,6.54,1.94,12.96,3.81,19.17c0.45,1.57,0.97,3.1,1.53,4.6
			c0.56,1.53,1.16,3.03,1.83,4.52c1.34,2.99,2.91,5.87,4.75,8.67c2.02,3.06,4.97,6.05,8.22,7.62c2.32,1.12,6.13,0.45,8.67-0.71
			C634.83,811.39,635.31,808.44,635.05,806.39z M653.36,743.47c-0.07-0.26-0.19-0.52-0.3-0.75c-5.08,0.82-10.16,1.64-15.21,2.5
			c-5.04,0.82-10.05,1.64-14.95,2.47h-0.04c1.64,4.63,3.29,9.19,4.89,13.75c1.64,4.6,3.25,9.12,4.86,13.67
			c3.21,9.08,6.43,18.05,9.6,27.01c1.64-1.53,3.21-4.45,4.6-8.18c0.56-1.42,1.08-2.91,1.57-4.52c1.01-3.25,1.91-6.87,2.69-10.61
			c0.26-1.23,0.52-2.47,0.75-3.74c0.11-0.64,0.22-1.31,0.34-1.94c0.41-2.2,0.75-4.45,1.01-6.61c0.3-2.17,0.52-4.3,0.71-6.35
			c0.04-0.04,0-0.07,0-0.07c0.15-1.91,0.26-3.74,0.34-5.42C654.41,749.82,654.14,745.86,653.36,743.47z M654.11,729.6
			c-1.12-5.53-2.13-11.1-3.25-16.66c-1.08-5.53-2.28-11.06-3.74-16.51c-0.19-0.71-0.41-1.38-0.67-2.06
			c-0.71-2.02-1.64-3.92-2.69-5.87c-1.38-2.54-2.91-5.08-4.18-7.66c-0.41,0.19-0.82,0.37-1.23,0.56c-4,14.46-8,28.88-12.14,43.83
			c-1.38,4.97-2.76,9.98-4.18,15.09v0.04c3.59-0.6,7.06-1.2,10.46-1.76c1.12-0.19,2.28-0.37,3.4-0.56
			c4.52-0.75,8.97-1.49,13.41-2.13C653.17,735.36,654.89,733.53,654.11,729.6z M834.57,805.75c-0.64-2.91-1.27-5.87-1.94-8.78
			c-1.2-5.34-2.39-10.65-3.66-15.92c-0.3-1.27-0.6-2.54-0.93-3.81c-0.52-2.2-1.05-4.41-1.61-6.58c-0.3-1.16-0.64-2.32-1.05-3.51
			c-0.75-2.32-1.64-4.67-2.65-7.25c-0.49-1.31-0.97-2.65-1.49-4.07c0,0,0,0.04-0.04,0.04c-1.05,1.61-2.02,3.14-2.95,4.63
			c-0.22,0.37-0.45,0.75-0.67,1.16c-0.41,0.75-0.82,1.49-1.2,2.2c-1.91,3.77-2.99,7.47-2.65,11.69c0.04,0.71,0.11,1.42,0.26,2.17
			c0.07,0.52,0.19,1.05,0.34,1.57c0.07,0.3,0.15,0.64,0.22,0.93c1.72,6.87,2.88,13.9,5.31,20.47c0.71,1.91,1.49,3.77,2.43,5.57
			c0.6,1.2,1.31,2.39,2.06,3.55c0.34,0.56,0.75,1.05,1.16,1.53c0.82,0.93,1.72,1.72,2.8,2.13c0.82,0.34,1.76,0.45,2.76,0.26
			c0.34-0.07,0.71-0.19,1.12-0.34C835.95,811.95,835.17,808.55,834.57,805.75z M820.97,735.62c0.49,0.82,1.05,1.61,1.61,2.35
			c0.04,0,0.04,0.04,0.04,0.04c1.76-9.15,3.47-18.12,5.16-27.01c0-0.04,0-0.04,0-0.04c0.86-4.48,1.72-8.93,2.58-13.38
			c0.86-4.48,1.72-9,2.58-13.53c-0.82,0.07-1.64,0.26-2.47,0.56c-0.56,0.19-1.08,0.45-1.61,0.78c-0.52,0.3-1.05,0.67-1.57,1.08
			c-0.49,0.41-1.01,0.86-1.5,1.38c-7.62,7.77-12.52,26.04-8,40.65C818.54,731.02,819.62,733.42,820.97,735.62z M815.7,735.99
			c-0.67-1.61-1.57-3.21-2.69-4.75v26.86c1.49-2.28,2.58-4.6,3.32-6.91C817.98,746.01,817.79,740.85,815.7,735.99z"/>
		
			<linearGradient id="SVGID_4_" gradientUnits="userSpaceOnUse" x1="145.0383" y1="619.0266" x2="850.0194" y2="-85.9544" gradientTransform="matrix(1 0 0 -1 0 1000)">
			<stop  offset="0" style="stop-color:#999FAF"/>
			<stop  offset="0.1651" style="stop-color:#979DAC"/>
			<stop  offset="0.2643" style="stop-color:#9195A4"/>
			<stop  offset="0.3462" style="stop-color:#878996"/>
			<stop  offset="0.4186" style="stop-color:#787782"/>
			<stop  offset="0.4841" style="stop-color:#656068"/>
			<stop  offset="0.5" style="stop-color:#605960"/>
			<stop  offset="0.5159" style="stop-color:#656068"/>
			<stop  offset="0.5814" style="stop-color:#787782"/>
			<stop  offset="0.6538" style="stop-color:#878996"/>
			<stop  offset="0.7357" style="stop-color:#9195A4"/>
			<stop  offset="0.8349" style="stop-color:#979DAC"/>
			<stop  offset="1" style="stop-color:#999FAF"/>
		</linearGradient>
		<path class="st4" d="M349.94,755.01c0.11,0.04,0.26,0.07,0.37,0.07h0.04c0.52-0.04,1.01-0.04,1.5-0.07H349.94z M371.2,759.64
			h-73.49l-14.68-0.04c-4.89,0.82-9.79,1.64-14.68,2.84c4.89,1.16,9.79,1.98,14.68,2.8h88.18c4.89-0.86,9.79-1.68,14.68-2.8
			C380.99,761.33,376.09,760.47,371.2,759.64z M371.2,726.32h-88.18c-4.89,0.82-9.79,1.64-14.68,2.8c4.89,1.2,9.79,2.02,14.68,2.84
			l14.68-0.04h73.49c4.89-0.82,9.79-1.68,14.68-2.8C380.99,728,376.09,727.18,371.2,726.32z M381.92,748.55h-91.35l-18.27-0.04
			c-6.09,0.82-12.18,1.64-18.27,2.84c6.09,1.16,12.18,1.98,18.27,2.8h109.62c6.09-0.86,12.18-1.68,18.27-2.8
			C394.1,750.19,388.01,749.37,381.92,748.55z M381.92,737.41H272.3c-6.09,0.82-12.18,1.64-18.27,2.8
			c6.09,1.2,12.18,2.02,18.27,2.84l18.27-0.04h91.35c6.09-0.82,12.18-1.68,18.27-2.8C394.1,739.1,388.01,738.27,381.92,737.41z
			 M381.92,737.41H272.3c-6.09,0.82-12.18,1.64-18.27,2.8c6.09,1.2,12.18,2.02,18.27,2.84l18.27-0.04h91.35
			c6.09-0.82,12.18-1.68,18.27-2.8C394.1,739.1,388.01,738.27,381.92,737.41z M381.92,748.55h-91.35l-18.27-0.04
			c-6.09,0.82-12.18,1.64-18.27,2.84c6.09,1.16,12.18,1.98,18.27,2.8h109.62c6.09-0.86,12.18-1.68,18.27-2.8
			C394.1,750.19,388.01,749.37,381.92,748.55z M371.2,726.32h-88.18c-4.89,0.82-9.79,1.64-14.68,2.8c4.89,1.2,9.79,2.02,14.68,2.84
			l14.68-0.04h73.49c4.89-0.82,9.79-1.68,14.68-2.8C380.99,728,376.09,727.18,371.2,726.32z M371.2,759.64h-73.49l-14.68-0.04
			c-4.89,0.82-9.79,1.64-14.68,2.84c4.89,1.16,9.79,1.98,14.68,2.8h88.18c4.89-0.86,9.79-1.68,14.68-2.8
			C380.99,761.33,376.09,760.47,371.2,759.64z M349.94,755.01c0.11,0.04,0.26,0.07,0.37,0.07h0.04c0.52-0.04,1.01-0.04,1.5-0.07
			H349.94z M349.94,755.01c0.11,0.04,0.26,0.07,0.37,0.07h0.04c0.52-0.04,1.01-0.04,1.5-0.07H349.94z M371.2,759.64h-73.49
			l-14.68-0.04c-4.89,0.82-9.79,1.64-14.68,2.84c4.89,1.16,9.79,1.98,14.68,2.8h88.18c4.89-0.86,9.79-1.68,14.68-2.8
			C380.99,761.33,376.09,760.47,371.2,759.64z M371.2,726.32h-88.18c-4.89,0.82-9.79,1.64-14.68,2.8c4.89,1.2,9.79,2.02,14.68,2.84
			l14.68-0.04h73.49c4.89-0.82,9.79-1.68,14.68-2.8C380.99,728,376.09,727.18,371.2,726.32z M381.92,748.55h-91.35l-18.27-0.04
			c-6.09,0.82-12.18,1.64-18.27,2.84c6.09,1.16,12.18,1.98,18.27,2.8h109.62c6.09-0.86,12.18-1.68,18.27-2.8
			C394.1,750.19,388.01,749.37,381.92,748.55z M381.92,737.41H272.3c-6.09,0.82-12.18,1.64-18.27,2.8
			c6.09,1.2,12.18,2.02,18.27,2.84l18.27-0.04h91.35c6.09-0.82,12.18-1.68,18.27-2.8C394.1,739.1,388.01,738.27,381.92,737.41z
			 M630.57,676.7c-0.04-0.37-0.04-0.71-0.04-1.08h-0.04c-0.67,0.19-1.38,0.34-2.05,0.49c-1.57,0.34-3.14,0.67-4.6,1.2
			c-0.52,0.15-1.01,0.34-1.46,0.56c-0.82,0.37-1.64,0.97-2.32,1.68c-0.19,0.15-0.37,0.34-0.52,0.52c-0.49,0.56-0.9,1.2-1.16,1.79
			c-0.97,2.24-1.94,4.52-2.91,6.8c-1.46,3.4-2.84,6.8-4.22,10.24c-1.42,3.44-2.76,6.87-4.15,10.31c-0.41,1.01-0.19,2.5,0.22,3.55
			c0.34,0.82,0.67,1.64,1.05,2.47c0.67,1.61,1.38,3.25,2.09,4.93c1.79,4.18,3.66,8.48,5.68,13.23c0.9-1.87,1.57-2.84,1.87-3.96
			c2.13-7.81,4.22-15.62,6.31-23.43s4.18-15.62,6.2-23.46c0.19-0.71,0.22-1.46,0.22-2.24C630.76,679.13,630.64,677.9,630.57,676.7z
			 M609.65,732.97c-0.41-1.27-0.93-2.5-1.61-3.7c-0.67-1.2-1.46-2.35-2.43-3.4c-0.45-0.56-0.97-1.05-1.49-1.57v30.6
			c0.56-0.6,1.08-1.23,1.49-1.87c0.97-1.27,1.76-2.58,2.43-3.89C610.73,743.8,611.25,738.09,609.65,732.97z M635.05,806.39
			c-0.04-0.37-0.11-0.71-0.19-0.97c-0.86-2.69-1.72-5.38-2.62-8.07c-4.26-13.19-8.67-26.3-13.15-39.38
			c-0.64-1.83-2.02-3.4-3.36-5.46c-0.04-0.07-0.07-0.15-0.15-0.22c-0.04-0.11-0.07-0.19-0.15-0.3l-0.04,0.04
			c-0.9,1.12-1.72,2.24-2.58,3.29c-1.68,2.17-3.29,4.18-4.78,6.2c-0.75,1.01-1.49,2.02-2.24,3.03c-0.26,0.34-0.45,0.78-0.56,1.23
			c-0.07,0.26-0.11,0.52-0.15,0.75c-0.07,0.49-0.07,1.01-0.04,1.46c0.82,6.54,1.94,12.96,3.81,19.17c0.45,1.57,0.97,3.1,1.53,4.6
			c0.56,1.53,1.16,3.03,1.83,4.52c1.34,2.99,2.91,5.87,4.75,8.67c2.02,3.06,4.97,6.05,8.22,7.62c2.32,1.12,6.13,0.45,8.67-0.71
			C634.83,811.39,635.31,808.44,635.05,806.39z M654.11,729.6c-1.12-5.53-2.13-11.1-3.25-16.66c-1.08-5.53-2.28-11.06-3.74-16.51
			c-0.19-0.71-0.41-1.38-0.67-2.06c-0.71-2.02-1.64-3.92-2.69-5.87c-1.38-2.54-2.91-5.08-4.18-7.66c-0.41,0.19-0.82,0.37-1.23,0.56
			c-4,14.46-8,28.88-12.14,43.83c-1.38,4.97-2.76,9.98-4.18,15.09v0.04c3.59-0.6,7.06-1.2,10.46-1.76c1.12-0.19,2.28-0.37,3.4-0.56
			c4.52-0.75,8.97-1.49,13.41-2.13C653.17,735.36,654.89,733.53,654.11,729.6z M653.36,743.47c-0.07-0.26-0.19-0.52-0.3-0.75
			c-5.08,0.82-10.16,1.64-15.21,2.5c-5.04,0.82-10.05,1.64-14.95,2.47h-0.04c1.64,4.63,3.29,9.19,4.89,13.75
			c1.64,4.6,3.25,9.12,4.86,13.67c3.21,9.08,6.43,18.05,9.6,27.01c1.64-1.53,3.21-4.45,4.6-8.18c0.56-1.42,1.08-2.91,1.57-4.52
			c1.01-3.25,1.91-6.87,2.69-10.61c0.26-1.23,0.52-2.47,0.75-3.74c0.11-0.64,0.22-1.31,0.34-1.94c0.41-2.2,0.75-4.45,1.01-6.61
			c0.3-2.17,0.52-4.3,0.71-6.35c0.04-0.04,0-0.07,0-0.07c0.15-1.91,0.26-3.74,0.34-5.42C654.41,749.82,654.14,745.86,653.36,743.47z
			 M653.06,742.72c-5.08,0.82-10.16,1.64-15.21,2.5c-5.04,0.82-10.05,1.64-14.95,2.47h-0.04c1.64,4.63,3.29,9.19,4.89,13.75
			c1.64,4.6,3.25,9.12,4.86,13.67c3.21,9.08,6.43,18.05,9.6,27.01c1.64-1.53,3.21-4.45,4.6-8.18c0.56-1.42,1.08-2.91,1.57-4.52
			c1.01-3.25,1.91-6.87,2.69-10.61c0.26-1.23,0.52-2.47,0.75-3.74c0.11-0.64,0.22-1.31,0.34-1.94c0.41-2.2,0.75-4.45,1.01-6.61
			c0.3-2.17,0.52-4.3,0.71-6.35c0.04-0.04,0-0.07,0-0.07c0.15-1.91,0.26-3.74,0.34-5.42c0.19-4.86-0.07-8.82-0.86-11.21
			C653.29,743.21,653.17,742.94,653.06,742.72z M622.01,740.33v0.04c3.59-0.6,7.06-1.2,10.46-1.76c1.12-0.19,2.28-0.37,3.4-0.56
			c4.52-0.75,8.97-1.49,13.41-2.13c3.89-0.56,5.6-2.39,4.82-6.31c-1.12-5.53-2.13-11.1-3.25-16.66c-1.08-5.53-2.28-11.06-3.74-16.51
			c-0.19-0.71-0.41-1.38-0.67-2.06c-0.71-2.02-1.64-3.92-2.69-5.87c-1.38-2.54-2.91-5.08-4.18-7.66c-0.41,0.19-0.82,0.37-1.23,0.56
			c-4,14.46-8,28.88-12.14,43.83C624.82,730.2,623.43,735.21,622.01,740.33z M634.87,805.41c-0.86-2.69-1.72-5.38-2.62-8.07
			c-4.26-13.19-8.67-26.3-13.15-39.38c-0.64-1.83-2.02-3.4-3.36-5.46c-0.04-0.07-0.07-0.15-0.15-0.22c-0.04-0.11-0.07-0.19-0.15-0.3
			l-0.04,0.04c-0.9,1.12-1.72,2.24-2.58,3.29c-1.68,2.17-3.29,4.18-4.78,6.2c-0.75,1.01-1.49,2.02-2.24,3.03
			c-0.26,0.34-0.45,0.78-0.56,1.23c-0.07,0.26-0.11,0.52-0.15,0.75c-0.07,0.49-0.07,1.01-0.04,1.46c0.82,6.54,1.94,12.96,3.81,19.17
			c0.45,1.57,0.97,3.1,1.53,4.6c0.56,1.53,1.16,3.03,1.83,4.52c1.34,2.99,2.91,5.87,4.75,8.67c2.02,3.06,4.97,6.05,8.22,7.62
			c2.32,1.12,6.13,0.45,8.67-0.71c0.97-0.45,1.46-3.4,1.2-5.45C635.02,806.01,634.94,805.68,634.87,805.41z M608.38,715.22
			c0.67,1.61,1.38,3.25,2.09,4.93c1.79,4.18,3.66,8.48,5.68,13.23c0.9-1.87,1.57-2.84,1.87-3.96c2.13-7.81,4.22-15.62,6.31-23.43
			s4.18-15.62,6.2-23.46c0.19-0.71,0.22-1.46,0.22-2.24c0-1.16-0.11-2.39-0.19-3.59c-0.04-0.37-0.04-0.71-0.04-1.08h-0.04
			c-0.67,0.19-1.38,0.34-2.05,0.49c-1.57,0.34-3.14,0.67-4.6,1.2c-0.52,0.15-1.01,0.34-1.46,0.56c-0.82,0.37-1.64,0.97-2.32,1.68
			c-0.19,0.15-0.37,0.34-0.52,0.52c-0.49,0.56-0.9,1.2-1.16,1.79c-0.97,2.24-1.94,4.52-2.91,6.8c-1.46,3.4-2.84,6.8-4.22,10.24
			c-1.42,3.44-2.76,6.87-4.15,10.31c-0.41,1.01-0.19,2.5,0.22,3.55C607.67,713.58,608,714.4,608.38,715.22z M608.04,749.15
			c2.69-5.34,3.21-11.06,1.61-16.18c-0.41-1.27-0.93-2.5-1.61-3.7c-0.67-1.2-1.46-2.35-2.43-3.4c-0.45-0.56-0.97-1.05-1.49-1.57
			v30.6c0.56-0.6,1.08-1.23,1.49-1.87C606.58,751.76,607.37,750.45,608.04,749.15z M290.57,743.02h91.35
			c6.09-0.82,12.18-1.68,18.27-2.8c-6.09-1.12-12.18-1.94-18.27-2.8H272.3c-6.09,0.82-12.18,1.64-18.27,2.8
			c6.09,1.2,12.18,2.02,18.27,2.84L290.57,743.02z M290.57,748.55l-18.27-0.04c-6.09,0.82-12.18,1.64-18.27,2.84
			c6.09,1.16,12.18,1.98,18.27,2.8h109.62c6.09-0.86,12.18-1.68,18.27-2.8c-6.09-1.16-12.18-1.98-18.27-2.8L290.57,748.55
			L290.57,748.55z M297.71,731.92h73.49c4.89-0.82,9.79-1.68,14.68-2.8c-4.89-1.12-9.79-1.94-14.68-2.8h-88.18
			c-4.89,0.82-9.79,1.64-14.68,2.8c4.89,1.2,9.79,2.02,14.68,2.84L297.71,731.92z M297.71,759.64l-14.68-0.04
			c-4.89,0.82-9.79,1.64-14.68,2.84c4.89,1.16,9.79,1.98,14.68,2.8h88.18c4.89-0.86,9.79-1.68,14.68-2.8
			c-4.89-1.12-9.79-1.98-14.68-2.8L297.71,759.64L297.71,759.64z M351.85,755.01h-1.91c0.11,0.04,0.26,0.07,0.37,0.07h0.04
			C350.87,755.05,351.36,755.05,351.85,755.01z M850.45,726.91c-1.35,0.22-2.17,0.37-2.84,0.49c0.67-2.69,1.79-5.01,1.72-7.25
			c-0.41-9.9-0.93-19.84-1.79-29.7c-1.31-15.39-3.29-30.6-12.11-43.98c-1.76-2.65-3.36-5.42-4.78-8.26l-11.1,0.49l-0.6,0.04
			c-0.97,0.07-1.87,0.15-2.76,0.22c-38.45,2.32-76.63,6.58-113.96,16.44c-14.65,3.85-28.92,9.23-43.19,14.38
			c-7.1,2.54-12.74,1.53-18.12-3.77c-12.55-12.4-27.13-10.98-37.4,3.44c-7.81,10.95-10.65,23.8-13.71,36.54
			c-0.78,3.21-1.72,6.43-3.06,9.45c-1.35,3.06-3.7,3.55-6.2,1.05c-1.23-1.23-2.35-2.62-3.44-3.96c-7.7-9.64-12.18-10.72-24.17-7.17
			c-14.38,4.3-28.92,8.07-43.38,12.07c-18.57,5.12-36.17,1.46-53.77-5.04c-14.38-5.31-28.99-10.5-43.9-13.71
			c-11.32-2.43-23.31-2.28-34.97-2.2c-37.59,0.26-75.14,1.23-112.69,1.57c-18.83,0.15-35.42,6.16-50.59,16.93
			c-13.94,9.9-29.22,9-44.76,5.19c-3.89-0.93-6.09-3.77-5.08-7.85c1.12-4.52,2.8-8.86,4.56-14.16c4,2.69,7.1,4.78,10.16,6.95
			c6.05,4.3,12.48,5.12,19.35,2.28c7.44-3.06,14.91-6.05,22.27-9.27c5.23-2.28,6.43-6.5,4.93-14.27c-1.05-5.23-4.82-5.31-8.78-5.31
			h-30.38c3.89-9,37.1-28.58,49.58-29.93c-5.9,6.8-11.69,13.23-12.59,23.61c1.98-1.34,3.29-1.83,4-2.76
			c14.16-17.86,34.15-26.3,54.77-33.22c10.8-3.62,20.36-8.89,29.25-15.47l-28.21,6.28c-26.68,6.58-52.87,14.42-77.19,27.69
			c-24.32,13.26-40.99,32.69-49.54,59.07c-9.27,28.43-9.6,57.31-4.22,86.42c0.56,2.99,1.35,5.94,2.17,9.12l0.6,2.28l2.73,9.94
			c26.94,0.04,53.95,0.04,80.93,0.04H251c0,0,12.85-3.36,11.84-20.74c1.01-0.15,0.86-0.07,1.61-0.07c1.91-0.04,3.85-0.07,5.75-0.11
			c1.64-0.04,3.29-0.07,4.93-0.07h0.52c14.57-0.3,29.18-0.41,43.79-0.56c25.41-0.26,50.81-0.37,76.18-0.75c0.71,0,1.42,0,2.05,0.07
			h0.04c6.73,0,16.1,0,16.1,0s1.94,15.17,9.98,22.45c18.53,0.07,37.1,0.11,55.63,0.11c5.23,0,10.46,0,15.69-0.04c0,0,0.04,0,0.07,0
			c0.15,0,0.64-0.04,1.27-0.19c2.73-0.86,8.85-4.78,10.87-23.43h7.06c4.22-0.11,8.41-0.19,12.63-0.11v-0.04h14.27
			c0,0,1.87,14.98,9.6,23.69c26.49-0.04,52.98-0.11,79.47-0.15c0,0,0,0,0.04,0c0.78-0.52,5.98-0.67,12.82-9.79
			c0.04,0,0.04-0.04,0.04-0.04c2.32-4.15,4.45-8.11,6.91-11.88c0.71-1.12,2.91-1.79,4.41-1.79c28.58-0.04,57.13,0,85.67,0.26
			l0.04-0.04h13.49c0,0,1.12,14.24,9.42,22.98c21.48-0.07,42.97-0.11,64.49-0.19c0,0,6.91-0.07,10.72-5.94
			C855.79,788.6,851.64,756.92,850.45,726.91z M197.39,780.64c-4.56,0.19-9.08,0.04-13.6,0.04v0.37c-4.03,0-8.03,0.04-12.03,0
			c-5.49-0.04-9.45-2.65-9.75-8.07c-0.64-11.28-0.64-22.57-0.34-33.85c0.15-4.26,3.21-6.43,7.77-5.27c0.67,0.15,1.35,0.45,2.02,0.56
			c12.22,1.76,20.03,8.41,23.95,20.25c1.94,5.9,5.27,11.36,7.7,17.15C205.57,777.54,203.66,780.42,197.39,780.64z M411.66,743.39
			c-6.13,7.58-12.59,14.91-19.32,21.97c-4.03,4.26-9.53,5.87-15.39,5.9c-7.44,0.04-14.83,0-22.27,0l-3.4,0.04
			c-9.04,0-14.65,0.93-23.69,0.82c-17.41-0.19-34.78-0.41-52.2-0.75c-7.88-0.15-14.38-3.18-18.61-10.16
			c-3.7-6.13-7.47-12.22-10.8-18.57c-1.98-3.77-1.31-6.24,2.09-8.63c8.52-5.98,17.11-12.07,27.72-13.94
			c2.99-0.52,6.05-0.6,9.08-0.64c26-0.26,52.01-0.3,78.01-0.78c16.89-0.3,31.68,5.98,46.22,13.41
			C414.32,734.76,415.36,738.87,411.66,743.39z M547.29,740.78c-3.7,9.23-7.77,18.31-12.14,27.2c-0.34,0.67-0.71,1.34-1.08,1.98
			c-0.41,0.67-0.82,1.31-1.31,1.91c-3.85,4.97-9.34,7.29-16.55,7.7c-9.6-0.19-19.2-0.04-28.81-0.04l-30.34,1.46
			c-7.17-0.07-9-3.06-4.78-8.63c6.8-9.08,13.71-18.16,21.6-26.19c3.77-3.85,9.71-6.43,15.09-7.7c14.95-3.51,30.08-6.09,45.17-8.97
			c1.68-0.34,3.47-0.45,5.19-0.34C546.65,729.53,549.98,734.01,547.29,740.78z M646.64,798.91c-1.53,3.47-3.4,6.91-5.64,9.98
			c-8.22,11.28-19.32,11.69-26.79,0c-5.04-7.96-9.08-17.07-11.21-26.23c-6.73-28.66-6.69-57.5,2.62-85.75
			c2.13-6.5,5.49-12.89,9.6-18.42c7.14-9.64,16.89-9.34,24.58-0.15c6.8,8.15,10.31,17.97,12.29,28.02
			c2.5,12.59,3.59,25.48,5.31,38.22C656.13,763.31,654.26,781.65,646.64,798.91z M826.42,756.28c4.26,14.38,7.1,29.22,12.14,43.3
			c2.17,6.05,1.01,9.64-2.35,13.71c-4.3,5.23-9.75,5.64-13.53,0.07c-3.47-5.12-6.43-10.95-8-16.89c-7.4-28.17-7.51-56.64-2.43-85.22
			c1.68-9.34,4.18-18.23,9.56-26.23c3.81-5.64,9-6.73,13.3-1.46c3.47,4.3,5.68,9.64,8.48,14.53c-0.52,0.26-1.01,0.49-1.53,0.75
			c-1.42-2.91-2.84-5.83-4.93-10.05c-4,19.32-7.66,37.18-11.62,56.23c8-1.72,15.39-3.33,23.46-5.08c0.19,2.02,0.37,4.3,0.64,6.91
			c-6.84,1.42-13.23,2.91-19.73,4.03C826.46,751.5,825.23,752.21,826.42,756.28z M653.06,742.72c-5.08,0.82-10.16,1.64-15.21,2.5
			c-5.04,0.82-10.05,1.64-14.95,2.47h-0.04c1.64,4.63,3.29,9.19,4.89,13.75c1.64,4.6,3.25,9.12,4.86,13.67
			c3.21,9.08,6.43,18.05,9.6,27.01c1.64-1.53,3.21-4.45,4.6-8.18c0.56-1.42,1.08-2.91,1.57-4.52c1.01-3.25,1.91-6.87,2.69-10.61
			c0.26-1.23,0.52-2.47,0.75-3.74c0.11-0.64,0.22-1.31,0.34-1.94c0.41-2.2,0.75-4.45,1.01-6.61c0.3-2.17,0.52-4.3,0.71-6.35
			c0.04-0.04,0-0.07,0-0.07c0.15-1.91,0.26-3.74,0.34-5.42c0.19-4.86-0.07-8.82-0.86-11.21
			C653.29,743.21,653.17,742.94,653.06,742.72z M647.12,696.43c-0.19-0.71-0.41-1.38-0.67-2.06c-0.71-2.02-1.64-3.92-2.69-5.87
			c-1.38-2.54-2.91-5.08-4.18-7.66c-0.41,0.19-0.82,0.37-1.23,0.56c-4,14.46-8,28.88-12.14,43.83c-1.38,4.97-2.76,9.98-4.18,15.09
			v0.04c3.59-0.6,7.06-1.2,10.46-1.76c1.12-0.19,2.28-0.37,3.4-0.56c4.52-0.75,8.97-1.49,13.41-2.13c3.89-0.56,5.6-2.39,4.82-6.31
			c-1.12-5.53-2.13-11.1-3.25-16.66C649.77,707.41,648.58,701.88,647.12,696.43z M634.87,805.41c-0.86-2.69-1.72-5.38-2.62-8.07
			c-4.26-13.19-8.67-26.3-13.15-39.38c-0.64-1.83-2.02-3.4-3.36-5.46c-0.04-0.07-0.07-0.15-0.15-0.22c-0.04-0.11-0.07-0.19-0.15-0.3
			l-0.04,0.04c-0.9,1.12-1.72,2.24-2.58,3.29c-1.68,2.17-3.29,4.18-4.78,6.2c-0.75,1.01-1.49,2.02-2.24,3.03
			c-0.26,0.34-0.45,0.78-0.56,1.23c-0.07,0.26-0.11,0.52-0.15,0.75c-0.07,0.49-0.07,1.01-0.04,1.46c0.82,6.54,1.94,12.96,3.81,19.17
			c0.45,1.57,0.97,3.1,1.53,4.6c0.56,1.53,1.16,3.03,1.83,4.52c1.34,2.99,2.91,5.87,4.75,8.67c2.02,3.06,4.97,6.05,8.22,7.62
			c2.32,1.12,6.13,0.45,8.67-0.71c0.97-0.45,1.46-3.4,1.2-5.45C635.02,806.01,634.94,805.68,634.87,805.41z M608.38,715.22
			c0.67,1.61,1.38,3.25,2.09,4.93c1.79,4.18,3.66,8.48,5.68,13.23c0.9-1.87,1.57-2.84,1.87-3.96c2.13-7.81,4.22-15.62,6.31-23.43
			s4.18-15.62,6.2-23.46c0.19-0.71,0.22-1.46,0.22-2.24c0-1.16-0.11-2.39-0.19-3.59c-0.04-0.37-0.04-0.71-0.04-1.08h-0.04
			c-0.67,0.19-1.38,0.34-2.05,0.49c-1.57,0.34-3.14,0.67-4.6,1.2c-0.52,0.15-1.01,0.34-1.46,0.56c-0.82,0.37-1.64,0.97-2.32,1.68
			c-0.19,0.15-0.37,0.34-0.52,0.52c-0.49,0.56-0.9,1.2-1.16,1.79c-0.97,2.24-1.94,4.52-2.91,6.8c-1.46,3.4-2.84,6.8-4.22,10.24
			c-1.42,3.44-2.76,6.87-4.15,10.31c-0.41,1.01-0.19,2.5,0.22,3.55C607.67,713.58,608,714.4,608.38,715.22z M608.04,749.15
			c2.69-5.34,3.21-11.06,1.61-16.18c-0.41-1.27-0.93-2.5-1.61-3.7c-0.67-1.2-1.46-2.35-2.43-3.4c-0.45-0.56-0.97-1.05-1.49-1.57
			v30.6c0.56-0.6,1.08-1.23,1.49-1.87C606.58,751.76,607.37,750.45,608.04,749.15z M272.3,737.41c-6.09,0.82-12.18,1.64-18.27,2.8
			c6.09,1.2,12.18,2.02,18.27,2.84l18.27-0.04h91.35c6.09-0.82,12.18-1.68,18.27-2.8c-6.09-1.12-12.18-1.94-18.27-2.8L272.3,737.41
			L272.3,737.41z M290.57,748.55l-18.27-0.04c-6.09,0.82-12.18,1.64-18.27,2.84c6.09,1.16,12.18,1.98,18.27,2.8h109.62
			c6.09-0.86,12.18-1.68,18.27-2.8c-6.09-1.16-12.18-1.98-18.27-2.8L290.57,748.55L290.57,748.55z M297.71,731.92h73.49
			c4.89-0.82,9.79-1.68,14.68-2.8c-4.89-1.12-9.79-1.94-14.68-2.8h-88.18c-4.89,0.82-9.79,1.64-14.68,2.8
			c4.89,1.2,9.79,2.02,14.68,2.84L297.71,731.92z M297.71,759.64l-14.68-0.04c-4.89,0.82-9.79,1.64-14.68,2.84
			c4.89,1.16,9.79,1.98,14.68,2.8h88.18c4.89-0.86,9.79-1.68,14.68-2.8c-4.89-1.12-9.79-1.98-14.68-2.8L297.71,759.64L297.71,759.64
			z M351.85,755.01h-1.91c0.11,0.04,0.26,0.07,0.37,0.07h0.04C350.87,755.05,351.36,755.05,351.85,755.01z M349.94,755.01
			c0.11,0.04,0.26,0.07,0.37,0.07h0.04c0.52-0.04,1.01-0.04,1.5-0.07H349.94z M371.2,759.64h-73.49l-14.68-0.04
			c-4.89,0.82-9.79,1.64-14.68,2.84c4.89,1.16,9.79,1.98,14.68,2.8h88.18c4.89-0.86,9.79-1.68,14.68-2.8
			C380.99,761.33,376.09,760.47,371.2,759.64z M371.2,726.32h-88.18c-4.89,0.82-9.79,1.64-14.68,2.8c4.89,1.2,9.79,2.02,14.68,2.84
			l14.68-0.04h73.49c4.89-0.82,9.79-1.68,14.68-2.8C380.99,728,376.09,727.18,371.2,726.32z M381.92,748.55h-91.35l-18.27-0.04
			c-6.09,0.82-12.18,1.64-18.27,2.84c6.09,1.16,12.18,1.98,18.27,2.8h109.62c6.09-0.86,12.18-1.68,18.27-2.8
			C394.1,750.19,388.01,749.37,381.92,748.55z M381.92,737.41H272.3c-6.09,0.82-12.18,1.64-18.27,2.8
			c6.09,1.2,12.18,2.02,18.27,2.84l18.27-0.04h91.35c6.09-0.82,12.18-1.68,18.27-2.8C394.1,739.1,388.01,738.27,381.92,737.41z
			 M381.92,737.41H272.3c-6.09,0.82-12.18,1.64-18.27,2.8c6.09,1.2,12.18,2.02,18.27,2.84l18.27-0.04h91.35
			c6.09-0.82,12.18-1.68,18.27-2.8C394.1,739.1,388.01,738.27,381.92,737.41z M381.92,748.55h-91.35l-18.27-0.04
			c-6.09,0.82-12.18,1.64-18.27,2.84c6.09,1.16,12.18,1.98,18.27,2.8h109.62c6.09-0.86,12.18-1.68,18.27-2.8
			C394.1,750.19,388.01,749.37,381.92,748.55z M371.2,726.32h-88.18c-4.89,0.82-9.79,1.64-14.68,2.8c4.89,1.2,9.79,2.02,14.68,2.84
			l14.68-0.04h73.49c4.89-0.82,9.79-1.68,14.68-2.8C380.99,728,376.09,727.18,371.2,726.32z M371.2,759.64h-73.49l-14.68-0.04
			c-4.89,0.82-9.79,1.64-14.68,2.84c4.89,1.16,9.79,1.98,14.68,2.8h88.18c4.89-0.86,9.79-1.68,14.68-2.8
			C380.99,761.33,376.09,760.47,371.2,759.64z M349.94,755.01c0.11,0.04,0.26,0.07,0.37,0.07h0.04c0.52-0.04,1.01-0.04,1.5-0.07
			H349.94z M349.94,755.01c0.11,0.04,0.26,0.07,0.37,0.07h0.04c0.52-0.04,1.01-0.04,1.5-0.07H349.94z M371.2,759.64h-73.49
			l-14.68-0.04c-4.89,0.82-9.79,1.64-14.68,2.84c4.89,1.16,9.79,1.98,14.68,2.8h88.18c4.89-0.86,9.79-1.68,14.68-2.8
			C380.99,761.33,376.09,760.47,371.2,759.64z M371.2,726.32h-88.18c-4.89,0.82-9.79,1.64-14.68,2.8c4.89,1.2,9.79,2.02,14.68,2.84
			l14.68-0.04h73.49c4.89-0.82,9.79-1.68,14.68-2.8C380.99,728,376.09,727.18,371.2,726.32z M381.92,748.55h-91.35l-18.27-0.04
			c-6.09,0.82-12.18,1.64-18.27,2.84c6.09,1.16,12.18,1.98,18.27,2.8h109.62c6.09-0.86,12.18-1.68,18.27-2.8
			C394.1,750.19,388.01,749.37,381.92,748.55z M381.92,737.41H272.3c-6.09,0.82-12.18,1.64-18.27,2.8
			c6.09,1.2,12.18,2.02,18.27,2.84l18.27-0.04h91.35c6.09-0.82,12.18-1.68,18.27-2.8C394.1,739.1,388.01,738.27,381.92,737.41z
			 M381.92,737.41H272.3c-6.09,0.82-12.18,1.64-18.27,2.8c6.09,1.2,12.18,2.02,18.27,2.84l18.27-0.04h91.35
			c6.09-0.82,12.18-1.68,18.27-2.8C394.1,739.1,388.01,738.27,381.92,737.41z M381.92,748.55h-91.35l-18.27-0.04
			c-6.09,0.82-12.18,1.64-18.27,2.84c6.09,1.16,12.18,1.98,18.27,2.8h109.62c6.09-0.86,12.18-1.68,18.27-2.8
			C394.1,750.19,388.01,749.37,381.92,748.55z M371.2,726.32h-88.18c-4.89,0.82-9.79,1.64-14.68,2.8c4.89,1.2,9.79,2.02,14.68,2.84
			l14.68-0.04h73.49c4.89-0.82,9.79-1.68,14.68-2.8C380.99,728,376.09,727.18,371.2,726.32z M371.2,759.64h-73.49l-14.68-0.04
			c-4.89,0.82-9.79,1.64-14.68,2.84c4.89,1.16,9.79,1.98,14.68,2.8h88.18c4.89-0.86,9.79-1.68,14.68-2.8
			C380.99,761.33,376.09,760.47,371.2,759.64z M349.94,755.01c0.11,0.04,0.26,0.07,0.37,0.07h0.04c0.52-0.04,1.01-0.04,1.5-0.07
			H349.94z"/>
		
			<linearGradient id="SVGID_5_" gradientUnits="userSpaceOnUse" x1="63.8384" y1="537.8267" x2="768.8194" y2="-167.1544" gradientTransform="matrix(1 0 0 -1 0 1000)">
			<stop  offset="0" style="stop-color:#999FAF"/>
			<stop  offset="0.1651" style="stop-color:#979DAC"/>
			<stop  offset="0.2643" style="stop-color:#9195A4"/>
			<stop  offset="0.3462" style="stop-color:#878996"/>
			<stop  offset="0.4186" style="stop-color:#787782"/>
			<stop  offset="0.4841" style="stop-color:#656068"/>
			<stop  offset="0.5" style="stop-color:#605960"/>
			<stop  offset="0.5159" style="stop-color:#656068"/>
			<stop  offset="0.5814" style="stop-color:#787782"/>
			<stop  offset="0.6538" style="stop-color:#878996"/>
			<stop  offset="0.7357" style="stop-color:#9195A4"/>
			<stop  offset="0.8349" style="stop-color:#979DAC"/>
			<stop  offset="1" style="stop-color:#999FAF"/>
		</linearGradient>
		<path class="st5" d="M362.72,759.64c-0.75,0.04-1.46,0.07-2.2,0.11c-0.04,0-0.07,0-0.07,0c-0.19,0-0.37-0.04-0.56-0.11H362.72z"/>
		
			<linearGradient id="SVGID_6_" gradientUnits="userSpaceOnUse" x1="53.6684" y1="527.6566" x2="758.6494" y2="-177.3244" gradientTransform="matrix(1 0 0 -1 0 1000)">
			<stop  offset="0" style="stop-color:#999FAF"/>
			<stop  offset="0.1651" style="stop-color:#979DAC"/>
			<stop  offset="0.2643" style="stop-color:#9195A4"/>
			<stop  offset="0.3462" style="stop-color:#878996"/>
			<stop  offset="0.4186" style="stop-color:#787782"/>
			<stop  offset="0.4841" style="stop-color:#656068"/>
			<stop  offset="0.5" style="stop-color:#605960"/>
			<stop  offset="0.5159" style="stop-color:#656068"/>
			<stop  offset="0.5814" style="stop-color:#787782"/>
			<stop  offset="0.6538" style="stop-color:#878996"/>
			<stop  offset="0.7357" style="stop-color:#9195A4"/>
			<stop  offset="0.8349" style="stop-color:#979DAC"/>
			<stop  offset="1" style="stop-color:#999FAF"/>
		</linearGradient>
		<path class="st6" d="M290.57,743.02h91.35c6.09-0.82,12.18-1.68,18.27-2.8c-6.09-1.12-12.18-1.94-18.27-2.8H272.3
			c-6.09,0.82-12.18,1.64-18.27,2.8c6.09,1.2,12.18,2.02,18.27,2.84L290.57,743.02z M290.57,748.55l-18.27-0.04
			c-6.09,0.82-12.18,1.64-18.27,2.84c6.09,1.16,12.18,1.98,18.27,2.8h109.62c6.09-0.86,12.18-1.68,18.27-2.8
			c-6.09-1.16-12.18-1.98-18.27-2.8L290.57,748.55L290.57,748.55z M297.71,731.92h73.49c4.89-0.82,9.79-1.68,14.68-2.8
			c-4.89-1.12-9.79-1.94-14.68-2.8h-88.18c-4.89,0.82-9.79,1.64-14.68,2.8c4.89,1.2,9.79,2.02,14.68,2.84L297.71,731.92z
			 M297.71,759.64l-14.68-0.04c-4.89,0.82-9.79,1.64-14.68,2.84c4.89,1.16,9.79,1.98,14.68,2.8h88.18c4.89-0.86,9.79-1.68,14.68-2.8
			c-4.89-1.12-9.79-1.98-14.68-2.8L297.71,759.64L297.71,759.64z"/>
		
			<linearGradient id="SVGID_7_" gradientUnits="userSpaceOnUse" x1="53.6684" y1="527.6566" x2="758.6494" y2="-177.3244" gradientTransform="matrix(1 0 0 -1 0 1000)">
			<stop  offset="0" style="stop-color:#999FAF"/>
			<stop  offset="0.1651" style="stop-color:#979DAC"/>
			<stop  offset="0.2643" style="stop-color:#9195A4"/>
			<stop  offset="0.3462" style="stop-color:#878996"/>
			<stop  offset="0.4186" style="stop-color:#787782"/>
			<stop  offset="0.4841" style="stop-color:#656068"/>
			<stop  offset="0.5" style="stop-color:#605960"/>
			<stop  offset="0.5159" style="stop-color:#656068"/>
			<stop  offset="0.5814" style="stop-color:#787782"/>
			<stop  offset="0.6538" style="stop-color:#878996"/>
			<stop  offset="0.7357" style="stop-color:#9195A4"/>
			<stop  offset="0.8349" style="stop-color:#979DAC"/>
			<stop  offset="1" style="stop-color:#999FAF"/>
		</linearGradient>
		<path class="st7" d="M283.02,726.32h88.18c4.89,0.86,9.79,1.68,14.68,2.8c-4.89,1.12-9.79,1.98-14.68,2.8h-73.49l-14.68,0.04
			c-4.89-0.82-9.79-1.64-14.68-2.84C273.23,727.96,278.13,727.14,283.02,726.32z M371.2,765.25h-88.18
			c-4.89-0.82-9.79-1.64-14.68-2.8c4.89-1.2,9.79-2.02,14.68-2.84l14.68,0.04h73.49c4.89,0.82,9.79,1.68,14.68,2.8
			C380.99,763.57,376.09,764.39,371.2,765.25z M349.94,755.01h1.91c-0.49,0.04-0.97,0.04-1.5,0.07h-0.04
			C350.2,755.09,350.05,755.05,349.94,755.01z M381.92,754.15H272.3c-6.09-0.82-12.18-1.64-18.27-2.8
			c6.09-1.2,12.18-2.02,18.27-2.84l18.27,0.04h91.35c6.09,0.82,12.18,1.64,18.27,2.8C394.1,752.47,388.01,753.29,381.92,754.15z
			 M381.92,743.02h-91.35l-18.27,0.04c-6.09-0.82-12.18-1.64-18.27-2.84c6.09-1.16,12.18-1.98,18.27-2.8h109.62
			c6.09,0.86,12.18,1.68,18.27,2.8C394.1,741.34,388.01,742.2,381.92,743.02z"/>
		
			<linearGradient id="SVGID_8_" gradientUnits="userSpaceOnUse" x1="137.3884" y1="611.3766" x2="842.3694" y2="-93.6044" gradientTransform="matrix(1 0 0 -1 0 1000)">
			<stop  offset="0" style="stop-color:#999FAF"/>
			<stop  offset="0.1651" style="stop-color:#979DAC"/>
			<stop  offset="0.2643" style="stop-color:#9195A4"/>
			<stop  offset="0.3462" style="stop-color:#878996"/>
			<stop  offset="0.4186" style="stop-color:#787782"/>
			<stop  offset="0.4841" style="stop-color:#656068"/>
			<stop  offset="0.5" style="stop-color:#605960"/>
			<stop  offset="0.5159" style="stop-color:#656068"/>
			<stop  offset="0.5814" style="stop-color:#787782"/>
			<stop  offset="0.6538" style="stop-color:#878996"/>
			<stop  offset="0.7357" style="stop-color:#9195A4"/>
			<stop  offset="0.8349" style="stop-color:#979DAC"/>
			<stop  offset="1" style="stop-color:#999FAF"/>
		</linearGradient>
		<path class="st8" d="M532.75,771.86c-3.81,5.16-9.34,7.81-16.55,7.7C523.41,779.15,528.91,776.83,532.75,771.86z"/>
		
			<linearGradient id="SVGID_9_" gradientUnits="userSpaceOnUse" x1="222.4333" y1="696.4216" x2="927.4144" y2="-8.5595" gradientTransform="matrix(1 0 0 -1 0 1000)">
			<stop  offset="0" style="stop-color:#999FAF"/>
			<stop  offset="0.1651" style="stop-color:#979DAC"/>
			<stop  offset="0.2643" style="stop-color:#9195A4"/>
			<stop  offset="0.3462" style="stop-color:#878996"/>
			<stop  offset="0.4186" style="stop-color:#787782"/>
			<stop  offset="0.4841" style="stop-color:#656068"/>
			<stop  offset="0.5" style="stop-color:#605960"/>
			<stop  offset="0.5159" style="stop-color:#656068"/>
			<stop  offset="0.5814" style="stop-color:#787782"/>
			<stop  offset="0.6538" style="stop-color:#878996"/>
			<stop  offset="0.7357" style="stop-color:#9195A4"/>
			<stop  offset="0.8349" style="stop-color:#979DAC"/>
			<stop  offset="1" style="stop-color:#999FAF"/>
		</linearGradient>
		<path class="st9" d="M607.33,712.75c-0.41-1.05-0.63-2.54-0.22-3.55c2.73-6.87,5.49-13.75,8.37-20.55
			c0.97-2.28,1.94-4.56,2.91-6.8c0.26-0.6,0.67-1.23,1.16-1.79c0.19-0.19,0.34-0.37,0.52-0.52c0.67-0.71,1.49-1.31,2.32-1.68
			c1.87-0.86,3.96-1.31,6.05-1.76c0.67-0.15,1.38-0.3,2.05-0.49h0.04c0,0.37,0,0.71,0.04,1.08c0.07,1.2,0.19,2.43,0.19,3.59
			c0,0.78-0.04,1.53-0.22,2.24c-2.02,7.85-4.11,15.65-6.2,23.46s-4.18,15.62-6.31,23.43c-0.3,1.12-0.97,2.09-1.87,3.96
			c-2.02-4.74-3.89-9.04-5.68-13.23c-0.71-1.64-1.42-3.29-2.09-4.93C608,714.4,607.67,713.58,607.33,712.75z"/>
		
			<linearGradient id="SVGID_10_" gradientUnits="userSpaceOnUse" x1="195.2675" y1="669.2557" x2="900.2484" y2="-35.7253" gradientTransform="matrix(1 0 0 -1 0 1000)">
			<stop  offset="0" style="stop-color:#999FAF"/>
			<stop  offset="0.1651" style="stop-color:#979DAC"/>
			<stop  offset="0.2643" style="stop-color:#9195A4"/>
			<stop  offset="0.3462" style="stop-color:#878996"/>
			<stop  offset="0.4186" style="stop-color:#787782"/>
			<stop  offset="0.4841" style="stop-color:#656068"/>
			<stop  offset="0.5" style="stop-color:#605960"/>
			<stop  offset="0.5159" style="stop-color:#656068"/>
			<stop  offset="0.5814" style="stop-color:#787782"/>
			<stop  offset="0.6538" style="stop-color:#878996"/>
			<stop  offset="0.7357" style="stop-color:#9195A4"/>
			<stop  offset="0.8349" style="stop-color:#979DAC"/>
			<stop  offset="1" style="stop-color:#999FAF"/>
		</linearGradient>
		<path class="st10" d="M605.61,753.03c-0.41,0.64-0.93,1.27-1.49,1.87v-30.6c0.52,0.52,1.05,1.01,1.49,1.57
			c0.97,1.05,1.76,2.2,2.43,3.4s1.2,2.43,1.61,3.7c1.61,5.12,1.08,10.84-1.61,16.18C607.37,750.45,606.58,751.76,605.61,753.03z"/>
		
			<linearGradient id="SVGID_11_" gradientUnits="userSpaceOnUse" x1="181.6957" y1="655.6838" x2="886.6766" y2="-49.2972" gradientTransform="matrix(1 0 0 -1 0 1000)">
			<stop  offset="0" style="stop-color:#999FAF"/>
			<stop  offset="0.1651" style="stop-color:#979DAC"/>
			<stop  offset="0.2643" style="stop-color:#9195A4"/>
			<stop  offset="0.3462" style="stop-color:#878996"/>
			<stop  offset="0.4186" style="stop-color:#787782"/>
			<stop  offset="0.4841" style="stop-color:#656068"/>
			<stop  offset="0.5" style="stop-color:#605960"/>
			<stop  offset="0.5159" style="stop-color:#656068"/>
			<stop  offset="0.5814" style="stop-color:#787782"/>
			<stop  offset="0.6538" style="stop-color:#878996"/>
			<stop  offset="0.7357" style="stop-color:#9195A4"/>
			<stop  offset="0.8349" style="stop-color:#979DAC"/>
			<stop  offset="1" style="stop-color:#999FAF"/>
		</linearGradient>
		<path class="st11" d="M635.05,806.39c0.26,2.05-0.22,5.01-1.2,5.45c-2.54,1.16-6.35,1.83-8.67,0.71c-3.25-1.57-6.2-4.56-8.22-7.62
			c-1.83-2.8-3.4-5.68-4.75-8.67c-0.67-1.49-1.27-2.99-1.83-4.52c-0.56-1.49-1.08-3.03-1.53-4.6c-1.87-6.2-2.99-12.63-3.81-19.17
			c-0.04-0.45-0.04-0.97,0.04-1.46c0.04-0.22,0.07-0.49,0.15-0.75c0.11-0.45,0.3-0.9,0.56-1.23c0.75-1.01,1.49-2.02,2.24-3.03
			c1.5-2.02,3.1-4.04,4.78-6.2c0.86-1.05,1.68-2.17,2.58-3.29l0.04-0.04c0.11,0.19,0.22,0.34,0.3,0.52
			c1.35,2.06,2.73,3.62,3.36,5.46c4.48,13.08,8.89,26.19,13.15,39.38c0.9,2.69,1.76,5.38,2.62,8.07
			C634.94,805.68,635.02,806.01,635.05,806.39z"/>
		
			<linearGradient id="SVGID_12_" gradientUnits="userSpaceOnUse" x1="200.6184" y1="674.6066" x2="905.5994" y2="-30.3744" gradientTransform="matrix(1 0 0 -1 0 1000)">
			<stop  offset="0" style="stop-color:#999FAF"/>
			<stop  offset="0.1651" style="stop-color:#979DAC"/>
			<stop  offset="0.2643" style="stop-color:#9195A4"/>
			<stop  offset="0.3462" style="stop-color:#878996"/>
			<stop  offset="0.4186" style="stop-color:#787782"/>
			<stop  offset="0.4841" style="stop-color:#656068"/>
			<stop  offset="0.5" style="stop-color:#605960"/>
			<stop  offset="0.5159" style="stop-color:#656068"/>
			<stop  offset="0.5814" style="stop-color:#787782"/>
			<stop  offset="0.6538" style="stop-color:#878996"/>
			<stop  offset="0.7357" style="stop-color:#9195A4"/>
			<stop  offset="0.8349" style="stop-color:#979DAC"/>
			<stop  offset="1" style="stop-color:#999FAF"/>
		</linearGradient>
		<path class="st12" d="M654.27,752.5c-0.02,2.32-0.15,4.89-0.39,7.59c0,0,0.04,0.04,0,0.07c-0.34,4.11-0.93,8.52-1.72,12.96
			c-0.11,0.64-0.22,1.31-0.34,1.94c-0.22,1.27-0.49,2.5-0.75,3.74c-0.78,3.74-1.68,7.36-2.69,10.61c-0.49,1.61-1.01,3.1-1.57,4.52
			c-1.38,3.74-2.95,6.65-4.6,8.18c-3.18-8.97-6.39-17.93-9.6-27.01c-3.21-9.08-6.46-18.2-9.75-27.42h0.04
			c4.89-0.82,9.9-1.64,14.95-2.47c5.04-0.86,10.13-1.68,15.21-2.5c0.11,0.22,0.22,0.49,0.3,0.75
			C654.01,745.48,654.3,748.64,654.27,752.5z"/>
		
			<linearGradient id="SVGID_13_" gradientUnits="userSpaceOnUse" x1="223.1009" y1="697.0891" x2="928.0819" y2="-7.8918" gradientTransform="matrix(1 0 0 -1 0 1000)">
			<stop  offset="0" style="stop-color:#999FAF"/>
			<stop  offset="0.1651" style="stop-color:#979DAC"/>
			<stop  offset="0.2643" style="stop-color:#9195A4"/>
			<stop  offset="0.3462" style="stop-color:#878996"/>
			<stop  offset="0.4186" style="stop-color:#787782"/>
			<stop  offset="0.4841" style="stop-color:#656068"/>
			<stop  offset="0.5" style="stop-color:#605960"/>
			<stop  offset="0.5159" style="stop-color:#656068"/>
			<stop  offset="0.5814" style="stop-color:#787782"/>
			<stop  offset="0.6538" style="stop-color:#878996"/>
			<stop  offset="0.7357" style="stop-color:#9195A4"/>
			<stop  offset="0.8349" style="stop-color:#979DAC"/>
			<stop  offset="1" style="stop-color:#999FAF"/>
		</linearGradient>
		<path class="st13" d="M626.2,725.23c4.15-14.95,8.14-29.37,12.14-43.83c0.41-0.19,0.82-0.37,1.23-0.56
			c1.27,2.58,2.8,5.12,4.18,7.66c1.05,1.94,1.98,3.85,2.69,5.87c0.26,0.67,0.49,1.35,0.67,2.06c1.46,5.45,2.65,10.98,3.74,16.51
			c1.12,5.57,2.13,11.13,3.25,16.66c0.78,3.92-0.93,5.75-4.82,6.31c-4.45,0.64-8.89,1.38-13.41,2.13
			c-4.52,0.75-9.08,1.53-13.86,2.32v-0.04C623.43,735.25,624.82,730.2,626.2,725.23z"/>
		
			<linearGradient id="SVGID_14_" gradientUnits="userSpaceOnUse" x1="208.9883" y1="682.9766" x2="913.9694" y2="-22.0044" gradientTransform="matrix(1 0 0 -1 0 1000)">
			<stop  offset="0" style="stop-color:#999FAF"/>
			<stop  offset="0.1651" style="stop-color:#979DAC"/>
			<stop  offset="0.2643" style="stop-color:#9195A4"/>
			<stop  offset="0.3462" style="stop-color:#878996"/>
			<stop  offset="0.4186" style="stop-color:#787782"/>
			<stop  offset="0.4841" style="stop-color:#656068"/>
			<stop  offset="0.5" style="stop-color:#605960"/>
			<stop  offset="0.5159" style="stop-color:#656068"/>
			<stop  offset="0.5814" style="stop-color:#787782"/>
			<stop  offset="0.6538" style="stop-color:#878996"/>
			<stop  offset="0.7357" style="stop-color:#9195A4"/>
			<stop  offset="0.8349" style="stop-color:#979DAC"/>
			<stop  offset="1" style="stop-color:#999FAF"/>
		</linearGradient>
		<path class="st14" d="M653.36,743.47c0.65,2.01,0.94,5.18,0.91,9.03C654.3,748.64,654.01,745.48,653.36,743.47z M653.88,760.09
			c0.24-2.71,0.37-5.28,0.39-7.59C654.25,754.81,654.12,757.38,653.88,760.09z M653.88,760.17c-0.37,4.11-0.97,8.56-1.72,12.96
			C652.95,768.69,653.55,764.28,653.88,760.17z M646.45,694.37c0.22,0.67,0.45,1.35,0.64,2.02c1.46,5.45,2.65,10.98,3.77,16.55
			c-1.08-5.53-2.28-11.06-3.74-16.51C646.93,695.72,646.71,695.04,646.45,694.37z M646.45,694.37c-0.71-2.02-1.64-3.92-2.69-5.87
			C644.77,690.41,645.74,692.35,646.45,694.37z M632.25,797.34c0.86,2.65,1.72,5.34,2.58,8.03c0.11,0.3,0.19,0.64,0.22,1.01
			c-0.04-0.37-0.11-0.71-0.19-0.97C634.01,802.72,633.15,800.03,632.25,797.34z M630.76,680.29c0,0.75-0.07,1.53-0.26,2.24
			c-2.02,7.85-4.07,15.65-6.16,23.46c2.09-7.81,4.18-15.62,6.2-23.46C630.72,681.82,630.76,681.07,630.76,680.29z M630.53,675.62
			h-0.04c0,0.37,0.04,0.71,0.07,1.08C630.53,676.33,630.53,675.99,630.53,675.62z M622.01,740.37c4.78-0.78,9.34-1.57,13.86-2.32
			c-4.52,0.75-9.12,1.49-13.86,2.28V740.37z M615.4,752.02c0.15,0.19,0.22,0.34,0.34,0.49c-0.07-0.19-0.19-0.34-0.3-0.52
			L615.4,752.02z M605.61,725.87c0.97,1.08,1.76,2.2,2.43,3.4C607.37,728.07,606.58,726.91,605.61,725.87z"/>
		
			<linearGradient id="SVGID_15_" gradientUnits="userSpaceOnUse" x1="304.8983" y1="778.8867" x2="1009.8795" y2="73.9056" gradientTransform="matrix(1 0 0 -1 0 1000)">
			<stop  offset="0" style="stop-color:#999FAF"/>
			<stop  offset="0.1651" style="stop-color:#979DAC"/>
			<stop  offset="0.2643" style="stop-color:#9195A4"/>
			<stop  offset="0.3462" style="stop-color:#878996"/>
			<stop  offset="0.4186" style="stop-color:#787782"/>
			<stop  offset="0.4841" style="stop-color:#656068"/>
			<stop  offset="0.5" style="stop-color:#605960"/>
			<stop  offset="0.5159" style="stop-color:#656068"/>
			<stop  offset="0.5814" style="stop-color:#787782"/>
			<stop  offset="0.6538" style="stop-color:#878996"/>
			<stop  offset="0.7357" style="stop-color:#9195A4"/>
			<stop  offset="0.8349" style="stop-color:#979DAC"/>
			<stop  offset="1" style="stop-color:#999FAF"/>
		</linearGradient>
		<path class="st15" d="M825.38,767.15c0.37,1.16,0.71,2.32,1.01,3.47c0.56,2.2,1.12,4.41,1.64,6.61c-0.52-2.2-1.05-4.41-1.61-6.58
			C826.12,769.51,825.79,768.35,825.38,767.15z M827.77,711c-1.72,8.89-3.44,17.82-5.19,26.98c0.04,0,0.04,0.04,0.04,0.04
			C824.37,728.86,826.09,719.89,827.77,711z M821.19,755.87c0.52,1.42,1.01,2.76,1.53,4.04c-0.49-1.31-0.97-2.65-1.49-4.07
			C821.23,755.83,821.23,755.87,821.19,755.87z M816.34,751.2c1.64-5.19,1.46-10.35-0.63-15.21
			C817.76,740.85,817.98,746.01,816.34,751.2z M815.7,735.99c-0.67-1.61-1.57-3.21-2.69-4.75
			C814.09,732.78,814.99,734.39,815.7,735.99z"/>
		
			<linearGradient id="SVGID_16_" gradientUnits="userSpaceOnUse" x1="210.5372" y1="684.5254" x2="915.5181" y2="-20.4557" gradientTransform="matrix(1 0 0 -1 0 1000)">
			<stop  offset="0" style="stop-color:#999FAF"/>
			<stop  offset="0.1651" style="stop-color:#979DAC"/>
			<stop  offset="0.2643" style="stop-color:#9195A4"/>
			<stop  offset="0.3462" style="stop-color:#878996"/>
			<stop  offset="0.4186" style="stop-color:#787782"/>
			<stop  offset="0.4841" style="stop-color:#656068"/>
			<stop  offset="0.5" style="stop-color:#605960"/>
			<stop  offset="0.5159" style="stop-color:#656068"/>
			<stop  offset="0.5814" style="stop-color:#787782"/>
			<stop  offset="0.6538" style="stop-color:#878996"/>
			<stop  offset="0.7357" style="stop-color:#9195A4"/>
			<stop  offset="0.8349" style="stop-color:#979DAC"/>
			<stop  offset="1" style="stop-color:#999FAF"/>
		</linearGradient>
		<path class="st16" d="M645.64,568.14c-2.95,10.01-5.34,20.21-7.25,30.49c-2.35,12.37-5.23,15.06-18.08,15.24
			c-46.11,0.67-92.25,1.38-138.35,2.09c-1.91,0.04-3.81,0-5.75,0c0-0.15,0-0.34-0.04-0.52c-48.31,2.09-96.66,4.18-145,6.13
			c-2.35,0.11-4.78-1.01-7.17-1.57c0.93-2.65,1.16-6.05,2.95-7.77c17.07-16.03,34.82-31.27,55.22-43.08
			c8.41-4.89,17.75-6.2,27.2-6.73c76.59-4.48,153.22-6.35,229.93-3.74C647.74,558.99,648.04,560.03,645.64,568.14z"/>
		
			<linearGradient id="SVGID_17_" gradientUnits="userSpaceOnUse" x1="320.6476" y1="794.6359" x2="1025.6285" y2="89.6549" gradientTransform="matrix(1 0 0 -1 0 1000)">
			<stop  offset="0" style="stop-color:#999FAF"/>
			<stop  offset="0.1651" style="stop-color:#979DAC"/>
			<stop  offset="0.2643" style="stop-color:#9195A4"/>
			<stop  offset="0.3462" style="stop-color:#878996"/>
			<stop  offset="0.4186" style="stop-color:#787782"/>
			<stop  offset="0.4841" style="stop-color:#656068"/>
			<stop  offset="0.5" style="stop-color:#605960"/>
			<stop  offset="0.5159" style="stop-color:#656068"/>
			<stop  offset="0.5814" style="stop-color:#787782"/>
			<stop  offset="0.6538" style="stop-color:#878996"/>
			<stop  offset="0.7357" style="stop-color:#9195A4"/>
			<stop  offset="0.8349" style="stop-color:#979DAC"/>
			<stop  offset="1" style="stop-color:#999FAF"/>
		</linearGradient>
		<path class="st17" d="M758.96,600.23c-4.74,4.15-10.2,8.41-16.07,10.2c-8.56,2.58-17.82,3.03-26.79,4.41
			c-2.91,0.45-4.04-0.78-4.11-3.74c-0.26-13.3-1.49-12.52-13.45-12.44c-9.27,0.04-18.53,0.34-27.76,0.75
			c-3.25,0.11-6.46,0.9-10.61,1.49c0.37-10.61,1.05-21.3,5.9-30.94c3.77-7.4,10.65-11.25,18.94-12.55
			c23.46-3.74,43.9,2.65,61.57,18.31c4.41,3.92,8.71,8.07,12.59,12.52C763.04,592.58,763.26,596.42,758.96,600.23z"/>
		
			<linearGradient id="SVGID_18_" gradientUnits="userSpaceOnUse" x1="206.7433" y1="680.7316" x2="911.7244" y2="-24.2494" gradientTransform="matrix(1 0 0 -1 0 1000)">
			<stop  offset="0" style="stop-color:#999FAF"/>
			<stop  offset="0.1651" style="stop-color:#979DAC"/>
			<stop  offset="0.2643" style="stop-color:#9195A4"/>
			<stop  offset="0.3462" style="stop-color:#878996"/>
			<stop  offset="0.4186" style="stop-color:#787782"/>
			<stop  offset="0.4841" style="stop-color:#656068"/>
			<stop  offset="0.5" style="stop-color:#605960"/>
			<stop  offset="0.5159" style="stop-color:#656068"/>
			<stop  offset="0.5814" style="stop-color:#787782"/>
			<stop  offset="0.6538" style="stop-color:#878996"/>
			<stop  offset="0.7357" style="stop-color:#9195A4"/>
			<stop  offset="0.8349" style="stop-color:#979DAC"/>
			<stop  offset="1" style="stop-color:#999FAF"/>
		</linearGradient>
		<path class="st18" d="M608.43,627.77c-50.4,8.82-100.24,19.58-147.62,39.83c-0.41-0.67-0.82-1.38-1.23-2.05
			c1.83-1.83,3.44-3.89,5.46-5.42c12.4-9.45,26.79-14.95,41.51-19.32c25.41-7.55,51.52-10.76,77.86-12.59
			c7.96-0.52,15.92-1.12,23.87-1.68C608.32,626.95,608.39,627.36,608.43,627.77z"/>
		
			<linearGradient id="SVGID_19_" gradientUnits="userSpaceOnUse" x1="293.1758" y1="767.1641" x2="998.1569" y2="62.183" gradientTransform="matrix(1 0 0 -1 0 1000)">
			<stop  offset="0" style="stop-color:#999FAF"/>
			<stop  offset="0.1651" style="stop-color:#979DAC"/>
			<stop  offset="0.2643" style="stop-color:#9195A4"/>
			<stop  offset="0.3462" style="stop-color:#878996"/>
			<stop  offset="0.4186" style="stop-color:#787782"/>
			<stop  offset="0.4841" style="stop-color:#656068"/>
			<stop  offset="0.5" style="stop-color:#605960"/>
			<stop  offset="0.5159" style="stop-color:#656068"/>
			<stop  offset="0.5814" style="stop-color:#787782"/>
			<stop  offset="0.6538" style="stop-color:#878996"/>
			<stop  offset="0.7357" style="stop-color:#9195A4"/>
			<stop  offset="0.8349" style="stop-color:#979DAC"/>
			<stop  offset="1" style="stop-color:#999FAF"/>
		</linearGradient>
		<path class="st19" d="M709.4,626.52c-18.43,10.05-35.72,11.29-40.38,4.54C681.99,629.64,695.91,628.08,709.4,626.52z"/>
		
			<linearGradient id="SVGID_20_" gradientUnits="userSpaceOnUse" x1="200.6184" y1="674.6066" x2="905.5994" y2="-30.3744" gradientTransform="matrix(1 0 0 -1 0 1000)">
			<stop  offset="0" style="stop-color:#999FAF"/>
			<stop  offset="0.1651" style="stop-color:#979DAC"/>
			<stop  offset="0.2643" style="stop-color:#9195A4"/>
			<stop  offset="0.3462" style="stop-color:#878996"/>
			<stop  offset="0.4186" style="stop-color:#787782"/>
			<stop  offset="0.4841" style="stop-color:#656068"/>
			<stop  offset="0.5" style="stop-color:#605960"/>
			<stop  offset="0.5159" style="stop-color:#656068"/>
			<stop  offset="0.5814" style="stop-color:#787782"/>
			<stop  offset="0.6538" style="stop-color:#878996"/>
			<stop  offset="0.7357" style="stop-color:#9195A4"/>
			<stop  offset="0.8349" style="stop-color:#979DAC"/>
			<stop  offset="1" style="stop-color:#999FAF"/>
		</linearGradient>
		<path class="st20" d="M654.27,752.5c-0.02,2.32-0.15,4.89-0.39,7.59c0,0,0.04,0.04,0,0.07c-0.34,4.11-0.93,8.52-1.72,12.96
			c-0.11,0.64-0.22,1.31-0.34,1.94c-0.22,1.27-0.49,2.5-0.75,3.74c-0.78,3.74-1.68,7.36-2.69,10.61c-0.49,1.61-1.01,3.1-1.57,4.52
			c-1.38,3.74-2.95,6.65-4.6,8.18c-3.18-8.97-6.39-17.93-9.6-27.01c-3.21-9.04-6.43-18.2-9.71-27.42c4.89-0.82,9.9-1.64,14.95-2.47
			c5.04-0.82,10.13-1.64,15.21-2.5c0.11,0.22,0.22,0.49,0.3,0.75C654.01,745.48,654.3,748.64,654.27,752.5z"/>
		
			<linearGradient id="SVGID_21_" gradientUnits="userSpaceOnUse" x1="223.0984" y1="697.0866" x2="928.0794" y2="-7.8943" gradientTransform="matrix(1 0 0 -1 0 1000)">
			<stop  offset="0" style="stop-color:#999FAF"/>
			<stop  offset="0.1651" style="stop-color:#979DAC"/>
			<stop  offset="0.2643" style="stop-color:#9195A4"/>
			<stop  offset="0.3462" style="stop-color:#878996"/>
			<stop  offset="0.4186" style="stop-color:#787782"/>
			<stop  offset="0.4841" style="stop-color:#656068"/>
			<stop  offset="0.5" style="stop-color:#605960"/>
			<stop  offset="0.5159" style="stop-color:#656068"/>
			<stop  offset="0.5814" style="stop-color:#787782"/>
			<stop  offset="0.6538" style="stop-color:#878996"/>
			<stop  offset="0.7357" style="stop-color:#9195A4"/>
			<stop  offset="0.8349" style="stop-color:#979DAC"/>
			<stop  offset="1" style="stop-color:#999FAF"/>
		</linearGradient>
		<path class="st21" d="M649.29,735.92c-4.45,0.64-8.89,1.38-13.41,2.13c-4.52,0.75-9.08,1.53-13.86,2.32v-0.04
			c1.42-5.08,2.8-10.13,4.18-15.09c4.15-14.95,8.14-29.37,12.14-43.83c0.41-0.19,0.82-0.37,1.23-0.56c1.27,2.58,2.8,5.12,4.18,7.66
			c1.05,1.94,1.98,3.85,2.69,5.87c0.26,0.67,0.49,1.35,0.67,2.06c1.46,5.45,2.65,10.98,3.74,16.51c1.12,5.57,2.13,11.13,3.25,16.66
			C654.89,733.53,653.17,735.36,649.29,735.92z"/>
		
			<linearGradient id="SVGID_22_" gradientUnits="userSpaceOnUse" x1="181.7007" y1="655.6888" x2="886.6816" y2="-49.2922" gradientTransform="matrix(1 0 0 -1 0 1000)">
			<stop  offset="0" style="stop-color:#999FAF"/>
			<stop  offset="0.1651" style="stop-color:#979DAC"/>
			<stop  offset="0.2643" style="stop-color:#9195A4"/>
			<stop  offset="0.3462" style="stop-color:#878996"/>
			<stop  offset="0.4186" style="stop-color:#787782"/>
			<stop  offset="0.4841" style="stop-color:#656068"/>
			<stop  offset="0.5" style="stop-color:#605960"/>
			<stop  offset="0.5159" style="stop-color:#656068"/>
			<stop  offset="0.5814" style="stop-color:#787782"/>
			<stop  offset="0.6538" style="stop-color:#878996"/>
			<stop  offset="0.7357" style="stop-color:#9195A4"/>
			<stop  offset="0.8349" style="stop-color:#979DAC"/>
			<stop  offset="1" style="stop-color:#999FAF"/>
		</linearGradient>
		<path class="st22" d="M633.86,811.84c-2.54,1.16-6.35,1.83-8.67,0.71c-3.25-1.57-6.2-4.56-8.22-7.62c-1.83-2.8-3.4-5.68-4.75-8.67
			c-0.67-1.49-1.27-2.99-1.83-4.52c-0.56-1.49-1.08-3.03-1.53-4.6c-1.83-6.2-2.95-12.63-3.77-19.17c-0.07-0.45-0.07-0.93,0-1.46
			c0.04-0.22,0.07-0.49,0.15-0.75c0.11-0.45,0.3-0.9,0.56-1.23c0.75-1.01,1.49-2.02,2.24-3.03c1.53-2.02,3.1-4.04,4.78-6.2
			c0.86-1.05,1.68-2.17,2.58-3.29l0.04-0.04c0.11,0.19,0.22,0.34,0.3,0.52c1.35,2.06,2.73,3.62,3.36,5.46
			c4.48,13.08,8.89,26.19,13.15,39.38c0.9,2.69,1.76,5.38,2.62,8.07c0.07,0.26,0.15,0.6,0.19,0.97
			C635.31,808.44,634.83,811.39,633.86,811.84z"/>
		
			<linearGradient id="SVGID_23_" gradientUnits="userSpaceOnUse" x1="222.4333" y1="696.4216" x2="927.4144" y2="-8.5595" gradientTransform="matrix(1 0 0 -1 0 1000)">
			<stop  offset="0" style="stop-color:#999FAF"/>
			<stop  offset="0.1651" style="stop-color:#979DAC"/>
			<stop  offset="0.2643" style="stop-color:#9195A4"/>
			<stop  offset="0.3462" style="stop-color:#878996"/>
			<stop  offset="0.4186" style="stop-color:#787782"/>
			<stop  offset="0.4841" style="stop-color:#656068"/>
			<stop  offset="0.5" style="stop-color:#605960"/>
			<stop  offset="0.5159" style="stop-color:#656068"/>
			<stop  offset="0.5814" style="stop-color:#787782"/>
			<stop  offset="0.6538" style="stop-color:#878996"/>
			<stop  offset="0.7357" style="stop-color:#9195A4"/>
			<stop  offset="0.8349" style="stop-color:#979DAC"/>
			<stop  offset="1" style="stop-color:#999FAF"/>
		</linearGradient>
		<path class="st23" d="M630.76,680.29c0,0.78-0.04,1.53-0.22,2.24c-2.02,7.85-4.11,15.65-6.2,23.46s-4.18,15.62-6.31,23.43
			c-0.3,1.12-0.97,2.09-1.87,3.96c-2.02-4.74-3.89-9.04-5.68-13.23c-0.71-1.64-1.42-3.29-2.09-4.93c-0.34-0.82-0.67-1.64-1.01-2.47
			c-0.45-1.05-0.63-2.54-0.22-3.55c2.73-6.87,5.49-13.75,8.33-20.55c0.97-2.28,1.94-4.56,2.91-6.8c0.26-0.6,0.67-1.23,1.16-1.79
			c0.19-0.19,0.34-0.37,0.52-0.52c0.67-0.71,1.49-1.31,2.32-1.68c1.91-0.82,3.96-1.27,6.05-1.76c0.67-0.15,1.38-0.3,2.05-0.49h0.04
			c0,0.37,0,0.71,0.04,1.08C630.64,677.9,630.76,679.13,630.76,680.29z"/>
		
			<linearGradient id="SVGID_24_" gradientUnits="userSpaceOnUse" x1="195.2625" y1="669.2507" x2="900.2434" y2="-35.7303" gradientTransform="matrix(1 0 0 -1 0 1000)">
			<stop  offset="0" style="stop-color:#999FAF"/>
			<stop  offset="0.1651" style="stop-color:#979DAC"/>
			<stop  offset="0.2643" style="stop-color:#9195A4"/>
			<stop  offset="0.3462" style="stop-color:#878996"/>
			<stop  offset="0.4186" style="stop-color:#787782"/>
			<stop  offset="0.4841" style="stop-color:#656068"/>
			<stop  offset="0.5" style="stop-color:#605960"/>
			<stop  offset="0.5159" style="stop-color:#656068"/>
			<stop  offset="0.5814" style="stop-color:#787782"/>
			<stop  offset="0.6538" style="stop-color:#878996"/>
			<stop  offset="0.7357" style="stop-color:#9195A4"/>
			<stop  offset="0.8349" style="stop-color:#979DAC"/>
			<stop  offset="1" style="stop-color:#999FAF"/>
		</linearGradient>
		<path class="st24" d="M608.04,749.15c-0.67,1.31-1.46,2.62-2.43,3.89c-0.41,0.64-0.93,1.27-1.49,1.87v-30.6
			c0.52,0.52,1.05,1.01,1.49,1.57c0.97,1.05,1.76,2.2,2.43,3.4s1.2,2.43,1.61,3.7C611.25,738.09,610.73,743.8,608.04,749.15z"/>
		
			<linearGradient id="SVGID_25_" gradientUnits="userSpaceOnUse" x1="282.879" y1="756.8674" x2="987.86" y2="51.8864" gradientTransform="matrix(1 0 0 -1 0 1000)">
			<stop  offset="0" style="stop-color:#999FAF"/>
			<stop  offset="0.1651" style="stop-color:#979DAC"/>
			<stop  offset="0.2643" style="stop-color:#9195A4"/>
			<stop  offset="0.3462" style="stop-color:#878996"/>
			<stop  offset="0.4186" style="stop-color:#787782"/>
			<stop  offset="0.4841" style="stop-color:#656068"/>
			<stop  offset="0.5" style="stop-color:#605960"/>
			<stop  offset="0.5159" style="stop-color:#656068"/>
			<stop  offset="0.5814" style="stop-color:#787782"/>
			<stop  offset="0.6538" style="stop-color:#878996"/>
			<stop  offset="0.7357" style="stop-color:#9195A4"/>
			<stop  offset="0.8349" style="stop-color:#979DAC"/>
			<stop  offset="1" style="stop-color:#999FAF"/>
		</linearGradient>
		<path class="st25" d="M832.18,813.41c-0.41,0.15-0.78,0.26-1.12,0.34c-1.01,0.19-1.94,0.07-2.76-0.26
			c-1.08-0.41-1.98-1.2-2.8-2.13c-0.37-0.45-0.75-0.97-1.12-1.53c-0.75-1.16-1.46-2.35-2.09-3.55c-0.93-1.79-1.72-3.66-2.43-5.57
			c-2.39-6.58-3.59-13.6-5.31-20.47c-0.07-0.3-0.15-0.64-0.22-0.93c-0.15-0.52-0.26-1.05-0.34-1.57c-0.15-0.75-0.22-1.46-0.26-2.17
			c-0.34-4.22,0.75-7.92,2.65-11.69c0.37-0.71,0.78-1.46,1.2-2.2c0.22-0.41,0.45-0.78,0.67-1.16c0.93-1.49,1.91-3.03,2.95-4.63
			c0.04,0,0.04-0.04,0.04-0.04c0.52,1.42,1.01,2.76,1.49,4.07c1.01,2.58,1.91,4.93,2.65,7.25c0.41,1.2,0.75,2.35,1.05,3.51
			c0.56,2.17,1.08,4.37,1.61,6.58c0.34,1.27,0.63,2.54,0.93,3.81c1.27,5.27,2.47,10.57,3.66,15.92c0.67,2.91,1.31,5.87,1.94,8.78
			C835.17,808.55,835.95,811.95,832.18,813.41z"/>
		
			<linearGradient id="SVGID_26_" gradientUnits="userSpaceOnUse" x1="321.3658" y1="795.3541" x2="1026.3469" y2="90.3731" gradientTransform="matrix(1 0 0 -1 0 1000)">
			<stop  offset="0" style="stop-color:#999FAF"/>
			<stop  offset="0.1651" style="stop-color:#979DAC"/>
			<stop  offset="0.2643" style="stop-color:#9195A4"/>
			<stop  offset="0.3462" style="stop-color:#878996"/>
			<stop  offset="0.4186" style="stop-color:#787782"/>
			<stop  offset="0.4841" style="stop-color:#656068"/>
			<stop  offset="0.5" style="stop-color:#605960"/>
			<stop  offset="0.5159" style="stop-color:#656068"/>
			<stop  offset="0.5814" style="stop-color:#787782"/>
			<stop  offset="0.6538" style="stop-color:#878996"/>
			<stop  offset="0.7357" style="stop-color:#9195A4"/>
			<stop  offset="0.8349" style="stop-color:#979DAC"/>
			<stop  offset="1" style="stop-color:#999FAF"/>
		</linearGradient>
		<path class="st26" d="M832.92,684.06c-0.86,4.52-1.72,9.04-2.58,13.53c-0.86,4.45-1.72,8.89-2.58,13.38c0,0,0,0,0,0.04
			c-1.68,8.89-3.4,17.86-5.16,27.01c0,0,0-0.04-0.04-0.04c-0.56-0.75-1.12-1.53-1.61-2.35c-1.35-2.2-2.39-4.6-3.18-7.1
			c-4.52-14.61,0.37-32.88,8-40.65c0.49-0.52,1.01-0.97,1.5-1.38c0.52-0.41,1.05-0.75,1.57-1.08c0.52-0.3,1.05-0.56,1.61-0.78
			C831.28,684.32,832.1,684.13,832.92,684.06z"/>
		
			<linearGradient id="SVGID_27_" gradientUnits="userSpaceOnUse" x1="297.1758" y1="771.1641" x2="1002.1569" y2="66.1831" gradientTransform="matrix(1 0 0 -1 0 1000)">
			<stop  offset="0" style="stop-color:#999FAF"/>
			<stop  offset="0.1651" style="stop-color:#979DAC"/>
			<stop  offset="0.2643" style="stop-color:#9195A4"/>
			<stop  offset="0.3462" style="stop-color:#878996"/>
			<stop  offset="0.4186" style="stop-color:#787782"/>
			<stop  offset="0.4841" style="stop-color:#656068"/>
			<stop  offset="0.5" style="stop-color:#605960"/>
			<stop  offset="0.5159" style="stop-color:#656068"/>
			<stop  offset="0.5814" style="stop-color:#787782"/>
			<stop  offset="0.6538" style="stop-color:#878996"/>
			<stop  offset="0.7357" style="stop-color:#9195A4"/>
			<stop  offset="0.8349" style="stop-color:#979DAC"/>
			<stop  offset="1" style="stop-color:#999FAF"/>
		</linearGradient>
		<path class="st27" d="M816.34,751.2c-0.75,2.32-1.83,4.63-3.32,6.91v-26.86c1.12,1.53,2.02,3.14,2.69,4.75
			C817.79,740.85,817.98,746.01,816.34,751.2z"/>
		
			<linearGradient id="SVGID_28_" gradientUnits="userSpaceOnUse" x1="172.9143" y1="646.9026" x2="877.8953" y2="-58.0784" gradientTransform="matrix(1 0 0 -1 0 1000)">
			<stop  offset="0" style="stop-color:#999FAF"/>
			<stop  offset="0.1651" style="stop-color:#979DAC"/>
			<stop  offset="0.2643" style="stop-color:#9195A4"/>
			<stop  offset="0.3462" style="stop-color:#878996"/>
			<stop  offset="0.4186" style="stop-color:#787782"/>
			<stop  offset="0.4841" style="stop-color:#656068"/>
			<stop  offset="0.5" style="stop-color:#605960"/>
			<stop  offset="0.5159" style="stop-color:#656068"/>
			<stop  offset="0.5814" style="stop-color:#787782"/>
			<stop  offset="0.6538" style="stop-color:#878996"/>
			<stop  offset="0.7357" style="stop-color:#9195A4"/>
			<stop  offset="0.8349" style="stop-color:#979DAC"/>
			<stop  offset="1" style="stop-color:#999FAF"/>
		</linearGradient>
		<path class="st28" d="M564.42,677.05c-1.16,4.82-3.92,8.26-8.67,9.64c-22.57,6.58-45.06,13.53-67.85,19.32
			c-14.5,3.66-28.28-1.68-41.62-7.06c-4.89-1.98-5.68-5.46-3.29-10.35c3.89-8.03,9.23-13.23,19.24-13.26
			c13.08,0,26.15-1.38,39.19-2.2c0-0.04,0-0.04,0-0.07c19.17-1.01,38.33-2.02,57.5-2.99C565.17,669.77,565.91,670.89,564.42,677.05z
			"/>
		
			<linearGradient id="SVGID_29_" gradientUnits="userSpaceOnUse" x1="63.8384" y1="537.8267" x2="768.8194" y2="-167.1544" gradientTransform="matrix(1 0 0 -1 0 1000)">
			<stop  offset="0" style="stop-color:#999FAF"/>
			<stop  offset="0.1651" style="stop-color:#979DAC"/>
			<stop  offset="0.2643" style="stop-color:#9195A4"/>
			<stop  offset="0.3462" style="stop-color:#878996"/>
			<stop  offset="0.4186" style="stop-color:#787782"/>
			<stop  offset="0.4841" style="stop-color:#656068"/>
			<stop  offset="0.5" style="stop-color:#605960"/>
			<stop  offset="0.5159" style="stop-color:#656068"/>
			<stop  offset="0.5814" style="stop-color:#787782"/>
			<stop  offset="0.6538" style="stop-color:#878996"/>
			<stop  offset="0.7357" style="stop-color:#9195A4"/>
			<stop  offset="0.8349" style="stop-color:#979DAC"/>
			<stop  offset="1" style="stop-color:#999FAF"/>
		</linearGradient>
		<path class="st29" d="M362.72,759.64c-0.75,0.04-1.46,0.07-2.2,0.11c-0.04,0-0.07,0-0.07,0c-0.19,0-0.37-0.04-0.56-0.11H362.72z"
			/>
		
			<linearGradient id="SVGID_30_" gradientUnits="userSpaceOnUse" x1="306.2958" y1="780.2842" x2="1011.2768" y2="75.3031" gradientTransform="matrix(1 0 0 -1 0 1000)">
			<stop  offset="0" style="stop-color:#999FAF"/>
			<stop  offset="0.1651" style="stop-color:#979DAC"/>
			<stop  offset="0.2643" style="stop-color:#9195A4"/>
			<stop  offset="0.3462" style="stop-color:#878996"/>
			<stop  offset="0.4186" style="stop-color:#787782"/>
			<stop  offset="0.4841" style="stop-color:#656068"/>
			<stop  offset="0.5" style="stop-color:#605960"/>
			<stop  offset="0.5159" style="stop-color:#656068"/>
			<stop  offset="0.5814" style="stop-color:#787782"/>
			<stop  offset="0.6538" style="stop-color:#878996"/>
			<stop  offset="0.7357" style="stop-color:#9195A4"/>
			<stop  offset="0.8349" style="stop-color:#979DAC"/>
			<stop  offset="1" style="stop-color:#999FAF"/>
		</linearGradient>
		<path class="st30" d="M660.32,597.38l-0.14,23.4c0,0,51.05-5.39,60.34-6.55s11.67-15.8,11.67-15.8L660.32,597.38z"/>
		<g>
			
				<linearGradient id="SVGID_31_" gradientUnits="userSpaceOnUse" x1="62.0034" y1="535.9916" x2="766.9845" y2="-168.9894" gradientTransform="matrix(1 0 0 -1 0 1000)">
				<stop  offset="0" style="stop-color:#999FAF"/>
				<stop  offset="0.1651" style="stop-color:#979DAC"/>
				<stop  offset="0.2643" style="stop-color:#9195A4"/>
				<stop  offset="0.3462" style="stop-color:#878996"/>
				<stop  offset="0.4186" style="stop-color:#787782"/>
				<stop  offset="0.4841" style="stop-color:#656068"/>
				<stop  offset="0.5" style="stop-color:#605960"/>
				<stop  offset="0.5159" style="stop-color:#656068"/>
				<stop  offset="0.5814" style="stop-color:#787782"/>
				<stop  offset="0.6538" style="stop-color:#878996"/>
				<stop  offset="0.7357" style="stop-color:#9195A4"/>
				<stop  offset="0.8349" style="stop-color:#979DAC"/>
				<stop  offset="1" style="stop-color:#999FAF"/>
			</linearGradient>
			<path class="st31" d="M385.88,729.12c-4.89,1.12-9.79,1.98-14.68,2.8h-73.49l-14.68,0.04c-4.89-0.82-9.79-1.64-14.68-2.84
				c4.89-1.16,9.79-1.98,14.68-2.8h88.18C376.09,727.18,380.99,728,385.88,729.12z"/>
		</g>
		<g>
			
				<linearGradient id="SVGID_32_" gradientUnits="userSpaceOnUse" x1="56.4509" y1="530.4391" x2="761.4319" y2="-174.5418" gradientTransform="matrix(1 0 0 -1 0 1000)">
				<stop  offset="0" style="stop-color:#999FAF"/>
				<stop  offset="0.1651" style="stop-color:#979DAC"/>
				<stop  offset="0.2643" style="stop-color:#9195A4"/>
				<stop  offset="0.3462" style="stop-color:#878996"/>
				<stop  offset="0.4186" style="stop-color:#787782"/>
				<stop  offset="0.4841" style="stop-color:#656068"/>
				<stop  offset="0.5" style="stop-color:#605960"/>
				<stop  offset="0.5159" style="stop-color:#656068"/>
				<stop  offset="0.5814" style="stop-color:#787782"/>
				<stop  offset="0.6538" style="stop-color:#878996"/>
				<stop  offset="0.7357" style="stop-color:#9195A4"/>
				<stop  offset="0.8349" style="stop-color:#979DAC"/>
				<stop  offset="1" style="stop-color:#999FAF"/>
			</linearGradient>
			<path class="st32" d="M400.19,740.22c-6.09,1.12-12.18,1.98-18.27,2.8h-91.35l-18.27,0.04c-6.09-0.82-12.18-1.64-18.27-2.84
				c6.09-1.16,12.18-1.98,18.27-2.8h109.62C388.01,738.27,394.1,739.1,400.19,740.22z"/>
		</g>
		<g>
			
				<linearGradient id="SVGID_33_" gradientUnits="userSpaceOnUse" x1="50.8859" y1="524.8742" x2="755.8668" y2="-180.1069" gradientTransform="matrix(1 0 0 -1 0 1000)">
				<stop  offset="0" style="stop-color:#999FAF"/>
				<stop  offset="0.1651" style="stop-color:#979DAC"/>
				<stop  offset="0.2643" style="stop-color:#9195A4"/>
				<stop  offset="0.3462" style="stop-color:#878996"/>
				<stop  offset="0.4186" style="stop-color:#787782"/>
				<stop  offset="0.4841" style="stop-color:#656068"/>
				<stop  offset="0.5" style="stop-color:#605960"/>
				<stop  offset="0.5159" style="stop-color:#656068"/>
				<stop  offset="0.5814" style="stop-color:#787782"/>
				<stop  offset="0.6538" style="stop-color:#878996"/>
				<stop  offset="0.7357" style="stop-color:#9195A4"/>
				<stop  offset="0.8349" style="stop-color:#979DAC"/>
				<stop  offset="1" style="stop-color:#999FAF"/>
			</linearGradient>
			<path class="st33" d="M400.19,751.35c-6.09,1.12-12.18,1.94-18.27,2.8H272.3c-6.09-0.82-12.18-1.64-18.27-2.8
				c6.09-1.2,12.18-2.02,18.27-2.84l18.27,0.04h91.35C388.01,749.37,394.1,750.19,400.19,751.35z"/>
		</g>
		<g>
			
				<linearGradient id="SVGID_34_" gradientUnits="userSpaceOnUse" x1="45.3359" y1="519.3241" x2="750.3168" y2="-185.6569" gradientTransform="matrix(1 0 0 -1 0 1000)">
				<stop  offset="0" style="stop-color:#999FAF"/>
				<stop  offset="0.1651" style="stop-color:#979DAC"/>
				<stop  offset="0.2643" style="stop-color:#9195A4"/>
				<stop  offset="0.3462" style="stop-color:#878996"/>
				<stop  offset="0.4186" style="stop-color:#787782"/>
				<stop  offset="0.4841" style="stop-color:#656068"/>
				<stop  offset="0.5" style="stop-color:#605960"/>
				<stop  offset="0.5159" style="stop-color:#656068"/>
				<stop  offset="0.5814" style="stop-color:#787782"/>
				<stop  offset="0.6538" style="stop-color:#878996"/>
				<stop  offset="0.7357" style="stop-color:#9195A4"/>
				<stop  offset="0.8349" style="stop-color:#979DAC"/>
				<stop  offset="1" style="stop-color:#999FAF"/>
			</linearGradient>
			<path class="st34" d="M385.88,762.45c-4.89,1.12-9.79,1.94-14.68,2.8h-88.18c-4.89-0.82-9.79-1.64-14.68-2.8
				c4.89-1.2,9.79-2.02,14.68-2.84l14.68,0.04h73.49C376.09,760.47,380.99,761.33,385.88,762.45z"/>
		</g>
	</g>
	<g>
		<g>
			<path class="st35" d="M486.21,697.71c-6.93,3.66-13.8,7.39-20.61,11.19c-0.03,0.02-0.04,0.02-0.07,0.04
				c-23.05,12.87-45.54,26.6-67.3,41.15c-11.5,7.68-22.81,15.59-33.92,23.71c-4.7,3.42-9.36,6.9-13.99,10.42l-0.07,0.02
				c-0.98,0.72-1.88,1.45-2.86,2.21c-2.29,1.75-4.58,3.52-6.86,5.3h-0.01c-2.44,1.89-4.87,3.81-7.28,5.74
				c-1.05,0.83-2.09,1.65-3.13,2.5c-2.71,2.15-5.38,4.33-8.05,6.51c-0.02,0.03-0.04,0.04-0.06,0.06c-1.07,0.88-2.14,1.77-3.22,2.65
				c-1.37,1.13-2.72,2.25-4.07,3.39l-17.99,3c-0.61-1.58-1.21-3.18-1.83-4.76c-1.73-4.55-3.48-9.09-5.21-13.65
				c-0.93-2.42-1.85-4.84-2.78-7.26c-0.55-1.48-1.12-2.94-1.68-4.41c-0.07-0.17-0.13-0.34-0.2-0.5c-0.26-0.7-0.52-1.38-0.8-2.07
				c-0.7-1.86-1.42-3.73-2.14-5.58c-0.06-0.18-0.12-0.35-0.19-0.53c-0.34-0.89-0.67-1.77-1.03-2.66l1.29-0.21
				c1.33-0.23,2.56-0.86,3.46-1.79l2.23-2.31c-1.06-3.33-2.07-6.66-3.05-10.01l1.43-1.46l1.87,11.22l13.39-13.84
				c3.49-3.62-0.61-10.55-5.85-9.91l-1.44,0.22l-9.78,1.48l-2.98,0.45l-1.54,0.23l-2.21,0.34l-6.23,0.94
				c-0.23-0.61-0.47-1.23-0.71-1.84c-2.68-7.03-5.37-14.06-8.07-21.09c-0.52-1.38-1.06-2.76-1.58-4.13
				c-4-10.45-7.22-19.78-13.34-28.48c-1.55-2.23-3.31-4.42-5.31-6.58c-4.64-5-9.16-9.29-13-14.95c-2.47-3.68-7.39-18.63-11.16-20.29
				c7.43,3.87,14.85,7.76,22.26,11.64c-3.95-10.76-7.56-21.63-10.84-32.58c-1.94-6.44-3.75-12.91-5.45-19.41
				c-0.54-2.05-1.06-4.1-1.58-6.16l-5.63-26.96c3.96-0.66,14.88,18.08,17.97,22.46c10.55,13.42,21.11,26.83,31.67,40.24
				c8.09,10.27,16.17,20.54,24.26,30.81c-0.69-17.02,1.12-34.21,5.35-51.02c1.18,3.67,2.26,7.36,3.23,11.09
				c1.7,6.38,3.13,12.84,4.28,19.35c0.59,3.36,1.11,6.71,1.55,10.09c5.6-8.9,11.58-17.61,17.96-26.13
				c16.7-22.39,35.96-43.35,57.37-62.43c-10.08,31.32-20.93,62.45-32.58,93.39c-1.5,4-3.02,8-4.55,11.99
				c18.54-13.51,38.96-24.95,60.58-34c15.35-6.43,31.32-11.64,47.63-15.54c-20.93,16.79-40.53,34.86-58.62,54.04
				c2.23,0.2,4.44,0.39,6.66,0.6c7.08,0.64,14.16,1.31,21.23,2.08c12.76,1.36,25.44,3.03,37.91,5.41h0.01
				C468.21,692.89,477.31,695.03,486.21,697.71z"/>
			<path class="st36" d="M399.84,683.67c11.67-4.31,23.13-9.11,34.31-14.4c-4.5,5.43-8.85,10.91-13.08,16.47
				c-10.18,13.31-19.66,26.99-28.62,40.93c-0.01,0-0.01,0.01-0.01,0.01c-9.94,15.43-19.24,31.18-28.14,47.12
				c-1.58,2.81-3.14,5.64-4.69,8.46c-2.31,4.2-4.58,8.4-6.83,12.61c-0.21,0.39-0.42,0.78-0.63,1.16c-0.5,0.94-0.99,1.87-1.51,2.81
				v0.01c-1.06,2.02-2.13,4.03-3.19,6.05c-2.28,4.32-4.54,8.65-6.78,12.97c-1.02,1.96-2.03,3.92-3.04,5.89
				c-2.38,4.62-4.76,9.26-7.11,13.88l-4.58-26.92l-23.31,3.89c-0.84-1.55-1.69-3.1-2.55-4.65c-2.42-4.43-4.85-8.87-7.27-13.29
				c-0.45-0.8-0.89-1.62-1.33-2.43c-0.85-1.55-1.69-3.1-2.55-4.65c-0.77-1.43-1.57-2.86-2.36-4.3c-0.09-0.16-0.17-0.33-0.27-0.49
				c-0.36-0.67-0.73-1.34-1.11-2.02c-1-1.81-2-3.63-3.01-5.44c-0.09-0.16-0.19-0.34-0.27-0.52c-0.48-0.85-0.95-1.71-1.43-2.58
				l0.41-0.08l1.29-0.21c1.33-0.23,2.56-0.86,3.46-1.79l2.23-2.31c-1.06-3.33-2.07-6.66-3.05-10.01l1.43-1.46l1.87,11.22
				l13.39-13.84c3.49-3.62-0.61-10.55-5.85-9.91l-1.44,0.22l-9.78,1.48l-2.98,0.45l-1.54,0.23l-2.21,0.34l-6.23,0.94l-4.82,0.73
				c-0.36-0.6-0.72-1.2-1.1-1.79c-0.77-1.29-1.55-2.57-2.33-3.86c-2.18-3.55-7.3-9.53-12.36-16.04
				c-7.46-9.55-14.85-20.24-12.74-26.02c1.6-4.4,5.83-6.21,9.65-8.57c3.32-2.02,6.31-4.47,7.01-9.35
				c1.85-13.25-5.93-32.24-11.42-47.77c-1.51-4.27-2.84-8.3-3.75-11.85c3.4,5.39,6.85,10.75,10.38,16.06
				c7.05,10.65,14.37,21.17,21.93,31.55c0.06,0.08,0.11,0.16,0.17,0.24c5.28,7.24,10.68,14.41,16.2,21.5
				c4.34-13.78,9.26-27.42,14.8-40.92c0.23-0.6,0.48-1.2,0.74-1.81c7.35-17.84,15.72-35.36,25.07-52.51
				c-1.92,12.15-3.77,24.31-5.56,36.47c-3.05,20.79-5.91,41.59-8.59,62.39c10.8-10.74,21.93-21.23,33.39-31.43
				c26.63-23.72,54.98-45.92,84.8-66.4c-9.21,14.98-18.8,29.78-28.77,44.38c-11.41,16.73-23.32,33.2-35.71,49.38
				C379.08,690.91,389.54,687.49,399.84,683.67z"/>
			<path class="st37" d="M385.79,705.82c-7.94,12.35-15.67,24.78-23.21,37.31c-2.16,3.59-4.31,7.18-6.42,10.79
				c-4.46,7.55-8.84,15.14-13.14,22.75c-0.65,1.13-1.28,2.25-1.9,3.38c-2.85,5.04-5.63,10.09-8.41,15.16
				c-0.87,1.6-1.73,3.2-2.6,4.79c-1.57,2.89-3.1,5.77-4.64,8.65c-0.02,0.03-0.03,0.06-0.04,0.08c-0.41,0.77-0.82,1.54-1.23,2.3
				l-17.11,2.86c-0.95-1.52-1.88-3.06-2.75-4.63c-2.5-4.34-4.72-8.81-6.76-13.36c-1.08-2.38-2.09-4.79-3.06-7.21
				c-0.58-1.46-1.16-2.93-1.71-4.41c-0.07-0.17-0.13-0.34-0.19-0.5c-0.26-0.7-0.52-1.39-0.77-2.08c-0.94-2.56-1.81-5.13-2.67-7.71
				c-0.24-0.71-0.47-1.43-0.71-2.15c-0.21-0.65-0.42-1.29-0.62-1.95c-1.06-3.33-2.07-6.66-3.05-10.01l1.43-1.46l1.87,11.22
				l13.39-13.84c3.49-3.62-0.61-10.55-5.85-9.91l-1.44,0.22l-9.78,1.48l-2.98,0.45c-0.18-0.62-0.35-1.23-0.53-1.85
				c-0.01-0.05-0.03-0.1-0.04-0.15c-0.02,0.05-0.05,0.11-0.07,0.17c-0.31,0.69-0.6,1.37-0.9,2.06l-2.21,0.34l-0.32-1.9
				c-1.22-7.07-2.43-14.15-3.65-21.23c-2.04-11.87-4.08-23.74-6.12-35.6c3.15,7.88,6.83,15.57,11.02,23.03
				c2.71,4.86,5.64,9.61,8.77,14.27h0.01c2.55,3.81,5.27,7.53,8.1,11.19c0.1-2.88,0.36-5.76,0.78-8.61
				c2.04-13.99,7.56-27.61,12.61-41.33c2.81-7.68,5.46-15.39,7.28-23.22c-1.7,12.11-3.39,24.22-5.09,36.34
				c-1.55,11.07-3.1,22.15-4.65,33.23c-0.21,1.45-0.4,2.88-0.61,4.33c0.65-1.13,1.34-2.25,2.04-3.37c2.23-3.62,4.61-7.16,7.16-10.62
				c12.58-17.14,28.82-32.27,47.58-44.21c-13.51,18.75-25.37,38.41-35.4,58.71C344.17,725.23,364.18,713.66,385.79,705.82z"/>
		</g>
		<path class="st37" d="M265.55,748.48l17.4,31.11l27.45-15.53c0,0,1.02-18.3,0.24-18.39s-43.21-2.19-43.21-2.19L265.55,748.48z"/>
	</g>
	<path d="M306.14,861.76c0.52,0.05,1.04,0.07,1.56,0.07h-1.56V861.76z"/>
	<path d="M325.5,861.76v0.07h-1.56C324.46,861.83,324.98,861.81,325.5,861.76z"/>
	<path d="M306.14,861.76c0.52,0.05,1.04,0.07,1.56,0.07h-1.56V861.76z"/>
	<path d="M325.5,861.76v0.07h-1.56C324.46,861.83,324.98,861.81,325.5,861.76z"/>
	<g>
		
			<linearGradient id="SVGID_35_" gradientUnits="userSpaceOnUse" x1="316.28" y1="439.2844" x2="316.28" y2="105.3193" gradientTransform="matrix(1 0 0 -1 0 1000)">
			<stop  offset="0" style="stop-color:#999FAF"/>
			<stop  offset="0.1651" style="stop-color:#979DAC"/>
			<stop  offset="0.2643" style="stop-color:#9195A4"/>
			<stop  offset="0.3462" style="stop-color:#878996"/>
			<stop  offset="0.4186" style="stop-color:#787782"/>
			<stop  offset="0.4841" style="stop-color:#656068"/>
			<stop  offset="0.5" style="stop-color:#605960"/>
			<stop  offset="0.5159" style="stop-color:#656068"/>
			<stop  offset="0.5814" style="stop-color:#787782"/>
			<stop  offset="0.6538" style="stop-color:#878996"/>
			<stop  offset="0.7357" style="stop-color:#9195A4"/>
			<stop  offset="0.8349" style="stop-color:#979DAC"/>
			<stop  offset="1" style="stop-color:#999FAF"/>
		</linearGradient>
		<path class="st38" d="M344.54,747.05v90.61h-56.52v-90.61c0-10.6,8.19-19.28,18.58-20.06V465.42c0-4.16,3.38-7.54,7.54-7.54h4.27
			c4.17,0,7.55,3.38,7.55,7.55v261.56C336.35,727.77,344.54,736.45,344.54,747.05z"/>
		
			<linearGradient id="SVGID_36_" gradientUnits="userSpaceOnUse" x1="248.5059" y1="722.4941" x2="953.4868" y2="17.5131" gradientTransform="matrix(1 0 0 -1 0 1000)">
			<stop  offset="0" style="stop-color:#999FAF"/>
			<stop  offset="0.1651" style="stop-color:#979DAC"/>
			<stop  offset="0.2643" style="stop-color:#9195A4"/>
			<stop  offset="0.3462" style="stop-color:#878996"/>
			<stop  offset="0.4186" style="stop-color:#787782"/>
			<stop  offset="0.4841" style="stop-color:#656068"/>
			<stop  offset="0.5" style="stop-color:#605960"/>
			<stop  offset="0.5159" style="stop-color:#656068"/>
			<stop  offset="0.5814" style="stop-color:#787782"/>
			<stop  offset="0.6538" style="stop-color:#878996"/>
			<stop  offset="0.7357" style="stop-color:#9195A4"/>
			<stop  offset="0.8349" style="stop-color:#979DAC"/>
			<stop  offset="1" style="stop-color:#999FAF"/>
		</linearGradient>
		<rect x="313.15" y="224.91" class="st39" width="6.25" height="240.73"/>
	</g>
	<g>
		
			<linearGradient id="SVGID_37_" gradientUnits="userSpaceOnUse" x1="230.9353" y1="920.5419" x2="864.8033" y2="286.6738" gradientTransform="matrix(1 0 0 -1 0 1000)">
			<stop  offset="0" style="stop-color:#999FAF"/>
			<stop  offset="0.1651" style="stop-color:#979DAC"/>
			<stop  offset="0.2643" style="stop-color:#9195A4"/>
			<stop  offset="0.3462" style="stop-color:#878996"/>
			<stop  offset="0.4186" style="stop-color:#787782"/>
			<stop  offset="0.4841" style="stop-color:#656068"/>
			<stop  offset="0.5" style="stop-color:#605960"/>
			<stop  offset="0.5159" style="stop-color:#656068"/>
			<stop  offset="0.5814" style="stop-color:#787782"/>
			<stop  offset="0.6538" style="stop-color:#878996"/>
			<stop  offset="0.7357" style="stop-color:#9195A4"/>
			<stop  offset="0.8349" style="stop-color:#979DAC"/>
			<stop  offset="1" style="stop-color:#999FAF"/>
		</linearGradient>
		<path class="st40" d="M788.79,221.85c0,0-38.03,368.45-302.21,495.31C222.4,590.3,184.37,221.85,184.37,221.85L394.52,61.96
			h184.13L788.79,221.85z"/>
		<polygon class="st0" points="451,529.4 343.75,462.5 371.8,417.53 439.51,459.76 639.54,215.37 680.55,248.94 		"/>
	</g>
</g>
<path class="st41" d="M-309.97,599.82c-1.93,9.55-4.14,19.01-6.61,28.36c-3.64,13.76-7.85,27.29-12.6,40.56
	c-0.08,0.21-0.16,0.42-0.24,0.63v0.01c-0.93,2.6-1.89,5.19-2.87,7.77c-2.63,6.95-5.42,13.82-8.35,20.61
	c-7.68,17.84-16.38,35.15-26.02,51.84C-453.06,899.27-614.77,1000-800,1000c-232.28,0-427.57-158.39-483.74-373.06
	c-3.18-12.11-5.9-24.41-8.16-36.86c-5.32-29.22-8.1-59.32-8.1-90.08c0-27.77,2.26-55.01,6.62-81.55c0.51-3.15,1.06-6.3,1.64-9.43
	C-1248.96,176.32-1045.07,0-800,0c276.14,0,500,223.86,500,500C-300,534.19-303.43,567.57-309.97,599.82z M500,1000
	C223.86,1000,0,776.14,0,500S223.86,0,500,0s500,223.86,500,500S776.14,1000,500,1000z"/>
</svg>
