<?xml version="1.0" encoding="utf-8"?>
<!-- Generator: Adobe Illustrator 25.0.0, SVG Export Plug-In . SVG Version: 6.00 Build 0)  -->
<svg version="1.1" id="Layer_1" xmlns="http://www.w3.org/2000/svg" xmlns:xlink="http://www.w3.org/1999/xlink" x="0px" y="0px"
	 viewBox="0 0 1000 1000" style="enable-background:new 0 0 1000 1000;" xml:space="preserve">
<style type="text/css">
	.st0{fill:#FFFFFF;}
	.st1{fill:url(#SVGID_1_);}
	.st2{fill:url(#SVGID_2_);}
	.st3{fill:url(#SVGID_3_);}
	.st4{fill:url(#SVGID_4_);}
	.st5{fill:url(#SVGID_5_);}
	.st6{fill:url(#SVGID_6_);}
	.st7{fill:#1A1A1A;}
	.st8{fill:url(#SVGID_7_);}
	.st9{fill:url(#SVGID_8_);}
	.st10{fill:url(#SVGID_9_);}
	.st11{fill:none;}
</style>
<circle class="st0" cx="499.5" cy="499.5" r="500"/>
<g>
	<g>
		
			<linearGradient id="SVGID_1_" gradientUnits="userSpaceOnUse" x1="-143.2748" y1="413.3212" x2="1483.542" y2="413.3212" gradientTransform="matrix(1 0 0 -1 0 1000)">
			<stop  offset="0" style="stop-color:#999FAF"/>
			<stop  offset="0.1651" style="stop-color:#979DAC"/>
			<stop  offset="0.2643" style="stop-color:#9195A4"/>
			<stop  offset="0.3462" style="stop-color:#878996"/>
			<stop  offset="0.4186" style="stop-color:#787782"/>
			<stop  offset="0.4841" style="stop-color:#656068"/>
			<stop  offset="0.5" style="stop-color:#605960"/>
			<stop  offset="0.5159" style="stop-color:#656068"/>
			<stop  offset="0.5814" style="stop-color:#787782"/>
			<stop  offset="0.6538" style="stop-color:#878996"/>
			<stop  offset="0.7357" style="stop-color:#9195A4"/>
			<stop  offset="0.8349" style="stop-color:#979DAC"/>
			<stop  offset="1" style="stop-color:#999FAF"/>
		</linearGradient>
		<path class="st1" d="M965.09,574.98c9.45-0.14,19.27-0.33,29.41-0.57c-0.02,0.16-0.05,0.31-0.07,0.47
			c-0.21,1.37-0.42,2.73-0.63,4.09c-0.18,1.13-0.36,2.25-0.55,3.37c-0.07,0.42-0.14,0.84-0.21,1.26c-0.23,1.37-0.47,2.74-0.71,4.11
			c-0.82,4.65-1.71,9.28-2.66,13.88c-0.61,2.99-1.26,5.97-1.93,8.94c-0.34,1.49-0.68,2.97-1.03,4.45c-0.26,1.13-0.53,2.26-0.81,3.39
			c-0.16,0.67-0.32,1.33-0.49,2c-0.62,2.53-1.27,5.06-1.93,7.58c-0.44,1.66-0.88,3.31-1.34,4.96c-0.28,1-0.56,2.01-0.84,3.01
			c-0.92,3.29-1.88,6.56-2.87,9.82c-0.44,1.43-0.88,2.85-1.33,4.27c-0.45,1.44-0.91,2.88-1.37,4.31c-1.39,4.3-2.84,8.57-4.35,12.81
			c-0.46,1.31-0.93,2.61-1.4,3.91c-0.61,1.67-1.23,3.34-1.85,5c-0.47,1.25-0.95,2.5-1.43,3.75c-2.02,5.23-4.12,10.42-6.3,15.56
			c-0.4,0.94-0.81,1.89-1.22,2.83c-0.33,0.78-0.67,1.56-1.01,2.33c-0.6,1.37-1.21,2.73-1.82,4.09c-0.61,1.36-1.22,2.72-1.85,4.07
			c-0.62,1.35-1.25,2.7-1.88,4.05c-0.98,2.08-1.97,4.14-2.98,6.2c-0.46,0.97-0.94,1.93-1.41,2.89c-0.16,0.32-0.32,0.63-0.47,0.94
			c-0.63,1.26-1.26,2.51-1.89,3.75c-1.82,3.57-3.67,7.11-5.57,10.62c-0.4,0.74-0.8,1.48-1.21,2.22c-0.46,0.86-0.93,1.71-1.41,2.56
			c-0.45,0.84-0.92,1.67-1.38,2.49c-0.73,1.3-1.46,2.59-2.19,3.87c-0.74,1.29-1.48,2.57-2.23,3.84c-0.66,1.13-1.32,2.25-1.99,3.37
			c-1.6,2.69-3.23,5.37-4.89,8.03c-0.52,0.85-1.05,1.7-1.59,2.54c-0.49,0.79-0.99,1.58-1.49,2.36c-0.45,0.7-0.9,1.41-1.35,2.1
			c-1.7,2.65-3.43,5.28-5.19,7.89c-0.63,0.94-1.27,1.88-1.91,2.82c-0.38,0.57-0.78,1.14-1.17,1.72c-0.64,0.92-1.28,1.85-1.92,2.77
			c-1.69,2.42-3.4,4.82-5.13,7.21c-0.86,1.19-1.73,2.38-2.61,3.57c-2.5,3.4-5.05,6.77-7.65,10.1c-0.22,0.29-0.44,0.58-0.67,0.87
			c-0.72,0.91-1.43,1.82-2.15,2.73c-0.19,0.23-0.37,0.47-0.56,0.7c-0.82,1.03-1.64,2.06-2.47,3.09c-2.02,2.5-4.07,4.99-6.14,7.45
			c-0.73,0.87-1.46,1.73-2.19,2.59c-0.14,0.16-0.28,0.32-0.41,0.48c-0.87,1.01-1.73,2.02-2.6,3.02c-0.97,1.11-1.94,2.22-2.91,3.32
			h-83.21c0-0.26,0-0.26,0-0.26v-0.12c2.23-9.79,3.46-19.95,3.46-30.48c0-76.11-61.83-138.07-137.93-138.07
			c-76.21,0-138.06,61.96-138.06,138.07c0,10.53,1.12,20.69,3.6,30.48v0.12h-0.12c0,0,0.12,0,0.12,0.26h-67.67
			c-12.64,0-16.36,0-24.29-0.63c-3.59,0-7.94-0.37-14.25-0.74c-3.22-0.12-6.82-0.38-11.15-0.5c-1.99-0.25-4.47-0.25-6.95-0.37
			c-5.58-0.37-10.28-1.11-14.12-2.48c-0.75-0.24-1.25-0.37-1.86-0.62c-0.74-0.36-1.49-0.5-2.23-1.11c-1.49-0.5-2.86-1.24-3.97-2.23
			c-2.11-1.49-3.34-2.98-4.47-4.96c-0.74-1.24-1.35-2.73-1.73-4.09c-1.11-4.34-0.74-8.8,0.38-12.52c0-0.61,0.24-0.99,0.37-1.61
			c0-0.37,0.24-0.75,0.37-1.11c0.25-0.87,0.61-1.86,0.99-2.6c0.49-1.12,0.87-2.11,1.25-2.86c0.49-0.37,0.61-0.74,0.61-0.74v-0.13
			c0,0,0.12-0.24,0.62-0.74c0,0,0,0,0-0.24c0.12-0.5,0.74-1.49,1.23-2.48c0.38-1.11,1.13-2.36,1.75-3.72
			c0.49-1.36,1.11-2.85,1.48-4.09c0.62-2.1,1-3.97,1-5.7c0-10.66,0-20.45,0.12-29.13c0-2.98,0.24-5.82,0.24-8.68v-2.72
			c0-1.98,0-3.47,0.13-5.2v-0.74c0-2.24,0.25-4.47,0.25-6.57c0.12-2.36,0.12-4.71,0.37-6.95c0-1.97,0.12-4.33,0.36-6.2
			c0-1.97,0.14-4.08,0.38-5.94c0.12-1.73,0.37-3.59,0.37-5.32c0.38-2.98,0.5-5.46,0.88-8.19c20.56,0.62,41.63,1.86,60.97-2.1
			c26.02-6.2,33.45-27.39,39.65-50.94c-24.91-1.86-50.69-1.61-76.09-1.37c2.22-2.96,4.46-6.19,7.07-10.03
			c1.73-2.36-0.5-0.87,2.22-2.23l1.12-0.75l63.45-3.59l2.86-0.12l3.83-0.25h0.26l279.2-15.74l17.85-1.11l-17.97,0.99L552.86,405.24
			l-5.94-5.57l-62.6-57.13c49.71-1.73,238.21,177.59,301.53,218.49c-0.13,0-0.25,0-0.25,0v0.87l0.25-0.87
			c4.7-1.12,8.43-2.35,11.28-3.48c15.62-6.5,100.83-51.37,173.04-85.81c9.68-4.62,19.13-9.05,28.14-13.17
			c0.23,2.77,0.43,5.55,0.61,8.33c0.09,1.39,0.18,2.78,0.26,4.18s0.15,2.8,0.22,4.2c-9.28,4.05-18.87,8.33-28.55,12.75
			c-56.93,26.01-116.79,56.98-132.2,75.35c-1.74,1.98-1.13,3.6,1.48,4.95c0.37,0.38,1.12,0.5,1.74,0.88
			c15.73-13.15,32.34-28.38,54.28-40.9c4.33-2.48,8.42-4.84,12.51-6.69c0-0.12,0.12-0.12,0.12-0.12c5.58-2.62,11.04-4.47,17.73-5.08
			c5.09-0.38,14.62,1.48,14.62,9.41c0,9.3-1.11,21.19-2.1,30.11c-2.36,22.06-21.57,1.37-25.78,4.35
			c-5.58,4.09,12.39,10.53,15.49,14.99h0.12C940.14,575.28,952.27,575.17,965.09,574.98z"/>
		
			<linearGradient id="SVGID_2_" gradientUnits="userSpaceOnUse" x1="-143.7614" y1="438.535" x2="1484.6025" y2="438.535" gradientTransform="matrix(1 0 0 -1 0 1000)">
			<stop  offset="0" style="stop-color:#999FAF"/>
			<stop  offset="0.1651" style="stop-color:#979DAC"/>
			<stop  offset="0.2643" style="stop-color:#9195A4"/>
			<stop  offset="0.3462" style="stop-color:#878996"/>
			<stop  offset="0.4186" style="stop-color:#787782"/>
			<stop  offset="0.4841" style="stop-color:#656068"/>
			<stop  offset="0.5" style="stop-color:#605960"/>
			<stop  offset="0.5159" style="stop-color:#656068"/>
			<stop  offset="0.5814" style="stop-color:#787782"/>
			<stop  offset="0.6538" style="stop-color:#878996"/>
			<stop  offset="0.7357" style="stop-color:#9195A4"/>
			<stop  offset="0.8349" style="stop-color:#979DAC"/>
			<stop  offset="1" style="stop-color:#999FAF"/>
		</linearGradient>
		<path class="st2" d="M785.85,561.03l-0.24,0.87v-0.87C785.6,561.03,785.72,561.03,785.85,561.03z"/>
		
			<linearGradient id="SVGID_3_" gradientUnits="userSpaceOnUse" x1="-143.7614" y1="338.01" x2="1484.6025" y2="338.01" gradientTransform="matrix(1 0 0 -1 0 1000)">
			<stop  offset="0" style="stop-color:#999FAF"/>
			<stop  offset="0.1651" style="stop-color:#979DAC"/>
			<stop  offset="0.2643" style="stop-color:#9195A4"/>
			<stop  offset="0.3462" style="stop-color:#878996"/>
			<stop  offset="0.4186" style="stop-color:#787782"/>
			<stop  offset="0.4841" style="stop-color:#656068"/>
			<stop  offset="0.5" style="stop-color:#605960"/>
			<stop  offset="0.5159" style="stop-color:#656068"/>
			<stop  offset="0.5814" style="stop-color:#787782"/>
			<stop  offset="0.6538" style="stop-color:#878996"/>
			<stop  offset="0.7357" style="stop-color:#9195A4"/>
			<stop  offset="0.8349" style="stop-color:#979DAC"/>
			<stop  offset="1" style="stop-color:#999FAF"/>
		</linearGradient>
		<path class="st3" d="M399.99,679c-4.82,0-9.66-0.1-14.5-0.23c3.51-13.37,8.91-21.3,17.88-33.67c7.47-0.06,14.95-0.12,22.43-0.12
			c14.49,0,26.65,0.22,37.58,0.69c-6.11,17.38-13.76,26.86-29.25,30.52C425.01,678.08,414.04,679,399.99,679z"/>
		
			<linearGradient id="SVGID_4_" gradientUnits="userSpaceOnUse" x1="-143.7614" y1="338.01" x2="1484.6025" y2="338.01" gradientTransform="matrix(1 0 0 -1 0 1000)">
			<stop  offset="0" style="stop-color:#999FAF"/>
			<stop  offset="0.1651" style="stop-color:#979DAC"/>
			<stop  offset="0.2643" style="stop-color:#9195A4"/>
			<stop  offset="0.3462" style="stop-color:#878996"/>
			<stop  offset="0.4186" style="stop-color:#787782"/>
			<stop  offset="0.4841" style="stop-color:#656068"/>
			<stop  offset="0.5" style="stop-color:#605960"/>
			<stop  offset="0.5159" style="stop-color:#656068"/>
			<stop  offset="0.5814" style="stop-color:#787782"/>
			<stop  offset="0.6538" style="stop-color:#878996"/>
			<stop  offset="0.7357" style="stop-color:#9195A4"/>
			<stop  offset="0.8349" style="stop-color:#979DAC"/>
			<stop  offset="1" style="stop-color:#999FAF"/>
		</linearGradient>
		<path class="st4" d="M399.99,679c-4.82,0-9.66-0.1-14.5-0.23c3.51-13.37,8.91-21.3,17.88-33.67c7.47-0.06,14.95-0.12,22.43-0.12
			c14.49,0,26.65,0.22,37.58,0.69c-6.11,17.38-13.76,26.86-29.25,30.52C425.01,678.08,414.04,679,399.99,679z"/>
		
			<linearGradient id="SVGID_5_" gradientUnits="userSpaceOnUse" x1="-143.7614" y1="200.04" x2="1484.6025" y2="200.04" gradientTransform="matrix(1 0 0 -1 0 1000)">
			<stop  offset="0" style="stop-color:#999FAF"/>
			<stop  offset="0.1651" style="stop-color:#979DAC"/>
			<stop  offset="0.2643" style="stop-color:#9195A4"/>
			<stop  offset="0.3462" style="stop-color:#878996"/>
			<stop  offset="0.4186" style="stop-color:#787782"/>
			<stop  offset="0.4841" style="stop-color:#656068"/>
			<stop  offset="0.5" style="stop-color:#605960"/>
			<stop  offset="0.5159" style="stop-color:#656068"/>
			<stop  offset="0.5814" style="stop-color:#787782"/>
			<stop  offset="0.6538" style="stop-color:#878996"/>
			<stop  offset="0.7357" style="stop-color:#9195A4"/>
			<stop  offset="0.8349" style="stop-color:#979DAC"/>
			<stop  offset="1" style="stop-color:#999FAF"/>
		</linearGradient>
		<path class="st5" d="M657.58,688.05c-61.72,0-111.91,50.19-111.91,111.91c0,61.71,50.19,111.91,111.91,111.91
			c61.59,0,111.91-50.2,111.91-111.91C769.49,738.24,719.17,688.05,657.58,688.05z M724.75,868.01l-7.68,6.94l-0.74,0.37
			c-1.25,1.11-3.47,2.6-5.58,4.09l-8.68,5.07c-14,7.44-28.88,11.16-44.61,11.16c-15.75,0-30.49-3.72-44.13-10.9
			c-2.98-1.37-5.94-3.22-8.8-5.08c-2.23-1.49-4.45-3.1-6.69-4.83l-7.19-6.57c-10.53-10.29-18.22-22.18-23.04-35.69
			c-3.85-10.66-5.83-21.57-5.83-32.59c0-5.34,0.5-10.78,1.49-16.24c0.38-3.1,1.11-6.56,2.36-10.15c0.5-2.24,1.36-4.96,2.23-7.44
			c1.25-3.22,2.72-6.44,4.34-9.42c14-27.63,40.64-46.97,71.26-51.44c3.34-0.62,6.69-0.86,10.03-0.98c1.23-0.13,2.48-0.13,3.97-0.13
			c1.73,0,3.1,0,4.71,0.13c2.98,0.12,6.32,0.36,9.67,0.98c30.73,4.59,57.25,23.93,71.13,51.69c1.37,2.47,2.86,5.45,4.21,9.29
			c0.87,2.47,1.86,5.21,2.6,7.93c0.87,2.98,1.62,6.32,2.12,9.67c0.86,5.07,1.36,10.41,1.36,16.11c0,11.28-1.85,22.18-5.7,32.59
			C742.6,845.94,734.78,858.22,724.75,868.01z"/>
		
			<linearGradient id="SVGID_6_" gradientUnits="userSpaceOnUse" x1="-143.7614" y1="200.09" x2="1484.6025" y2="200.09" gradientTransform="matrix(1 0 0 -1 0 1000)">
			<stop  offset="0" style="stop-color:#999FAF"/>
			<stop  offset="0.1651" style="stop-color:#979DAC"/>
			<stop  offset="0.2643" style="stop-color:#9195A4"/>
			<stop  offset="0.3462" style="stop-color:#878996"/>
			<stop  offset="0.4186" style="stop-color:#787782"/>
			<stop  offset="0.4841" style="stop-color:#656068"/>
			<stop  offset="0.5" style="stop-color:#605960"/>
			<stop  offset="0.5159" style="stop-color:#656068"/>
			<stop  offset="0.5814" style="stop-color:#787782"/>
			<stop  offset="0.6538" style="stop-color:#878996"/>
			<stop  offset="0.7357" style="stop-color:#9195A4"/>
			<stop  offset="0.8349" style="stop-color:#979DAC"/>
			<stop  offset="1" style="stop-color:#999FAF"/>
		</linearGradient>
		<path class="st6" d="M745.82,784.85c-0.5-3.1-1.25-6.2-2.11-9.17c-0.62-2.48-1.49-4.96-2.36-7.31c-1.11-2.98-2.35-5.83-3.97-8.68
			c-12.63-25.4-37.42-43.99-66.54-48.34c-3.1-0.5-6.2-0.74-9.29-0.86c-1.37-0.13-2.6-0.13-4.09-0.13c-1.25,0-2.36,0-3.73,0.13
			c-3.1,0.12-6.2,0.36-9.42,0.86c-29.24,4.34-53.78,22.8-66.67,48.34c-1.49,2.72-2.84,5.7-3.97,8.68c-0.86,2.23-1.61,4.71-2.23,7.19
			c-0.99,2.97-1.73,6.06-2.11,9.29c-0.87,4.83-1.37,9.91-1.37,15.12c0,10.65,1.98,20.94,5.46,30.49
			c4.59,12.64,11.9,23.91,21.31,33.21l7.07,6.32c1.99,1.62,3.97,3.1,6.2,4.47c2.6,1.73,5.33,3.47,8.18,4.83
			c12.39,6.57,26.4,10.17,41.27,10.17c15.12,0,29.12-3.72,41.51-10.29l8.3-4.83c1.99-1.37,4.09-2.86,6.08-4.47l0.24-0.12l6.45-5.82
			l0.38-0.37c9.41-9.17,16.73-20.57,21.31-33.09c3.47-9.55,5.33-19.84,5.33-30.49C747.06,794.76,746.68,789.8,745.82,784.85z
			 M734.42,771.09c0.74,2.11,1.61,4.33,2.11,6.44c0,0.25,0.12,0.25,0.12,0.38l-51.44,16.73l-9.41,3.1c0-0.24-0.12-0.36-0.12-0.48
			c-0.25-2.36-1.11-4.59-2.11-6.45c-0.25-0.12-0.25-0.24-0.25-0.37l9.55-2.97l51.42-16.74
			C734.29,770.84,734.29,770.97,734.42,771.09z M670.85,718.91c25.4,4.09,47.47,20.2,59.48,43.12l-37.93,12.39l-15.36,4.96
			l-6.2,1.99v-62.46H670.85z M653.73,717.92h0.25c1.37-0.12,2.23-0.12,3.1-0.12h3.59c0.24,0,0.62,0,0.87,0.12v64.19h-0.13
			l-0.12-0.12c-1.11-0.12-2.35-0.24-3.47-0.24c-1.23,0-2.6,0.12-3.84,0.36c-0.12,0-0.12,0-0.12,0h-0.13V717.92z M657.46,791.78
			c4.59,0,8.18,3.6,8.18,8.06c0,4.45-3.59,8.17-8.18,8.17c-4.47,0-8.06-3.72-8.06-8.17C649.4,795.38,653,791.78,657.46,791.78z
			 M644.32,718.91v62.46l-6.08-1.99L623,774.42l-38.29-12.51C596.85,738.99,618.91,722.88,644.32,718.91z M578.4,777.78
			c0.74-2.11,1.36-4.47,2.23-6.57c0.12-0.12,0.12-0.38,0.24-0.62l51.44,16.86l9.91,3.1c0,0.12-0.12,0.12-0.12,0.12
			c-1.23,2.11-1.98,4.45-2.36,6.93c0,0.12,0,0.12,0,0.25l-9.66-3.23L578.4,777.9C578.4,777.78,578.4,777.78,578.4,777.78z
			 M599.21,857.59c-7.81-7.93-13.88-17.1-17.85-27.13c-3.84-9.55-5.94-19.96-5.94-30.49c0-4.34,0.24-8.68,1.11-12.89l38.29,12.51
			l15.25,4.96l6.06,1.98l-3.84,5.33L623,824.75l-4.21,5.7L599.21,857.59z M612.34,868.5c-0.12-0.13-0.12-0.13-0.12-0.13
			c-2.23-1.49-3.97-2.84-5.94-4.21c0-0.12,0-0.12-0.13-0.24l24.29-33.46l7.81-10.66l5.83-8.05c0.12,0.12,0.24,0.24,0.24,0.36
			c1.49,1.61,3.22,3.1,5.34,3.97c0.12,0.12,0.36,0.24,0.5,0.24l-5.83,8.06l-4.45,6.08L612.34,868.5z M657.46,882.01
			c-13.02,0-25.54-2.98-36.94-8.8l23.79-32.85l7.19-9.91l2.23-3.1l3.97-5.2l3.85,5.33l2.11,2.98l7.19,9.91l23.66,32.71
			C683.24,879.03,670.71,882.01,657.46,882.01z M708.52,864.16c-1.49,1.25-3.35,2.6-5.46,3.85l-0.12,0.24l-27.64-37.8l-4.45-6.2
			l-5.58-7.81c0.12-0.13,0.24-0.25,0.5-0.37c1.85-0.87,3.72-2.11,5.2-3.72c0-0.12,0.24-0.38,0.38-0.5l5.7,7.93l7.67,10.66
			l24.17,33.46L708.52,864.16z M733.8,830.45c-3.97,9.91-9.92,19.09-17.85,27.01l-19.46-27.01l-4.09-5.7l-9.54-12.89l-3.72-5.33
			l6.06-1.98l15.37-4.96l38.05-12.39c0.62,4.33,1.11,8.42,1.11,12.77C739.75,810.5,737.64,820.78,733.8,830.45z"/>
		<path class="st7" d="M500.44,503.27c0.74-0.12,1.48-0.24,2.35-0.36l-17.72,58.24c-5.08-4.59-8.42-10.53-10.17-16.98
			c-2.72,1.37-5.45,2.48-8.54,3.47c-22.68,7.19-41.15-1.11-52.43-15.37c-10.9,1.49-21.81,0.75-32.59-1.97l-0.12-0.13
			c-4.09-0.99-7.94-2.35-11.9-3.84c-5.58-1.86-11.16-3.85-16.61-6.32c-19.84-9.43-34.95-28.88-41.52-49.45
			c-3.97-12.65-4.71-26.03-2.6-38.91c-37.18-5.71-61.35-40.65-63.45-76.1c-23.79-9.54-44.24-26.89-57.38-49.69
			c-56.39-21.19-71.26-117.86,2.36-141.03c8.8-2.72,17.22-3.97,25.03-3.85c10.9-9.04,23.67-16.23,37.93-20.7
			c59.48-18.83,124.91,15.25,143.63,74.73c2.72,8.68,4.33,17.48,4.95,26.15c24.42,22.43,26.39,69.77-11.64,85.38
			c4.33,11.02,6.56,22.92,6.08,34.7c5.33,0.38,10.53,1.25,15.73,2.6c0,0,0,0,0-0.12c3.84-7.81,10.78-14.26,21.57-17.72
			c37.42-11.78,59.11,33.95,40.28,58.61c3.72,6.08,6.81,12.39,8.92,18.97c3.97,12.89,4.83,26.52,2.6,39.66
			C495.11,473.78,500.69,488.65,500.44,503.27z"/>
		<path class="st7" d="M534.64,600.31c-10.78,3.47-19.84,0.25-25.9-6.08l24.53-81.29c10.17,9.91,13.51,25.52,7.31,38.79
			C556.71,562.76,559.18,592.62,534.64,600.31z"/>
		<g>
			<path class="st7" d="M439.72,208.93c-22.87,7.23-11.69,42.71,11.22,35.5C473.84,237.2,462.65,201.69,439.72,208.93z"/>
		</g>
		<g>
			<path class="st7" d="M143.22,317.68c-32.06,10.11-16.4,59.8,15.66,49.7C190.94,357.26,175.26,307.56,143.22,317.68z"/>
		</g>
		
			<linearGradient id="SVGID_7_" gradientUnits="userSpaceOnUse" x1="-143.7614" y1="438.535" x2="1484.6025" y2="438.535" gradientTransform="matrix(1 0 0 -1 0 1000)">
			<stop  offset="0" style="stop-color:#999FAF"/>
			<stop  offset="0.1651" style="stop-color:#979DAC"/>
			<stop  offset="0.2643" style="stop-color:#9195A4"/>
			<stop  offset="0.3462" style="stop-color:#878996"/>
			<stop  offset="0.4186" style="stop-color:#787782"/>
			<stop  offset="0.4841" style="stop-color:#656068"/>
			<stop  offset="0.5" style="stop-color:#605960"/>
			<stop  offset="0.5159" style="stop-color:#656068"/>
			<stop  offset="0.5814" style="stop-color:#787782"/>
			<stop  offset="0.6538" style="stop-color:#878996"/>
			<stop  offset="0.7357" style="stop-color:#9195A4"/>
			<stop  offset="0.8349" style="stop-color:#979DAC"/>
			<stop  offset="1" style="stop-color:#999FAF"/>
		</linearGradient>
		<path class="st8" d="M785.85,561.03l-0.24,0.87v-0.87C785.6,561.03,785.72,561.03,785.85,561.03z"/>
		
			<linearGradient id="SVGID_8_" gradientUnits="userSpaceOnUse" x1="-143.7614" y1="490.84" x2="1484.6025" y2="490.84" gradientTransform="matrix(1 0 0 -1 0 1000)">
			<stop  offset="0" style="stop-color:#999FAF"/>
			<stop  offset="0.1651" style="stop-color:#979DAC"/>
			<stop  offset="0.2643" style="stop-color:#9195A4"/>
			<stop  offset="0.3462" style="stop-color:#878996"/>
			<stop  offset="0.4186" style="stop-color:#787782"/>
			<stop  offset="0.4841" style="stop-color:#656068"/>
			<stop  offset="0.5" style="stop-color:#605960"/>
			<stop  offset="0.5159" style="stop-color:#656068"/>
			<stop  offset="0.5814" style="stop-color:#787782"/>
			<stop  offset="0.6538" style="stop-color:#878996"/>
			<stop  offset="0.7357" style="stop-color:#9195A4"/>
			<stop  offset="0.8349" style="stop-color:#979DAC"/>
			<stop  offset="1" style="stop-color:#999FAF"/>
		</linearGradient>
		<polygon class="st9" points="548.89,418.38 492.5,604.9 484.58,605.39 542.95,412.93 544.56,414.41 		"/>
	</g>
	
		<linearGradient id="SVGID_9_" gradientUnits="userSpaceOnUse" x1="-143.7614" y1="338.015" x2="1484.6025" y2="338.015" gradientTransform="matrix(1 0 0 -1 0 1000)">
		<stop  offset="0" style="stop-color:#999FAF"/>
		<stop  offset="0.1651" style="stop-color:#979DAC"/>
		<stop  offset="0.2643" style="stop-color:#9195A4"/>
		<stop  offset="0.3462" style="stop-color:#878996"/>
		<stop  offset="0.4186" style="stop-color:#787782"/>
		<stop  offset="0.4841" style="stop-color:#656068"/>
		<stop  offset="0.5" style="stop-color:#605960"/>
		<stop  offset="0.5159" style="stop-color:#656068"/>
		<stop  offset="0.5814" style="stop-color:#787782"/>
		<stop  offset="0.6538" style="stop-color:#878996"/>
		<stop  offset="0.7357" style="stop-color:#9195A4"/>
		<stop  offset="0.8349" style="stop-color:#979DAC"/>
		<stop  offset="1" style="stop-color:#999FAF"/>
	</linearGradient>
	<path class="st10" d="M414.21,647.76c0,0-17.68,9.62-24.45,28.45L414.21,647.76z"/>
</g>
<path class="st11" d="M999.97,505.47c-0.01,1.33-0.03,2.66-0.06,3.99c-0.03,1.57-0.06,3.15-0.11,4.72
	c-0.04,1.37-0.08,2.75-0.13,4.12c-0.02,0.48-0.03,0.96-0.06,1.43c-0.04,1.28-0.1,2.56-0.16,3.84c-0.05,1.22-0.11,2.43-0.18,3.64
	c-0.03,0.57-0.06,1.14-0.09,1.71c-0.08,1.34-0.16,2.67-0.25,4c-0.07,1.05-0.14,2.09-0.21,3.12c-0.06,0.78-0.11,1.55-0.17,2.32
	c-0.1,1.32-0.21,2.63-0.32,3.94c-0.12,1.52-0.26,3.04-0.4,4.56c-0.13,1.42-0.27,2.84-0.41,4.26c-0.02,0.12-0.03,0.24-0.04,0.37
	c-0.31,3.03-0.65,6.05-1.01,9.06c-0.21,1.77-0.44,3.54-0.67,5.3c-0.17,1.33-0.35,2.67-0.54,4c-0.21,1.52-0.43,3.04-0.66,4.56
	c-0.02,0.16-0.05,0.31-0.07,0.47c-0.21,1.37-0.42,2.73-0.63,4.09c-0.18,1.13-0.36,2.25-0.55,3.37c-0.07,0.42-0.14,0.84-0.21,1.26
	c-0.23,1.37-0.47,2.74-0.71,4.11c-0.82,4.65-1.71,9.28-2.66,13.88c-0.61,2.99-1.26,5.97-1.93,8.94c-0.34,1.49-0.68,2.97-1.03,4.45
	c-0.26,1.13-0.53,2.26-0.81,3.39c-0.16,0.67-0.32,1.33-0.49,2c-0.62,2.53-1.27,5.06-1.93,7.58c-0.44,1.66-0.88,3.31-1.34,4.96
	c-0.28,1-0.56,2.01-0.84,3.01c-0.92,3.29-1.88,6.56-2.87,9.82c-0.44,1.43-0.88,2.85-1.33,4.27c-0.45,1.44-0.91,2.88-1.37,4.31
	c-1.39,4.3-2.84,8.57-4.35,12.81c-0.46,1.31-0.93,2.61-1.4,3.91c-0.61,1.67-1.23,3.34-1.85,5c-0.47,1.25-0.95,2.5-1.43,3.75
	c-2.02,5.23-4.12,10.42-6.3,15.56c-0.4,0.94-0.81,1.89-1.22,2.83c-0.33,0.78-0.67,1.56-1.01,2.33c-0.6,1.37-1.21,2.73-1.82,4.09
	c-0.61,1.36-1.22,2.72-1.85,4.07c-0.62,1.35-1.25,2.7-1.88,4.05c-0.98,2.08-1.97,4.14-2.98,6.2c-0.46,0.97-0.94,1.93-1.41,2.89
	c-0.16,0.32-0.32,0.63-0.47,0.94c-0.63,1.26-1.26,2.51-1.89,3.75c-1.82,3.57-3.67,7.11-5.57,10.62c-0.4,0.74-0.8,1.48-1.21,2.22
	c-0.46,0.86-0.93,1.71-1.41,2.56c-0.45,0.84-0.92,1.67-1.38,2.49c-0.73,1.3-1.46,2.59-2.19,3.87c-0.74,1.29-1.48,2.57-2.23,3.84
	c-0.66,1.13-1.32,2.25-1.99,3.37c-1.6,2.69-3.23,5.37-4.89,8.03c-0.52,0.85-1.05,1.7-1.59,2.54c-0.48,0.79-0.98,1.57-1.49,2.36
	c-0.45,0.7-0.9,1.41-1.35,2.1c-1.7,2.65-3.43,5.28-5.19,7.89c-0.63,0.94-1.27,1.88-1.91,2.82c-0.38,0.57-0.78,1.14-1.17,1.72
	c-0.64,0.92-1.28,1.85-1.92,2.77c-1.69,2.42-3.4,4.82-5.13,7.21c-0.86,1.19-1.73,2.38-2.61,3.57c-2.5,3.4-5.05,6.77-7.65,10.1
	c-0.22,0.29-0.44,0.58-0.67,0.87c-0.72,0.91-1.43,1.82-2.15,2.73c-0.19,0.23-0.37,0.47-0.56,0.7c-0.82,1.03-1.64,2.06-2.47,3.09
	c-2.02,2.5-4.07,4.99-6.14,7.45c-0.73,0.87-1.46,1.73-2.19,2.59c-0.14,0.16-0.28,0.32-0.41,0.48c-0.87,1.01-1.73,2.02-2.6,3.02
	c-0.97,1.11-1.94,2.22-2.91,3.32c-2.85,3.24-5.75,6.45-8.71,9.61c-2.93,3.17-5.92,6.3-8.96,9.39c-1.49,1.54-3.01,3.07-4.54,4.58
	c-0.03,0.02-0.05,0.05-0.07,0.07c-1.52,1.52-3.04,3.02-4.58,4.49c-1.44,1.41-2.88,2.79-4.34,4.17c-0.38,0.35-0.76,0.71-1.14,1.06
	c-1.19,1.14-2.38,2.25-3.58,3.35c-0.21,0.19-0.42,0.39-0.63,0.58c-1.28,1.18-2.57,2.36-3.87,3.52l-1.68,1.5
	c-0.89,0.81-1.78,1.6-2.68,2.37c-0.56,0.51-1.13,1-1.7,1.49c-1.1,0.98-2.2,1.93-3.31,2.86c-0.53,0.46-1.06,0.92-1.6,1.38
	c-1.45,1.23-2.91,2.46-4.38,3.67c-0.02,0.02-0.04,0.04-0.06,0.05c-1.66,1.39-3.33,2.75-5.01,4.11c-1.48,1.2-2.97,2.39-4.47,3.56
	c-1.9,1.51-3.81,3-5.73,4.47c-3.44,2.64-6.91,5.23-10.42,7.77c-1.61,1.17-3.22,2.33-4.85,3.48c-0.41,0.29-0.83,0.58-1.24,0.87
	c-1.5,1.06-3,2.1-4.51,3.14c-0.02,0.01-0.04,0.02-0.05,0.03c-1.78,1.23-3.56,2.44-5.36,3.63c-1.57,1.06-3.15,2.1-4.74,3.13
	c-0.51,0.33-1.01,0.66-1.51,0.98c-1.2,0.78-2.4,1.55-3.6,2.3c-0.6,0.4-1.2,0.77-1.8,1.14c-1.53,0.97-3.06,1.93-4.61,2.86
	c-0.1,0.07-0.2,0.13-0.3,0.19c-1.54,0.95-3.08,1.89-4.64,2.81c-0.39,0.24-0.77,0.47-1.16,0.7c-1.76,1.05-3.53,2.09-5.31,3.11
	c-1.82,1.05-3.64,2.09-5.48,3.12c-8.03,4.5-16.19,8.79-24.48,12.85c-1.58,0.79-3.17,1.55-4.77,2.31c-1.77,0.85-3.54,1.68-5.32,2.5
	c-5.18,2.39-10.4,4.7-15.66,6.92c-1.01,0.43-2.02,0.85-3.04,1.27c-4.06,1.68-8.15,3.31-12.26,4.88c-1.02,0.4-2.05,0.79-3.08,1.17
	c-1.25,0.47-2.5,0.93-3.75,1.39c-1.66,0.61-3.32,1.21-4.99,1.8c-10.6,3.75-21.36,7.15-32.27,10.2c-1.07,0.3-2.14,0.6-3.22,0.88
	c-1.16,0.32-2.31,0.63-3.48,0.94c-1.86,0.49-3.74,0.97-5.61,1.44c-4.55,1.15-9.12,2.23-13.72,3.25c-1.08,0.24-2.15,0.47-3.23,0.7
	c-7.98,1.71-16.02,3.23-24.14,4.56c-0.81,0.13-1.62,0.26-2.42,0.39c-1.92,0.3-3.85,0.6-5.79,0.88c-0.74,0.11-1.49,0.22-2.24,0.32
	c-0.68,0.1-1.36,0.2-2.05,0.29c-1.12,0.16-2.25,0.31-3.37,0.45c-8.9,1.17-17.87,2.09-26.91,2.78c-0.81,0.06-1.63,0.12-2.45,0.18
	c-0.44,0.03-0.88,0.06-1.33,0.09c-1.14,0.08-2.29,0.16-3.44,0.23c-1.96,0.12-3.93,0.23-5.9,0.33c-0.83,0.04-1.67,0.08-2.51,0.12
	c-1.8,0.08-3.61,0.15-5.42,0.21c-1.16,0.04-2.31,0.08-3.47,0.11c-1.16,0.03-2.32,0.06-3.48,0.08c-1.16,0.03-2.32,0.05-3.48,0.06
	c-2.33,0.03-4.66,0.05-6.99,0.05C223.86,1000,0,776.14,0,500S223.86,0,500,0c2.05,0,4.1,0.01,6.14,0.04
	c2.04,0.02,4.08,0.06,6.12,0.11c1.88,0.04,3.75,0.1,5.63,0.17c0.48,0.01,0.96,0.03,1.44,0.05c1.71,0.06,3.41,0.13,5.11,0.22
	c3.99,0.19,7.97,0.43,11.93,0.72c0.12,0,0.25,0.01,0.38,0.03c1.95,0.13,3.89,0.28,5.82,0.45c2.01,0.17,4,0.35,6,0.54
	c1.9,0.18,3.8,0.38,5.7,0.58c0.27,0.03,0.55,0.06,0.83,0.09c1.81,0.2,3.62,0.41,5.42,0.63h0.03c1.97,0.24,3.94,0.49,5.91,0.75
	c1.73,0.23,3.46,0.47,5.19,0.72c0.51,0.07,1.03,0.14,1.54,0.22c1.7,0.25,3.39,0.5,5.09,0.77c1.35,0.21,2.71,0.43,4.06,0.66
	c1.03,0.17,2.06,0.34,3.09,0.52c1.43,0.25,2.86,0.5,4.29,0.76c1.64,0.3,3.29,0.6,4.93,0.92c0.74,0.14,1.49,0.28,2.23,0.43
	c1.05,0.2,2.09,0.41,3.13,0.63c0.26,0.04,0.51,0.1,0.76,0.15c0.7,0.14,1.39,0.28,2.08,0.43c1.63,0.34,3.26,0.69,4.89,1.04
	c1.73,0.39,3.45,0.77,5.18,1.17c0.08,0.02,0.16,0.04,0.24,0.06c1.56,0.36,3.12,0.73,4.68,1.11c0.73,0.17,1.46,0.35,2.19,0.54
	c1.53,0.37,3.05,0.75,4.57,1.14c0.12,0.03,0.24,0.06,0.36,0.09c1.61,0.41,3.21,0.84,4.81,1.27c0.39,0.1,0.77,0.2,1.16,0.31
	c1.67,0.45,3.33,0.91,4.99,1.38c0.32,0.09,0.64,0.18,0.96,0.27c1.42,0.4,2.84,0.81,4.25,1.23c0.55,0.16,1.11,0.32,1.67,0.49
	c1.32,0.39,2.65,0.79,3.97,1.2c2.15,0.66,4.29,1.33,6.43,2.02c1.28,0.41,2.55,0.82,3.82,1.25c0.15,0.04,0.29,0.09,0.43,0.14
	c0.64,0.2,1.27,0.42,1.9,0.63c2.27,0.76,4.54,1.54,6.8,2.34c1.03,0.36,2.06,0.73,3.09,1.1c1.77,0.64,3.55,1.28,5.31,1.95
	c0.07,0.02,0.15,0.05,0.23,0.08c1.48,0.55,2.95,1.1,4.41,1.67c0.44,0.16,0.87,0.33,1.3,0.5c1.13,0.44,2.27,0.88,3.4,1.33
	c0.76,0.3,1.52,0.6,2.28,0.91c1.11,0.45,2.22,0.9,3.33,1.35c0.74,0.3,1.48,0.61,2.22,0.91c1.03,0.43,2.06,0.87,3.1,1.3
	c1.38,0.59,2.76,1.18,4.13,1.78c0.58,0.25,1.16,0.5,1.74,0.76c1.53,0.66,3.05,1.34,4.57,2.03c0.21,0.1,0.43,0.19,0.65,0.29
	c1.08,0.49,2.16,0.98,3.24,1.49c0.91,0.41,1.82,0.83,2.73,1.26c0.26,0.12,0.52,0.24,0.78,0.37c1.52,0.71,3.04,1.44,4.55,2.17
	c1.73,0.83,3.45,1.68,5.17,2.53c3.56,1.77,7.1,3.58,10.61,5.44c1.79,0.94,3.57,1.89,5.34,2.86c3.32,1.8,6.62,3.64,9.89,5.51
	c1.32,0.76,2.63,1.52,3.94,2.3c0.22,0.12,0.45,0.25,0.67,0.39c0.88,0.51,1.76,1.02,2.63,1.55c1.24,0.73,2.48,1.48,3.71,2.23
	c0.12,0.07,0.23,0.14,0.35,0.21c1.51,0.92,3.01,1.84,4.51,2.78c0.26,0.16,0.52,0.32,0.78,0.49c1.53,0.95,3.05,1.91,4.56,2.88
	c0.1,0.06,0.2,0.13,0.29,0.19c1.46,0.93,2.91,1.87,4.35,2.83c0.4,0.25,0.79,0.51,1.18,0.77c1.29,0.85,2.57,1.7,3.85,2.57
	c0.27,0.17,0.53,0.35,0.8,0.54c1.38,0.93,2.75,1.87,4.12,2.82c0.35,0.23,0.69,0.47,1.04,0.72c1.41,0.97,2.81,1.96,4.21,2.96
	c0.11,0.07,0.22,0.15,0.33,0.23c1.18,0.83,2.36,1.68,3.53,2.54c0.75,0.53,1.49,1.07,2.22,1.61c0.37,0.27,0.74,0.54,1.11,0.83
	c1.21,0.87,2.41,1.77,3.61,2.67c1.4,1.05,2.79,2.11,4.18,3.18c1.51,1.15,3.01,2.31,4.5,3.5c1.58,1.23,3.14,2.47,4.7,3.73
	c1.17,0.94,2.33,1.89,3.5,2.84c3.48,2.86,6.91,5.76,10.32,8.71c1.51,1.3,3.02,2.62,4.51,3.96c1.46,1.29,2.92,2.59,4.36,3.9
	c0.17,0.16,0.34,0.31,0.51,0.47c1.35,1.22,2.68,2.45,4.01,3.7c1.47,1.35,2.92,2.73,4.37,4.11c1.41,1.34,2.8,2.68,4.19,4.04
	c0.12,0.11,0.24,0.23,0.36,0.36c1.26,1.22,2.51,2.46,3.74,3.7c0.26,0.24,0.5,0.48,0.72,0.72c1.13,1.12,2.24,2.24,3.34,3.37
	c0.34,0.34,0.68,0.69,1,1.03c1.03,1.04,2.04,2.09,3.03,3.14c0.37,0.37,0.72,0.74,1.06,1.11c1.23,1.28,2.44,2.56,3.63,3.86
	c1.13,1.2,2.24,2.41,3.34,3.62c0.4,0.42,0.79,0.85,1.17,1.28c1.2,1.32,2.39,2.64,3.56,3.98c1.16,1.29,2.3,2.59,3.43,3.9
	c0.28,0.32,0.56,0.64,0.83,0.96c0.95,1.09,1.88,2.18,2.8,3.27c0.37,0.42,0.72,0.83,1.06,1.25c1.22,1.43,2.41,2.86,3.59,4.3
	c1.05,1.26,2.08,2.53,3.11,3.8c1.49,1.83,2.97,3.69,4.42,5.55c1.15,1.46,2.29,2.92,3.42,4.39c2.79,3.63,5.53,7.3,8.21,11.01
	c0.94,1.27,1.86,2.56,2.77,3.85c1.39,1.95,2.77,3.91,4.12,5.89c0.88,1.26,1.74,2.51,2.59,3.78c1.41,2.08,2.8,4.17,4.17,6.28
	c0.84,1.27,1.67,2.55,2.49,3.83c0.1,0.14,0.19,0.29,0.28,0.44c0.94,1.45,1.86,2.92,2.78,4.39c0.27,0.43,0.55,0.87,0.81,1.31
	c0.67,1.06,1.32,2.12,1.97,3.19c0.49,0.79,0.97,1.58,1.44,2.37c0.46,0.75,0.91,1.5,1.35,2.26c0.72,1.19,1.42,2.38,2.12,3.58
	c0.16,0.27,0.32,0.54,0.48,0.82c0.79,1.35,1.57,2.71,2.35,4.07c0.24,0.42,0.48,0.85,0.72,1.27c0.67,1.18,1.34,2.37,2,3.57
	c0.4,0.72,0.8,1.44,1.18,2.16c0.52,0.91,1.01,1.82,1.5,2.74c0.6,1.1,1.2,2.2,1.77,3.31c0.27,0.49,0.53,0.98,0.78,1.47
	c0.69,1.29,1.37,2.59,2.03,3.89c1.14,2.19,2.25,4.39,3.35,6.61c0.74,1.49,1.48,2.99,2.2,4.49c0.51,1.05,1.02,2.1,1.51,3.15
	c0.57,1.18,1.13,2.37,1.68,3.55c1.93,4.15,3.81,8.32,5.63,12.53c0.56,1.28,1.11,2.58,1.66,3.87c0.04,0.09,0.08,0.18,0.11,0.27
	c0.63,1.49,1.26,2.99,1.87,4.49c0.7,1.7,1.39,3.41,2.07,5.12c0.19,0.47,0.38,0.93,0.56,1.41c0.56,1.41,1.11,2.82,1.65,4.24
	c0.55,1.43,1.1,2.87,1.63,4.31c0.36,0.95,0.71,1.91,1.06,2.87c0.45,1.23,0.9,2.46,1.34,3.7c1.28,3.57,2.51,7.15,3.7,10.76
	c0.2,0.58,0.39,1.17,0.58,1.76c1.05,3.19,2.06,6.39,3.04,9.61c0.34,1.09,0.67,2.19,0.99,3.28c0.1,0.33,0.2,0.66,0.29,0.99
	c0.2,0.65,0.39,1.31,0.58,1.97c1.15,3.94,2.25,7.91,3.3,11.89c0.36,1.35,0.71,2.7,1.05,4.05c0.07,0.28,0.14,0.56,0.21,0.84
	c0.35,1.37,0.69,2.74,1.02,4.11c0.14,0.54,0.27,1.08,0.39,1.62c0.43,1.75,0.84,3.5,1.24,5.26c0.4,1.73,0.79,3.47,1.17,5.21
	c0.11,0.5,0.21,0.99,0.32,1.48c0.33,1.54,0.65,3.07,0.96,4.61c0.04,0.17,0.07,0.35,0.11,0.53c0.33,1.61,0.65,3.22,0.95,4.84
	c0.11,0.52,0.21,1.04,0.3,1.56c0.32,1.65,0.63,3.3,0.92,4.95c0.03,0.12,0.05,0.25,0.07,0.38c0.25,1.4,0.49,2.79,0.73,4.19
	c0.11,0.66,0.23,1.32,0.33,1.98c0.02,0.12,0.05,0.25,0.06,0.37c0.27,1.6,0.53,3.2,0.77,4.81c0.22,1.37,0.42,2.75,0.62,4.12
	c0.11,0.7,0.21,1.39,0.3,2.09c0.26,1.79,0.5,3.58,0.74,5.37c0.3,2.26,0.58,4.52,0.84,6.78c0.18,1.5,0.35,3.02,0.51,4.53
	c0.04,0.35,0.08,0.71,0.11,1.07c0.19,1.74,0.36,3.48,0.53,5.23c0.03,0.3,0.06,0.61,0.08,0.91c0.16,1.64,0.3,3.28,0.44,4.93
	c0.02,0.23,0.04,0.46,0.06,0.69v0.01c0.23,2.77,0.43,5.55,0.61,8.33c0.09,1.39,0.18,2.78,0.26,4.18s0.15,2.8,0.22,4.2
	c0.01,0.19,0.02,0.39,0.02,0.58c0.08,1.6,0.15,3.2,0.21,4.81c0.02,0.33,0.03,0.67,0.04,1c0.07,1.98,0.13,3.95,0.18,5.93
	c0.05,1.98,0.08,3.96,0.11,5.94v0.25c0.03,2.06,0.04,4.14,0.04,6.21C1000,501.83,999.99,503.65,999.97,505.47z"/>
</svg>
