<?xml version="1.0" encoding="utf-8"?>
<!-- Generator: Adobe Illustrator 25.0.0, SVG Export Plug-In . SVG Version: 6.00 Build 0)  -->
<svg version="1.1" id="Layer_1" xmlns="http://www.w3.org/2000/svg" xmlns:xlink="http://www.w3.org/1999/xlink" x="0px" y="0px"
	 viewBox="0 0 581.12 113.78" style="enable-background:new 0 0 581.12 113.78;" xml:space="preserve">
<style type="text/css">
	.st0{fill:url(#SVGID_1_);}
	.st1{fill:url(#SVGID_2_);}
	.st2{fill:url(#SVGID_3_);}
	.st3{fill:url(#SVGID_4_);}
	.st4{fill:url(#SVGID_5_);}
	.st5{fill:#989EAE;}
</style>
<g>
	<g>
		<linearGradient id="SVGID_1_" gradientUnits="userSpaceOnUse" x1="40.4129" y1="-20.2626" x2="40.4129" y2="126.4186">
			<stop  offset="0" style="stop-color:#999FAF"/>
			<stop  offset="0.1651" style="stop-color:#979DAC"/>
			<stop  offset="0.2643" style="stop-color:#9195A4"/>
			<stop  offset="0.3462" style="stop-color:#878996"/>
			<stop  offset="0.4186" style="stop-color:#787782"/>
			<stop  offset="0.4841" style="stop-color:#656068"/>
			<stop  offset="0.5" style="stop-color:#605960"/>
			<stop  offset="0.5159" style="stop-color:#656068"/>
			<stop  offset="0.5814" style="stop-color:#787782"/>
			<stop  offset="0.6538" style="stop-color:#878996"/>
			<stop  offset="0.7357" style="stop-color:#9195A4"/>
			<stop  offset="0.8349" style="stop-color:#979DAC"/>
			<stop  offset="1" style="stop-color:#999FAF"/>
		</linearGradient>
		<path class="st0" d="M14.73,52.94v19.97H0V0h30.91c6.92,0,12.9,0.47,17.94,1.4c5.04,0.93,9.2,2.28,12.48,4.05
			c3.28,1.76,5.71,3.89,7.29,6.39c1.58,2.49,2.37,5.28,2.37,8.37c0,2.58-0.61,4.99-1.83,7.23c-1.22,2.24-2.99,4.25-5.31,6.03
			c-2.32,1.78-5.14,3.3-8.47,4.55c-3.33,1.26-7.11,2.21-11.33,2.85c1.83,0.71,3.46,1.75,4.89,3.1l31.9,28.95H67.7
			c-2.7,0-4.68-0.69-5.95-2.09L33.35,44.78c-0.87-0.81-1.81-1.4-2.82-1.76c-1.02-0.36-2.55-0.53-4.58-0.53h-0.76
			C19.41,42.49,14.73,47.17,14.73,52.94z M14.73,35.31h15.49c4.32,0,8.13-0.35,11.41-1.04c3.28-0.69,6.03-1.68,8.24-2.95
			c2.21-1.27,3.88-2.79,5-4.55c1.12-1.76,1.68-3.71,1.68-5.85c0-4.34-2.15-7.62-6.45-9.82c-4.3-2.2-10.7-3.31-19.19-3.31H14.73
			V35.31z"/>
		<linearGradient id="SVGID_2_" gradientUnits="userSpaceOnUse" x1="161.0036" y1="-20.2626" x2="161.0036" y2="126.4186">
			<stop  offset="0" style="stop-color:#999FAF"/>
			<stop  offset="0.1651" style="stop-color:#979DAC"/>
			<stop  offset="0.2643" style="stop-color:#9195A4"/>
			<stop  offset="0.3462" style="stop-color:#878996"/>
			<stop  offset="0.4186" style="stop-color:#787782"/>
			<stop  offset="0.4841" style="stop-color:#656068"/>
			<stop  offset="0.5" style="stop-color:#605960"/>
			<stop  offset="0.5159" style="stop-color:#656068"/>
			<stop  offset="0.5814" style="stop-color:#787782"/>
			<stop  offset="0.6538" style="stop-color:#878996"/>
			<stop  offset="0.7357" style="stop-color:#9195A4"/>
			<stop  offset="0.8349" style="stop-color:#979DAC"/>
			<stop  offset="1" style="stop-color:#999FAF"/>
		</linearGradient>
		<path class="st1" d="M194.7,0v8.04h-52.51v24.22h42.51v7.73h-42.51v24.88h52.51v8.04h-67.39V0H194.7z"/>
		<linearGradient id="SVGID_3_" gradientUnits="userSpaceOnUse" x1="277.5874" y1="-20.2626" x2="277.5874" y2="126.4186">
			<stop  offset="0" style="stop-color:#999FAF"/>
			<stop  offset="0.1651" style="stop-color:#979DAC"/>
			<stop  offset="0.2643" style="stop-color:#9195A4"/>
			<stop  offset="0.3462" style="stop-color:#878996"/>
			<stop  offset="0.4186" style="stop-color:#787782"/>
			<stop  offset="0.4841" style="stop-color:#656068"/>
			<stop  offset="0.5" style="stop-color:#605960"/>
			<stop  offset="0.5159" style="stop-color:#656068"/>
			<stop  offset="0.5814" style="stop-color:#787782"/>
			<stop  offset="0.6538" style="stop-color:#878996"/>
			<stop  offset="0.7357" style="stop-color:#9195A4"/>
			<stop  offset="0.8349" style="stop-color:#979DAC"/>
			<stop  offset="1" style="stop-color:#999FAF"/>
		</linearGradient>
		<path class="st2" d="M261.33,64.62h47.32v8.29h-62.13V0h14.81V64.62z"/>
		<linearGradient id="SVGID_4_" gradientUnits="userSpaceOnUse" x1="397.9844" y1="-20.2626" x2="397.9844" y2="126.4186">
			<stop  offset="0" style="stop-color:#999FAF"/>
			<stop  offset="0.1651" style="stop-color:#979DAC"/>
			<stop  offset="0.2643" style="stop-color:#9195A4"/>
			<stop  offset="0.3462" style="stop-color:#878996"/>
			<stop  offset="0.4186" style="stop-color:#787782"/>
			<stop  offset="0.4841" style="stop-color:#656068"/>
			<stop  offset="0.5" style="stop-color:#605960"/>
			<stop  offset="0.5159" style="stop-color:#656068"/>
			<stop  offset="0.5814" style="stop-color:#787782"/>
			<stop  offset="0.6538" style="stop-color:#878996"/>
			<stop  offset="0.7357" style="stop-color:#9195A4"/>
			<stop  offset="0.8349" style="stop-color:#979DAC"/>
			<stop  offset="1" style="stop-color:#999FAF"/>
		</linearGradient>
		<path class="st3" d="M398.02,65.08c4.53,0,8.57-0.51,12.13-1.53c3.56-1.02,6.58-2.44,9.04-4.27c2.47-1.83,4.35-4.02,5.65-6.56
			c1.3-2.54,1.95-5.34,1.95-8.4V10c0-5.52,4.48-10,10-10h4.73v44.32c0,4.21-1,8.11-3.01,11.7c-2.01,3.6-4.89,6.71-8.63,9.34
			c-3.74,2.63-8.31,4.69-13.7,6.18c-5.39,1.49-11.45,2.24-18.16,2.24c-6.72,0-12.77-0.75-18.17-2.24
			c-5.39-1.49-9.97-3.55-13.74-6.18c-3.77-2.63-6.65-5.74-8.66-9.34c-2.01-3.6-3.02-7.5-3.02-11.7V0h4.73c5.52,0,10,4.48,10,10
			v34.27c0,3.05,0.65,5.85,1.95,8.4c1.3,2.54,3.18,4.73,5.65,6.56c2.47,1.83,5.49,3.27,9.08,4.3
			C389.44,64.56,393.49,65.08,398.02,65.08z"/>
		<linearGradient id="SVGID_5_" gradientUnits="userSpaceOnUse" x1="533.1912" y1="-20.2626" x2="533.1912" y2="126.4186">
			<stop  offset="0" style="stop-color:#999FAF"/>
			<stop  offset="0.1651" style="stop-color:#979DAC"/>
			<stop  offset="0.2643" style="stop-color:#9195A4"/>
			<stop  offset="0.3462" style="stop-color:#878996"/>
			<stop  offset="0.4186" style="stop-color:#787782"/>
			<stop  offset="0.4841" style="stop-color:#656068"/>
			<stop  offset="0.5" style="stop-color:#605960"/>
			<stop  offset="0.5159" style="stop-color:#656068"/>
			<stop  offset="0.5814" style="stop-color:#787782"/>
			<stop  offset="0.6538" style="stop-color:#878996"/>
			<stop  offset="0.7357" style="stop-color:#9195A4"/>
			<stop  offset="0.8349" style="stop-color:#979DAC"/>
			<stop  offset="1" style="stop-color:#999FAF"/>
		</linearGradient>
		<path class="st4" d="M519.44,32.08L486.79,0h14.73c1.07,0,1.86,0.12,2.36,0.36c0.51,0.24,0.97,0.58,1.37,1.02l28.54,29.21
			c0.36-0.71,0.89-1.49,1.6-2.34l26.94-26.66c0.46-0.47,0.95-0.86,1.49-1.14c0.53-0.29,1.18-0.43,1.95-0.43h14.12l-32.86,31.73
			c-1.87,1.81-1.9,4.79-0.08,6.64l34.15,34.55h-14.65c-1.12,0-2-0.19-2.63-0.59c-0.64-0.39-1.16-0.82-1.57-1.3l-29.31-30.58
			c-0.36,0.71-0.82,1.39-1.37,2.04l-28.54,28.54c-0.46,0.48-0.98,0.91-1.57,1.3c-0.59,0.39-1.41,0.59-2.48,0.59h-13.74l34.2-34.04
			C521.35,37,521.34,33.94,519.44,32.08z"/>
	</g>
	<g>
		<g>
			<path class="st5" d="M98.82,104.4v9.14h-1.46V93.33h5.16c2.33,0,4.07,0.45,5.23,1.35c1.15,0.9,1.73,2.22,1.73,3.96
				c0,0.77-0.13,1.48-0.4,2.11c-0.27,0.64-0.65,1.2-1.15,1.68s-1.1,0.88-1.81,1.19c-0.71,0.31-1.5,0.51-2.39,0.61
				c0.23,0.14,0.43,0.33,0.61,0.57l6.95,8.74h-1.27c-0.15,0-0.28-0.03-0.39-0.09c-0.11-0.06-0.22-0.15-0.32-0.28l-6.47-8.2
				c-0.16-0.21-0.34-0.36-0.52-0.44c-0.19-0.09-0.47-0.13-0.86-0.13H98.82z M98.82,103.31h3.51c0.9,0,1.7-0.11,2.41-0.32
				c0.71-0.22,1.31-0.52,1.8-0.92c0.49-0.4,0.86-0.88,1.12-1.44c0.26-0.56,0.39-1.19,0.39-1.9c0-1.44-0.47-2.5-1.41-3.2
				c-0.94-0.7-2.31-1.04-4.11-1.04h-3.7V103.31z"/>
			<path class="st5" d="M132.78,93.33v1.21h-10.64v8.17H131v1.19h-8.85v8.43h10.64v1.21h-12.11V93.33H132.78z"/>
			<path class="st5" d="M144.29,93.38c0.08,0.03,0.16,0.11,0.24,0.22l13.08,17.51c-0.03-0.29-0.04-0.56-0.04-0.83V93.33h1.29v20.21
				h-0.7c-0.22,0-0.39-0.1-0.53-0.29l-13.14-17.54c0.03,0.29,0.04,0.56,0.04,0.81v17.01h-1.27V93.33h0.71
				C144.11,93.33,144.22,93.35,144.29,93.38z"/>
			<path class="st5" d="M183.77,93.33v1.24h-7.1v18.97h-1.46V94.57h-7.14v-1.24H183.77z"/>
			<path class="st5" d="M210.5,105.2v8.34h-1.47v-8.34l-7.47-11.87h1.27c0.13,0,0.24,0.03,0.32,0.09c0.08,0.06,0.16,0.15,0.24,0.26
				l5.78,9.28c0.13,0.22,0.25,0.43,0.34,0.64c0.09,0.21,0.18,0.41,0.26,0.62c0.08-0.21,0.16-0.42,0.26-0.62
				c0.1-0.2,0.21-0.42,0.34-0.64l5.77-9.28c0.06-0.1,0.13-0.19,0.21-0.26c0.09-0.07,0.2-0.1,0.33-0.1h1.29L210.5,105.2z"/>
			<path class="st5" d="M243.92,103.43c0,1.56-0.23,2.98-0.7,4.25c-0.47,1.27-1.12,2.36-1.97,3.26s-1.86,1.59-3.04,2.08
				c-1.18,0.49-2.49,0.74-3.93,0.74c-1.42,0-2.72-0.25-3.9-0.74c-1.18-0.49-2.19-1.18-3.04-2.08c-0.85-0.9-1.51-1.99-1.98-3.26
				c-0.47-1.27-0.71-2.69-0.71-4.25c0-1.55,0.24-2.96,0.71-4.24c0.47-1.27,1.13-2.36,1.98-3.26c0.85-0.9,1.86-1.6,3.04-2.09
				s2.48-0.74,3.9-0.74c1.44,0,2.75,0.25,3.93,0.74c1.18,0.49,2.2,1.19,3.04,2.09c0.85,0.9,1.5,1.99,1.97,3.26
				C243.69,100.47,243.92,101.88,243.92,103.43z M242.41,103.43c0-1.41-0.2-2.67-0.59-3.8c-0.39-1.12-0.94-2.08-1.65-2.86
				c-0.71-0.78-1.56-1.38-2.56-1.79s-2.11-0.62-3.33-0.62c-1.2,0-2.3,0.21-3.29,0.62c-1,0.41-1.85,1.01-2.57,1.79
				c-0.72,0.78-1.28,1.73-1.67,2.86c-0.4,1.12-0.59,2.39-0.59,3.8c0,1.42,0.2,2.69,0.59,3.8c0.39,1.12,0.95,2.07,1.67,2.85
				c0.72,0.78,1.58,1.38,2.57,1.79c1,0.41,2.09,0.61,3.29,0.61c1.22,0,2.33-0.2,3.33-0.61s1.85-1,2.56-1.79
				c0.71-0.78,1.26-1.73,1.65-2.85C242.21,106.11,242.41,104.85,242.41,103.43z"/>
			<path class="st5" d="M261.86,112.5c0.97,0,1.84-0.17,2.61-0.51c0.77-0.34,1.42-0.81,1.95-1.41c0.53-0.6,0.94-1.31,1.22-2.12
				c0.28-0.81,0.42-1.69,0.42-2.64v-12.5h1.46v12.5c0,1.11-0.18,2.15-0.53,3.12c-0.35,0.97-0.86,1.81-1.52,2.53
				c-0.66,0.72-1.47,1.28-2.41,1.69c-0.95,0.41-2.01,0.61-3.19,0.61s-2.24-0.21-3.19-0.61c-0.95-0.41-1.75-0.97-2.41-1.69
				c-0.66-0.72-1.17-1.56-1.52-2.53c-0.35-0.97-0.53-2.01-0.53-3.12v-12.5h1.47v12.48c0,0.94,0.14,1.82,0.42,2.63
				c0.28,0.81,0.69,1.52,1.21,2.12c0.53,0.6,1.18,1.07,1.94,1.41C260.02,112.33,260.89,112.5,261.86,112.5z"/>
			<path class="st5" d="M282.94,104.4v9.14h-1.46V93.33h5.16c2.33,0,4.07,0.45,5.23,1.35c1.15,0.9,1.73,2.22,1.73,3.96
				c0,0.77-0.13,1.48-0.4,2.11c-0.27,0.64-0.65,1.2-1.15,1.68s-1.1,0.88-1.81,1.19c-0.71,0.31-1.5,0.51-2.39,0.61
				c0.23,0.14,0.43,0.33,0.61,0.57l6.95,8.74h-1.27c-0.15,0-0.28-0.03-0.39-0.09c-0.11-0.06-0.22-0.15-0.32-0.28l-6.47-8.2
				c-0.16-0.21-0.34-0.36-0.52-0.44c-0.19-0.09-0.47-0.13-0.86-0.13H282.94z M282.94,103.31h3.51c0.9,0,1.7-0.11,2.41-0.32
				c0.71-0.22,1.31-0.52,1.8-0.92c0.49-0.4,0.86-0.88,1.12-1.44c0.26-0.56,0.39-1.19,0.39-1.9c0-1.44-0.47-2.5-1.41-3.2
				c-0.94-0.7-2.31-1.04-4.11-1.04h-3.7V103.31z"/>
			<path class="st5" d="M317.47,112.3h9.58v1.24h-11.04V93.33h1.46V112.3z"/>
			<path class="st5" d="M343.8,112.5c0.97,0,1.84-0.17,2.61-0.51c0.77-0.34,1.42-0.81,1.95-1.41c0.53-0.6,0.94-1.31,1.22-2.12
				c0.28-0.81,0.42-1.69,0.42-2.64v-12.5h1.46v12.5c0,1.11-0.18,2.15-0.53,3.12c-0.35,0.97-0.86,1.81-1.52,2.53
				c-0.66,0.72-1.47,1.28-2.41,1.69c-0.95,0.41-2.01,0.61-3.19,0.61s-2.24-0.21-3.19-0.61c-0.95-0.41-1.75-0.97-2.41-1.69
				c-0.66-0.72-1.17-1.56-1.52-2.53c-0.35-0.97-0.53-2.01-0.53-3.12v-12.5h1.47v12.48c0,0.94,0.14,1.82,0.42,2.63
				c0.28,0.81,0.68,1.52,1.21,2.12c0.53,0.6,1.17,1.07,1.94,1.41C341.96,112.33,342.83,112.5,343.8,112.5z"/>
			<path class="st5" d="M367.54,103.17l-6.97-9.84h1.44c0.13,0,0.23,0.03,0.29,0.09c0.06,0.06,0.12,0.12,0.16,0.2l6.14,8.85
				c0.03-0.07,0.06-0.15,0.09-0.22s0.07-0.15,0.12-0.22l5.93-8.4c0.06-0.07,0.12-0.14,0.19-0.21c0.07-0.06,0.15-0.09,0.24-0.09h1.4
				l-6.98,9.77l7.27,10.44h-1.44c-0.13,0-0.24-0.04-0.31-0.12c-0.07-0.08-0.14-0.16-0.19-0.24l-6.37-9.31
				c-0.04,0.14-0.1,0.28-0.2,0.42l-6.26,8.9c-0.07,0.09-0.14,0.17-0.23,0.24c-0.09,0.08-0.19,0.11-0.3,0.11h-1.33L367.54,103.17z"/>
			<path class="st5" d="M393.3,112.5c0.97,0,1.84-0.17,2.61-0.51c0.77-0.34,1.42-0.81,1.95-1.41c0.53-0.6,0.94-1.31,1.22-2.12
				c0.28-0.81,0.42-1.69,0.42-2.64v-12.5h1.46v12.5c0,1.11-0.18,2.15-0.53,3.12c-0.35,0.97-0.86,1.81-1.52,2.53
				c-0.66,0.72-1.47,1.28-2.41,1.69c-0.95,0.41-2.01,0.61-3.19,0.61s-2.24-0.21-3.19-0.61c-0.95-0.41-1.75-0.97-2.41-1.69
				c-0.66-0.72-1.17-1.56-1.52-2.53c-0.35-0.97-0.53-2.01-0.53-3.12v-12.5h1.47v12.48c0,0.94,0.14,1.82,0.42,2.63
				c0.28,0.81,0.68,1.52,1.21,2.12c0.53,0.6,1.17,1.07,1.94,1.41C391.46,112.33,392.33,112.5,393.3,112.5z"/>
			<path class="st5" d="M414.38,104.4v9.14h-1.46V93.33h5.16c2.33,0,4.08,0.45,5.23,1.35c1.15,0.9,1.73,2.22,1.73,3.96
				c0,0.77-0.13,1.48-0.4,2.11c-0.27,0.64-0.65,1.2-1.15,1.68c-0.5,0.48-1.1,0.88-1.81,1.19c-0.7,0.31-1.5,0.51-2.39,0.61
				c0.23,0.14,0.43,0.33,0.62,0.57l6.95,8.74h-1.27c-0.15,0-0.28-0.03-0.39-0.09c-0.11-0.06-0.22-0.15-0.32-0.28l-6.47-8.2
				c-0.16-0.21-0.33-0.36-0.52-0.44c-0.19-0.09-0.47-0.13-0.86-0.13H414.38z M414.38,103.31h3.51c0.89,0,1.7-0.11,2.41-0.32
				c0.71-0.22,1.31-0.52,1.8-0.92c0.49-0.4,0.86-0.88,1.12-1.44c0.26-0.56,0.39-1.19,0.39-1.9c0-1.44-0.47-2.5-1.41-3.2
				c-0.94-0.7-2.31-1.04-4.11-1.04h-3.7V103.31z"/>
			<path class="st5" d="M438.23,113.54h-1.47V93.33h1.47V113.54z"/>
			<path class="st5" d="M462.59,93.33v1.21h-10.64v8.17h8.85v1.19h-8.85v8.43h10.64v1.21h-12.11V93.33H462.59z"/>
			<path class="st5" d="M482.86,95.79c-0.09,0.16-0.21,0.24-0.37,0.24c-0.12,0-0.28-0.09-0.48-0.26c-0.2-0.18-0.46-0.37-0.8-0.59
				c-0.33-0.22-0.75-0.41-1.25-0.59c-0.5-0.18-1.12-0.27-1.86-0.27c-0.74,0-1.38,0.1-1.94,0.31c-0.56,0.21-1.03,0.5-1.4,0.86
				c-0.38,0.36-0.66,0.78-0.86,1.26c-0.2,0.48-0.29,0.98-0.29,1.5c0,0.69,0.14,1.25,0.44,1.7c0.29,0.45,0.67,0.83,1.15,1.14
				c0.48,0.31,1.02,0.58,1.62,0.79c0.61,0.22,1.23,0.43,1.87,0.64c0.64,0.21,1.26,0.44,1.87,0.69c0.61,0.25,1.15,0.57,1.62,0.95
				c0.48,0.38,0.86,0.85,1.15,1.41c0.29,0.56,0.44,1.25,0.44,2.08c0,0.85-0.15,1.64-0.44,2.39c-0.29,0.75-0.71,1.4-1.26,1.95
				c-0.55,0.55-1.23,0.99-2.03,1.31c-0.8,0.32-1.71,0.48-2.74,0.48c-1.33,0-2.48-0.24-3.44-0.71c-0.96-0.47-1.81-1.11-2.53-1.93
				l0.4-0.63c0.11-0.14,0.25-0.22,0.4-0.22c0.09,0,0.19,0.06,0.33,0.17c0.13,0.11,0.3,0.25,0.49,0.42c0.19,0.17,0.42,0.35,0.68,0.54
				c0.27,0.2,0.58,0.38,0.93,0.54c0.35,0.17,0.76,0.31,1.22,0.42c0.46,0.11,0.98,0.17,1.56,0.17c0.8,0,1.52-0.12,2.14-0.36
				c0.63-0.24,1.16-0.57,1.6-0.99c0.43-0.42,0.77-0.92,0.99-1.49c0.23-0.58,0.34-1.19,0.34-1.85c0-0.71-0.15-1.3-0.44-1.76
				c-0.29-0.46-0.67-0.85-1.15-1.16c-0.48-0.31-1.02-0.57-1.62-0.78c-0.6-0.21-1.23-0.41-1.86-0.61c-0.64-0.2-1.26-0.42-1.87-0.67
				c-0.61-0.25-1.15-0.56-1.62-0.95c-0.48-0.39-0.86-0.87-1.15-1.44c-0.29-0.58-0.44-1.3-0.44-2.16c0-0.68,0.13-1.33,0.39-1.96
				c0.26-0.63,0.63-1.18,1.13-1.66c0.5-0.48,1.11-0.87,1.84-1.16c0.73-0.29,1.56-0.44,2.5-0.44c1.05,0,1.99,0.17,2.82,0.5
				s1.59,0.84,2.28,1.53L482.86,95.79z"/>
		</g>
	</g>
</g>
</svg>
